<?xml version="1.0" encoding="UTF-8"?>
<svg width="12px" height="12px" viewBox="0 0 12 12" version="1.1" xmlns="http://www.w3.org/2000/svg" xmlns:xlink="http://www.w3.org/1999/xlink">
    <!-- Generator: Sketch 63.1 (92452) - https://sketch.com -->
    <title>12px/delete</title>
    <desc>Created with Sketch.</desc>
    <g id="12px/delete" stroke="none" stroke-width="1" fill="none" fill-rule="evenodd">
        <rect id="box_20" x="0" y="0" width="12" height="12"></rect>
        <path d="M7.25627486,9.38888944 C7.02033577,9.38888944 6.83021008,9.19876376 6.83021008,8.96282465 L6.83021008,4.2738214 C6.83021008,4.03788231 7.02033576,3.84775661 7.25627486,3.84775661 C7.49221397,3.84775661 7.68233965,4.03788229 7.68233965,4.2738214 L7.68233965,8.96053398 C7.68233965,9.19647307 7.49221396,9.38888944 7.25627486,9.38888944 Z M4.69988617,9.38888944 C4.46394708,9.38888944 4.27382139,9.19876376 4.27382139,8.96282465 L4.27382139,4.2738214 C4.27382139,4.03788231 4.46394708,3.84775661 4.69988619,3.84775661 C4.93582528,3.84775661 5.12595097,4.03788229 5.12595097,4.2738214 L5.12595097,8.96053398 C5.12595097,9.19647307 4.93582528,9.38888944 4.69988617,9.38888944 Z M11.5192133,2.1434975 L9.38888942,2.1434975 L9.38888944,1.29136794 C9.38888944,0.585841313 8.82080307,0.0131735929 8.11985778,0.0131735929 L3.84775661,0.0131735929 C3.14222999,0.0131735929 2.56956227,0.585841313 2.56956227,1.29136794 L2.56956227,2.1434975 L0.439238366,2.1434975 C0.203299272,2.1434975 0.0131735795,2.33362318 0.0131735795,2.56956228 C0.0131735795,2.80550139 0.203299259,2.99562707 0.439238366,2.99562707 L11.5192133,2.99562707 C11.7551524,2.99562707 11.9452781,2.80550139 11.9452781,2.56956228 C11.9452781,2.33362318 11.7551524,2.1434975 11.5192133,2.1434975 Z M3.42169184,1.29136794 C3.42169184,1.05771951 3.61410819,0.865303152 3.84775663,0.865303152 L8.11985778,0.865303152 C8.35350621,0.865303152 8.53675988,1.05313816 8.53675988,1.29136794 L8.53675988,2.1434975 L3.42169184,2.1434975 L3.42169184,1.29136794 L3.42169184,1.29136794 Z M8.96282465,11.9452781 L2.99791772,11.9452781 C2.2923911,11.9452781 1.71972338,11.3726104 1.71972338,10.6670838 L1.71972338,4.26924005 C1.71972338,4.03330095 1.90984906,3.84317526 2.14578817,3.84317526 C2.38172727,3.84317526 2.57185295,4.03330094 2.57185295,4.26924005 L2.57185295,10.6670838 C2.57185295,10.9030229 2.7642693,11.0931486 2.99791774,11.0931486 L8.96511533,11.0931486 C9.20105443,11.0931486 9.39118012,10.9030229 9.39118012,10.6670838 L9.3911801,4.28527475 C9.3911801,4.04933565 9.58130578,3.85920996 9.81724489,3.85920996 C10.053184,3.85920996 10.2433097,4.04933564 10.2433097,4.28527475 L10.2433097,10.6670838 C10.241019,11.3703197 9.66835127,11.9452781 8.96282465,11.9452781 Z" id="形状" fill="#555555"></path>
    </g>
</svg>