<?xml version="1.0" encoding="UTF-8"?>
<svg width="20px" height="20px" viewBox="0 0 20 20" version="1.1" xmlns="http://www.w3.org/2000/svg" xmlns:xlink="http://www.w3.org/1999/xlink">
    <!-- Generator: Sketch 63.1 (92452) - https://sketch.com -->
    <title>20px/Edit</title>
    <desc>Created with Sketch.</desc>
    <g id="20px/Edit" stroke="none" stroke-width="1" fill="none" fill-rule="evenodd">
        <rect id="box_20" x="0" y="0" width="20" height="20"></rect>
        <path d="M12.4993672,2.0033615 C12.7745813,2.0033615 12.9976865,2.22646663 12.9976865,2.50168075 C12.9976865,2.77689487 12.7745813,3 12.4993672,3 L12.4993672,3 L4,3 C3.36798671,3 3,3.36572015 3,4 L3,4 L3,16 C3,16.6756529 3.31311047,17 4,17 L4,17 L16,17 C16.7585724,17 16.9949557,16.3866096 17,16 L17,16 L17,8.5 C17,8.22385763 17.2238576,8 17.5,8 C17.7761424,8 18,8.22385763 18,8.5 L18,8.5 L18,16 C18.0081225,16.4549677 18,17 17.548546,17.4741915 C17.097092,17.9483831 16.4557882,17.9946847 16,18.000115 L16,18.000115 L3.88325555,17.9999038 C3.44962761,17.9968354 2.95723052,17.956288 2.48676624,17.4741915 C2.00057563,17 1.98859575,16.4599698 2.00057563,16 L2.00057563,16 L2.00104252,3.88246772 C2.0048458,3.44657894 2.0434749,2.95907868 2.50702418,2.50894418 C3,2.00133394 3.5371687,2.00133394 4,2.0033615 Z M16.3894665,2.45782518 L16.4854312,2.53898022 L17.4811453,3.49299163 C17.8413417,3.83810227 17.8882943,4.38973631 17.6088233,4.78829818 L17.5321475,4.88454155 L9.83727238,13.422396 L6.86248168,14.6936845 L6.65990226,14.6936845 C6.49871897,14.696715 6.34562534,14.6231422 6.2476206,14.4953549 C6.16921681,14.393125 6.1335642,14.2659696 6.1455678,14.1400962 L6.16358269,14.046341 L6.9941583,11.1215395 L15.0715411,2.56922188 C15.424234,2.20111173 15.9907423,2.16125882 16.3894665,2.45782518 Z M15.793607,3.26104614 L7.889,11.63 L7.392,13.379 L9.241,12.589 L16.789321,4.21505755 L15.793607,3.26104614 Z" id="形状" fill="#2A8FF7"></path>
    </g>
</svg>