<?xml version="1.0" encoding="UTF-8"?>
<svg width="12px" height="12px" viewBox="0 0 12 12" version="1.1" xmlns="http://www.w3.org/2000/svg" xmlns:xlink="http://www.w3.org/1999/xlink">
    <!-- Generator: Sketch 63.1 (92452) - https://sketch.com -->
    <title>12px/edit</title>
    <desc>Created with Sketch.</desc>
    <g id="12px/edit" stroke="none" stroke-width="1" fill="none" fill-rule="evenodd">
        <rect id="box_20" x="0" y="0" width="12" height="12"></rect>
        <path d="M11.8776074,11.7291028 C11.7852403,11.8724376 11.6257228,11.9582781 11.4552147,11.9564034 L0.492331288,11.9564034 C0.321823186,11.9582781 0.162305663,11.8724376 0.0699386503,11.7291028 C-0.0173724861,11.5898137 -0.0173724861,11.4128704 0.0699386503,11.2735813 C0.161303364,11.1287071 0.321058235,11.0413466 0.492331288,11.0425997 L11.4542945,11.0425997 C11.6248458,11.0405493 11.7844429,11.1264327 11.8766871,11.2699003 C11.9662801,11.4097607 11.9666391,11.5888844 11.8776074,11.7291028 L11.8776074,11.7291028 Z M6.28895706,8.17603528 C5.77750538,8.64247498 5.13495196,8.94029849 4.44846626,9.02910276 L3.2595092,9.12848926 C2.68343558,9.17542178 2.36687117,9.2021089 2.30705521,9.2021089 C2.18473977,9.201969 2.06739092,9.15370722 1.9803681,9.06775307 C1.82484663,8.91315184 1.82484663,8.91315184 1.91779141,7.7913727 L2.01717791,6.60425613 C2.10629904,5.91768105 2.40444151,5.27513262 2.87116564,4.76376534 L7.24417178,0.395360429 C7.78771679,-0.120099726 8.63958382,-0.120099726 9.18312883,0.395360429 L10.6619632,1.87327454 C11.1945601,2.40735943 11.1945601,3.27170499 10.6619632,3.80578988 L6.28895706,8.17603528 Z M10.0150307,2.51652607 L8.53527607,1.03861196 C8.35636035,0.863239474 8.07002002,0.863239474 7.89110429,1.03861196 L3.51993865,5.40609663 C3.20333939,5.76285867 2.99853903,6.20477945 2.9309816,6.67695552 L2.83067485,7.86315184 L2.7993865,8.24781442 L3.18404908,8.21652607 L4.37300613,8.11713957 C4.84507355,8.04921567 5.28689361,7.84446199 5.64386503,7.52818252 L10.0159509,3.16069785 C10.1908132,2.98128147 10.1899951,2.69494032 10.0141104,2.51652607 L10.0150307,2.51652607 Z" id="形状" fill="#888888"></path>
    </g>
</svg>