<?xml version="1.0" encoding="UTF-8"?>
<svg width="20px" height="20px" viewBox="0 0 20 20" version="1.1" xmlns="http://www.w3.org/2000/svg" xmlns:xlink="http://www.w3.org/1999/xlink">
    <!-- Generator: Sketch 63.1 (92452) - https://sketch.com -->
    <title>20px/table_CSV</title>
    <desc>Created with Sketch.</desc>
    <g id="20px/table_CSV" stroke="none" stroke-width="1" fill="none" fill-rule="evenodd">
        <rect id="box_20" x="0" y="0" width="20" height="20"></rect>
        <path d="M19,2 C19.5522847,2 20,2.44771525 20,3 L20,17 C20,17.5522847 19.5522847,18 19,18 L1,18 C0.44771525,18 -2.13162821e-14,17.5522847 -2.13162821e-14,17 L-1.77635684e-14,3 C-1.77635684e-14,2.44771525 0.44771525,2 1,2 L19,2 Z M1,3 L1,17 L19,17 L19,3 L1,3 Z M7,6 L7,7 L4,7 L4,13 L7,13 L7,14 L3,14 L3,6 L7,6 Z M12,6 L12,7 L9,7 L9,9.5 L12,9.5 L12,14 L8,14 L8,13 L11,13 L11,10.5 L8,10.5 L8,6 L12,6 Z M14,6 L14,9.98734462 L15,12.5971121 L16,10 L16,6 L17,6 L17,10 L15.5,13.9750946 L14.5,14 L13,10 L13,6 L14,6 Z" id="csv" fill="#555555"></path>
    </g>
</svg>