<?xml version="1.0" encoding="UTF-8"?>
<svg width="20px" height="20px" viewBox="0 0 20 20" version="1.1" xmlns="http://www.w3.org/2000/svg" xmlns:xlink="http://www.w3.org/1999/xlink">
    <!-- Generator: Sketch 63.1 (92452) - https://sketch.com -->
    <title>20px/table_ETL</title>
    <desc>Created with Sketch.</desc>
    <g id="20px/table_ETL" stroke="none" stroke-width="1" fill="none" fill-rule="evenodd">
        <rect id="box_20" x="0" y="0" width="20" height="20"></rect>
        <path d="M17,14 C17.5522847,14 18,14.4477153 18,15 L18,19 C18,19.5522847 17.5522847,20 17,20 L3,20 C2.44771525,20 2,19.5522847 2,19 L2,15 C2,14.4477153 2.44771525,14 3,14 L17,14 Z M17,15 L3,15 L3,19 L17,19 L17,15 Z M6,16 L6,18 L4,18 L4,16 L6,16 Z M17,7 C17.5522847,7 18,7.44771525 18,8 L18,12 C18,12.5522847 17.5522847,13 17,13 L3,13 C2.44771525,13 2,12.5522847 2,12 L2,8 C2,7.44771525 2.44771525,7 3,7 L17,7 Z M17,8 L3,8 L3,12 L17,12 L17,8 Z M6,9 L6,11 L4,11 L4,9 L6,9 Z M17,0 C17.5522847,0 18,0.44771525 18,1 L18,5 C18,5.55228475 17.5522847,6 17,6 L3,6 C2.44771525,6 2,5.55228475 2,5 L2,1 C2,0.44771525 2.44771525,0 3,0 L17,0 Z M17,1 L3,1 L3,5 L17,5 L17,1 Z M6,2 L6,4 L4,4 L4,2 L6,2 Z" id="形状结合" fill="#555555"></path>
    </g>
</svg>