<?xml version="1.0" encoding="UTF-8"?>
<svg width="20px" height="20px" viewBox="0 0 20 20" version="1.1" xmlns="http://www.w3.org/2000/svg" xmlns:xlink="http://www.w3.org/1999/xlink">
    <!-- Generator: Sketch 63.1 (92452) - https://sketch.com -->
    <title>20px/table_system</title>
    <desc>Created with Sketch.</desc>
    <g id="20px/table_system" stroke="none" stroke-width="1" fill="none" fill-rule="evenodd">
        <rect id="box_20" x="0" y="0" width="20" height="20"></rect>
        <path d="M19,2 C19.5522847,2 20,2.44771525 20,3 L20,15 C20,15.5522847 19.5522847,16 19,16 L11,16 L11,18 L15,18 L15,19 L5,19 L5,18 L9,18 L9,16 L1,16 C0.44771525,16 0,15.5522847 0,15 L0,3 C0,2.44771525 0.44771525,2 1,2 L19,2 Z M19,3 L1,3 L1,15 L19,15 L19,3 Z M5,5 L5,7 L3,7 L3,5 L5,5 Z" id="形状结合" fill="#555555"></path>
    </g>
</svg>