<?xml version="1.0" encoding="UTF-8"?>
<svg width="20px" height="20px" viewBox="0 0 20 20" version="1.1" xmlns="http://www.w3.org/2000/svg" xmlns:xlink="http://www.w3.org/1999/xlink">
    <!-- Generator: Sketch 63.1 (92452) - https://sketch.com -->
    <title>20px/table_ETL process</title>
    <desc>Created with Sketch.</desc>
    <g id="20px/table_ETL-process" stroke="none" stroke-width="1" fill="none" fill-rule="evenodd">
        <rect id="box_20" x="0" y="0" width="20" height="20"></rect>
        <path d="M17,0 C17.5522847,0 18,0.44771525 18,1 L18,19 C18,19.5522847 17.5522847,20 17,20 L3,20 C2.44771525,20 2,19.5522847 2,19 L2,1 C2,0.44771525 2.44771525,0 3,0 L17,0 Z M17,1 L3,1 L3,19 L17,19 L17,1 Z M15,16 L15,17 L5,17 L5,16 L15,16 Z M7,12 L7,14 L5,14 L5,12 L7,12 Z M15,7 L15,8 L5,8 L5,7 L15,7 Z M7,3 L7,5 L5,5 L5,3 L7,3 Z" id="形状结合" fill="#555555"></path>
    </g>
</svg>