<?xml version="1.0" encoding="UTF-8"?>
<svg width="187px" height="150px" viewBox="0 0 187 150" version="1.1" xmlns="http://www.w3.org/2000/svg" xmlns:xlink="http://www.w3.org/1999/xlink">
    <!-- Generator: Sketch 59 (86127) - https://sketch.com -->
    <title>46572C68-525A-4920-BB4E-468759CA981F</title>
    <desc>Created with Sketch.</desc>
    <g id="Keywords-Search" stroke="none" stroke-width="1" fill="none" fill-rule="evenodd" fill-opacity="0.65">
        <g id="结果状态---出错" transform="translate(-755.000000, -413.000000)" fill="#929090" fill-rule="nonzero">
            <g id="Group" transform="translate(755.000000, 356.000000)">
                <g id="出错" transform="translate(0.000000, 57.000000)">
                    <path d="M23,142.999032 C23,146.864573 53.6691729,150 91.5,150 C129.332707,150 160,146.864573 160,142.999032 C160,139.13349 129.332707,136 91.5,136 C53.6691729,136 23,139.13349 23,142.999032 Z" id="Path"></path>
                    <polygon id="Path" points="13.8150225 2 87 10.399814 78.5568017 30 11 21.600186"></polygon>
                    <path d="M72.3639612,128 L4.00362642,120.935311 C1.44936741,120.653924 -0.253471936,118.393449 0.0309625115,116.132974 L10.8131001,3.98713574 C11.0956509,1.44339756 13.3654755,-0.252427902 15.6353,0.0308349789 L92.7904986,8.78947332 L67.2610942,62.4612235 L103,99.7506244 L72.3639612,128 Z M5.7045821,115.5702 L70.3785711,122.068363 L95.0584395,99.1859745 L60.7341712,63.3072603 L84.2800692,13.3066721 L16.2004016,5.68108528 L5.7045821,115.5702 Z" id="Shape"></path>
                    <polygon id="Path" points="98.6927439 10.3986985 164.153628 2 167 21.5994422 93 30"></polygon>
                    <path d="M153.998229,18 C151.866313,18 150,16.1336875 150,14 C150,11.8663125 151.866313,10 153.998229,10 C156.131917,10 158,11.8663125 158,14.0017707 C158,16.1336875 156.131917,18 153.998229,18 Z M153.998229,13.4670208 C153.467021,13.4670208 153.199646,13.7326251 153.199646,14.2673749 C153.199646,14.7985834 153.46525,15.0659584 153.998229,15.0659584 C154.532979,15.0659584 154.798583,14.8003541 154.798583,14.2673749 C154.798583,13.7326251 154.532979,13.4670208 153.998229,13.4670208 Z" id="Shape"></path>
                    <path d="M97.6614148,131.998131 L120.270863,95.4171637 L80.4214053,64.7464785 L97.3798993,8.75108286 L164.076553,0.0304731482 C166.621453,-0.249812144 168.599569,1.43750531 169.164476,3.68726192 L186.969394,112.865857 C187.250909,115.397768 185.556186,117.649393 183.294678,117.929678 L97.6614148,132 L97.6614148,131.998131 Z M86.9225367,62.7770072 L127.618418,94.2922854 L108.963324,124.680817 L181.314686,112.863989 L163.793161,6.21917239 L101.615769,14.3792115 L86.9206599,62.7770072 L86.9225367,62.7770072 Z M12,25.4037663 L12.6080735,19.8092719 L80.8849675,27.1396666 L80.2787707,32.734161 L12,25.4037663 L12,25.4037663 Z M68.2693193,54.8991219 L67.9878038,54.8991219 L37.1806236,50.6761568 C35.7674158,50.3958715 34.6376002,48.9888394 34.6376002,47.5818072 C34.9191157,46.174775 36.3342003,45.0498967 37.7474081,45.0498967 L68.5527115,48.9869708 C69.9659194,49.2672561 71.0957349,50.6761568 71.0957349,52.083189 C71.0957349,53.7705065 69.6825271,54.8972533 68.2693193,54.8972533 L68.2693193,54.8991219 Z M75.3353585,77.409768 L75.053843,77.409768 L37.1806236,72.6262323 C35.7674158,72.3440785 34.6376002,70.9370463 34.6376002,69.5300141 C34.9191157,68.122982 36.3342003,66.9981037 37.7474081,66.9981037 L75.616874,71.7816393 C77.0300818,72.0619246 78.1617741,73.4689568 78.1617741,74.8759889 C77.8802586,76.2830211 76.7485663,77.409768 75.3353585,77.409768 Z" id="Shape"></path>
                    <path d="M98.9450793,102 C98.6637944,102 98.6637944,102 98.9450793,102 L32.5843657,96.0418451 C30.8910312,96.0418451 29.7602662,94.6234162 30.0434262,92.9224318 C30.0434262,91.5040029 31.455476,90.085574 33.1488106,90.3700132 L99.2282393,96.3262844 C100.640289,96.3262844 102.052339,97.7447133 101.769179,99.4456978 C101.487894,100.864127 100.357129,102 98.9450793,102 L98.9450793,102 Z M92.1267353,28.3245801 L168.242406,18 L169,23.6209719 L92.8805786,33.9474357 L92.1267353,28.3245801 Z M87.6505563,54.6267351 C86.2385066,54.6267351 85.1096168,53.4908618 84.8264568,52.0724329 C84.545172,50.654004 85.6740617,49.2355751 87.3673963,48.9530195 L150.622725,41.5764358 C152.034775,41.2938802 153.446825,42.4278698 153.72811,44.130738 C154.01127,45.5491669 152.88238,46.9675958 151.18717,47.2501514 L87.9337164,54.6286188 L87.6524316,54.6286188 L87.6505563,54.6267351 Z" id="Shape"></path>
                    <path d="M97.8127001,77.521567 C96.4063501,77.521567 95.2820171,76.3846107 95,74.9624711 C95,73.2570367 96.124333,72.1181918 97.530683,71.834897 L152.092583,67 C153.498933,67 154.905283,68.1369563 155.1873,69.5590959 C155.1873,71.2664189 154.061099,72.4033752 152.656617,72.6885585 L97.8127001,77.5234556 C98.0928495,77.5234556 97.8127001,77.5234556 97.8127001,77.5234556 L97.8127001,77.521567 Z M123.6873,98 C122.28095,98 121.156617,97.1463385 120.8746,95.7241989 C120.59445,94.3020592 121.718783,92.5966248 123.125133,92.5966248 L154.905283,87.478433 C156.311633,87.1932497 158,88.3283173 158,89.7523456 C158,91.1744852 157.155816,92.8799196 155.749466,92.8799196 L123.969317,97.9981114 L123.6873,97.9981114 L123.6873,98 Z" id="Shape"></path>
                </g>
            </g>
        </g>
    </g>
</svg>