<?xml version="1.0" encoding="UTF-8"?>
<svg width="16px" height="16px" viewBox="0 0 16 16" version="1.1" xmlns="http://www.w3.org/2000/svg" xmlns:xlink="http://www.w3.org/1999/xlink">
    <!-- Generator: Sketch 61.2 (89653) - https://sketch.com -->
    <title>7DB58978-5B93-4D67-AE00-C30BBFB69CA7</title>
    <desc>Created with Sketch.</desc>
    <g id="Keywords-Search-V2.0" stroke="none" stroke-width="1" fill="none" fill-rule="evenodd" fill-opacity="0.65">
        <g id="数据看板-" transform="translate(-160.000000, -206.000000)" fill="#000000" fill-rule="nonzero">
            <g id="filter---fill" transform="translate(160.000000, 206.000000)">
                <path d="M15.9314865,0.44357595 C16.060273,0.75384551 16.0074972,1.01903103 15.7731592,1.2391325 L10.1785767,6.84153118 L10.1785767,15.2727773 C10.1785767,15.5908065 10.0309185,15.8143043 9.73560212,15.9432707 C9.63683368,15.9810902 9.54242831,16 9.45238602,16 C9.24808927,16 9.0776791,15.9282465 8.94115549,15.7847396 L6.03637545,12.8759013 C5.89306871,12.7323943 5.82141534,12.5617461 5.82141534,12.3639565 L5.82141534,6.84154865 L0.22683284,1.23914998 C-0.00749351784,1.0190485 -0.0602693052,0.753862986 0.0685054775,0.443593427 C0.197291895,0.147864476 0.420477861,0 0.738063375,0 L15.2619461,0 C15.5795316,0 15.8027176,0.147864476 15.931504,0.443593427 L15.9314865,0.44357595 Z" id="Path"></path>
            </g>
        </g>
    </g>
</svg>