<?xml version="1.0" encoding="UTF-8"?>
<svg width="16px" height="16px" viewBox="0 0 16 16" version="1.1" xmlns="http://www.w3.org/2000/svg" xmlns:xlink="http://www.w3.org/1999/xlink">
    <!-- Generator: Sketch 59 (86127) - https://sketch.com -->
    <title>602DEFB1-E9AA-410D-85CC-E4998FFDD948</title>
    <desc>Created with Sketch.</desc>
    <g id="Keywords-Search" stroke="none" stroke-width="1" fill="none" fill-rule="evenodd" opacity="0.65">
        <g id="搜索页面---键盘精灵" transform="translate(-288.000000, -253.000000)" fill="#000000" fill-rule="nonzero">
            <g id="历史" transform="translate(288.000000, 253.000000)">
                <path d="M8.02941176,0.502941176 C3.87200108,0.502941176 0.5,3.87453614 0.5,8.03325977 C0.5,12.1919834 3.87200108,15.5617647 8.02941176,15.5617647 C12.1868225,15.5617647 15.5588235,12.1901697 15.5588235,8.03325977 C15.5588235,3.8763498 12.1886363,0.502941176 8.02941176,0.502941176 Z M8.02941176,14.8780147 C4.24928791,14.8780147 1.18383239,11.8129284 1.18383239,8.03325977 C1.18383239,4.25177753 4.24928791,1.18850486 8.02941176,1.18850486 C11.8095356,1.18850486 14.8749919,4.25177753 14.8749919,8.03325977 C14.876805,11.8129284 11.8113495,14.8780147 8.02941176,14.8780147 Z M12.0163178,8.03325977 L8.47381212,8.03325977 L8.47381212,3.60430071 C8.47381212,3.41568002 8.21986906,3.2415686 8.03122564,3.2415686 C7.84258223,3.2415686 7.58863917,3.41386636 7.58863917,3.60430071 L7.58863917,8.47579295 C7.58863917,8.66441364 7.84258223,8.91832612 8.03122564,8.91832612 L12.0181317,8.91832612 C12.2067751,8.91832612 12.4607182,8.66441364 12.4607182,8.47579295 C12.4589043,8.28717225 12.2049612,8.03325977 12.0163178,8.03325977 L12.0163178,8.03325977 Z" id="Shape"></path>
            </g>
        </g>
    </g>
</svg>