<?xml version="1.0" encoding="UTF-8"?>
<svg width="12px" height="12px" viewBox="0 0 12 12" version="1.1" xmlns="http://www.w3.org/2000/svg" xmlns:xlink="http://www.w3.org/1999/xlink">
    <!-- Generator: Sketch 59 (86127) - https://sketch.com -->
    <title>74710CEC-0B74-440B-A248-31A21F310333</title>
    <desc>Created with Sketch.</desc>
    <g id="Keywords-Search" stroke="none" stroke-width="1" fill="none" fill-rule="evenodd">
        <g id="结果---图" transform="translate(-40.000000, -533.000000)" fill="#145BD2" fill-rule="nonzero">
            <g id="加" transform="translate(40.000000, 533.000000)">
                <path d="M11.0625,5.4375 L6.5625,5.4375 L6.5625,0.9375 C6.5625,0.628125 6.309375,0.375 6,0.375 C5.690625,0.375 5.4375,0.628125 5.4375,0.9375 L5.4375,5.4375 L0.9375,5.4375 C0.628125,5.4375 0.375,5.690625 0.375,6 C0.375,6.309375 0.628125,6.5625 0.9375,6.5625 L5.4375,6.5625 L5.4375,11.0625 C5.4375,11.371875 5.690625,11.625 6,11.625 C6.309375,11.625 6.5625,11.371875 6.5625,11.0625 L6.5625,6.5625 L11.0625,6.5625 C11.371875,6.5625 11.625,6.309375 11.625,6 C11.625,5.690625 11.371875,5.4375 11.0625,5.4375 Z" id="Path"></path>
            </g>
        </g>
    </g>
</svg>