<?xml version="1.0" encoding="UTF-8"?>
<svg width="12px" height="12px" viewBox="0 0 12 12" version="1.1" xmlns="http://www.w3.org/2000/svg" xmlns:xlink="http://www.w3.org/1999/xlink">
    <!-- Generator: Sketch 59 (86127) - https://sketch.com -->
    <title>814A4705-E9A2-4CCD-8411-A420043C4335</title>
    <desc>Created with Sketch.</desc>
    <g id="Keywords-Search" stroke="none" stroke-width="1" fill="none" fill-rule="evenodd">
        <g id="结果---图" transform="translate(-40.000000, -562.000000)" fill="#145BD2" fill-rule="nonzero">
            <g id="navigation_cancel" transform="translate(40.000000, 562.000000)">
                <path d="M1.2,11.3333333 C1.04,11.3333333 0.933333344,11.28 0.826666656,11.1733333 C0.613333313,10.96 0.613333313,10.64 0.826666656,10.4266667 L10.4266667,0.880000031 C10.64,0.666666687 10.96,0.666666687 11.1733333,0.880000031 C11.3866667,1.09333337 11.3866667,1.41333337 11.1733333,1.62666669 L1.57333331,11.1733333 C1.46666666,11.28 1.36,11.3333333 1.2,11.3333333 Z M10.8,11.3333333 C10.64,11.3333333 10.5333333,11.28 10.4266667,11.1733333 L0.826666656,1.62666669 C0.613333313,1.41333334 0.613333313,1.09333334 0.826666656,0.880000031 C1.04,0.666666687 1.36,0.666666687 1.57333331,0.880000031 L11.1733333,10.4266667 C11.3866667,10.64 11.3866667,10.96 11.1733333,11.1733333 C11.0666667,11.28 10.96,11.3333333 10.8,11.3333333 Z" id="Shape"></path>
            </g>
        </g>
    </g>
</svg>