<?xml version="1.0" encoding="UTF-8"?>
<svg width="16px" height="16px" viewBox="0 0 16 16" version="1.1" xmlns="http://www.w3.org/2000/svg" xmlns:xlink="http://www.w3.org/1999/xlink">
    <!-- Generator: Sketch 59 (86127) - https://sketch.com -->
    <title>408298AE-2533-4AB2-9A30-F77C4EA1159E</title>
    <desc>Created with Sketch.</desc>
    <g id="Keywords-Search-V2.0" stroke="none" stroke-width="1" fill="none" fill-rule="evenodd">
        <g id="数据看板-" transform="translate(-208.000000, -264.000000)" fill="#145BD2" fill-rule="nonzero">
            <g id="7.Icon/interface/24.edit/outline" transform="translate(208.000000, 264.000000)">
                <path d="M3.45892857,12.2857143 C3.49464286,12.2857143 3.53035714,12.2821429 3.56607143,12.2767857 L6.56964286,11.75 C6.60535714,11.7428571 6.63928571,11.7267857 6.66428571,11.7 L14.2339286,4.13035714 C14.3035714,4.06071429 14.3035714,3.94821429 14.2339286,3.87857143 L11.2660714,0.908928571 C11.2321429,0.875 11.1875,0.857142857 11.1392857,0.857142857 C11.0910714,0.857142857 11.0464286,0.875 11.0125,0.908928571 L3.44285714,8.47857143 C3.41607143,8.50535714 3.4,8.5375 3.39285714,8.57321429 L2.86607143,11.5767857 C2.83214286,11.775 2.89285714,11.9678571 3.03392857,12.1089286 C3.15178571,12.2232143 3.3,12.2857143 3.45892857,12.2857143 L3.45892857,12.2857143 Z M4.6625,9.17142857 L11.1392857,2.69642857 L12.4482143,4.00535714 L5.97142857,10.4803571 L4.38392857,10.7607143 L4.6625,9.17142857 L4.6625,9.17142857 Z M14.5714286,13.7857143 L1.42857143,13.7857143 C1.1125,13.7857143 0.857142857,14.0410714 0.857142857,14.3571429 L0.857142857,15 C0.857142857,15.0785714 0.921428571,15.1428571 1,15.1428571 L15,15.1428571 C15.0785714,15.1428571 15.1428571,15.0785714 15.1428571,15 L15.1428571,14.3571429 C15.1428571,14.0410714 14.8875,13.7857143 14.5714286,13.7857143 Z" id="fill"></path>
            </g>
        </g>
    </g>
</svg>