<?xml version="1.0" encoding="utf-8"?>
<!-- Generator: Adobe Illustrator 22.1.0, SVG Export Plug-In . SVG Version: 6.00 Build 0)  -->
<svg version="1.1" id="图层_1" xmlns="http://www.w3.org/2000/svg" xmlns:xlink="http://www.w3.org/1999/xlink" x="0px" y="0px"
	 viewBox="0 0 12 12" style="enable-background:new 0 0 12 12;" xml:space="preserve">
<style type="text/css">
	.st0{fill:#666666;}
</style>
<path class="st0" d="M6,0C2.7,0,0,2.7,0,6s2.7,6,6,6s6-2.7,6-6S9.3,0,6,0z M3.1,8.8C3,8.8,2.9,8.9,2.8,8.9c-0.2,0-0.3-0.1-0.4-0.2
	C1.9,8.1,1.6,7.3,1.5,6.6C1.5,6.3,1.7,6.1,2,6c0.3,0,0.5,0.2,0.6,0.4C2.6,7,2.8,7.6,3.2,8.1C3.3,8.3,3.3,8.6,3.1,8.8z M4.5,2.8
	C4,3.1,3.5,3.5,3.2,4C3.1,4.1,2.9,4.2,2.7,4.2c-0.1,0-0.2,0-0.3-0.1C2.2,3.9,2.2,3.6,2.3,3.4c0.4-0.6,1-1.1,1.7-1.4
	c0.2-0.1,0.5,0,0.7,0.2C4.8,2.4,4.7,2.7,4.5,2.8z M7.4,10.3c-0.5,0.1-0.9,0.2-1.4,0.2c-0.3,0-0.6,0-0.8-0.1
	c-0.3-0.1-0.5-0.3-0.4-0.6c0.1-0.3,0.3-0.4,0.6-0.4c0.6,0.1,1.2,0.1,1.7-0.1c0.3-0.1,0.5,0.1,0.6,0.3C7.8,9.9,7.7,10.2,7.4,10.3z
	 M8.5,3.6C8.1,3.2,7.6,2.8,7,2.7C6.8,2.6,6.6,2.3,6.7,2c0.1-0.3,0.4-0.4,0.6-0.3c0.7,0.2,1.4,0.6,1.9,1.2c0.2,0.2,0.2,0.5,0,0.7
	C9.1,3.7,9,3.7,8.9,3.7C8.8,3.7,8.6,3.7,8.5,3.6z M9.9,8.2C9.9,8.3,9.7,8.4,9.5,8.4c-0.1,0-0.2,0-0.2-0.1C9,8.2,8.9,7.9,9.1,7.7
	C9.4,7.2,9.5,6.6,9.5,6c0-0.3,0.2-0.5,0.5-0.5s0.5,0.2,0.5,0.5v0C10.5,6.8,10.3,7.5,9.9,8.2z"/>
</svg>
