<?xml version="1.0" encoding="UTF-8"?>
<svg width="24px" height="24px" viewBox="0 0 24 24" version="1.1" xmlns="http://www.w3.org/2000/svg" xmlns:xlink="http://www.w3.org/1999/xlink">
    <!-- Generator: Sketch 59 (86127) - https://sketch.com -->
    <title>D3835E96-25C7-4E90-9C44-5E5F3CD1F233</title>
    <desc>Created with Sketch.</desc>
    <g id="Keywords-Search" stroke="none" stroke-width="1" fill="none" fill-rule="evenodd">
        <g id="搜索页面---搜索框&amp;提示信息&amp;键盘精灵" transform="translate(-288.000000, -212.000000)" fill-rule="nonzero">
            <g id="提示" transform="translate(288.000000, 212.000000)">
                <path d="M11.3882018,6.47989992 C11.4793928,6.47989992 11.5711443,6.48474149 11.6638206,6.49393721 L11.6638206,6.47989992 C11.6635124,6.21497853 11.4783839,6.00032494 11.249958,6 C11.0214759,6.00045491 10.8363475,6.21504351 10.8358991,6.47986743 L10.8358991,6.49393721 C10.9287156,6.48457902 11.0207193,6.47989992 11.1116581,6.47989992 L11.3882298,6.47989992 L11.3882018,6.47989992 Z M10.5,17.4704822 C10.6919383,17.7986363 10.9611116,18 11.2499299,18 C11.5386081,18 11.8079215,17.7994487 12,17.4704822 C11.7516768,17.5004414 11.5008034,17.5196127 11.2499299,17.5196127 C10.9990565,17.5196127 10.7481831,17.5005713 10.5,17.4704822 Z" id="Shape" fill="#272636"></path>
                <path d="M12,0 C5.3726045,0 0,5.37256851 0,11.9999196 C0,18.6271421 5.3726045,24 12,24 C18.6271061,24 24,18.6271421 24,11.9999196 C24,5.37256851 18.6275563,0 12,0 Z M17.6877492,15.6758435 C17.6535691,15.8227557 17.554373,15.9412437 17.4228296,16.0011468 C17.3651768,16.0329473 15.8552412,16.8330384 13.9834084,17.2352543 C13.6662379,18.2202638 12.8880386,18.8871404 11.9996785,18.8871404 C11.1117685,18.8871404 10.3337299,18.2202316 10.0157878,17.2346112 C8.14347267,16.8304017 6.63340836,16.025809 6.54961415,15.980311 C6.42102894,15.9102471 6.32967846,15.785682 6.30623794,15.6384804 C6.30453376,15.6366477 6.30019293,15.6001527 6.30019293,15.562661 C6.30019293,15.45771 6.33418006,15.3606688 6.39173633,15.2819555 C6.40823151,15.2589332 8.16,12.8240298 8.16,11.0249101 C8.16,8.52489466 9.29054662,7.24313476 10.5748232,6.76468137 L10.5748232,6.53748032 C10.5748232,5.75189073 11.2141158,5.11260241 11.9997106,5.11260241 C12.7854662,5.11260241 13.4247267,5.75201935 13.4247267,6.53748032 L13.4247267,6.76513153 C14.709164,7.24342415 15.8395498,8.52476605 15.8395498,11.0251995 C15.8395498,12.8289494 17.5916077,15.2662964 17.6092283,15.2911516 C17.6896463,15.4016653 17.7181994,15.5422432 17.6877814,15.6757792 L17.6877492,15.6758435 Z" id="Shape" fill="#FAAD14"></path>
            </g>
        </g>
    </g>
</svg>