<?xml version="1.0" encoding="UTF-8"?>
<svg width="24px" height="24px" viewBox="0 0 24 24" version="1.1" xmlns="http://www.w3.org/2000/svg" xmlns:xlink="http://www.w3.org/1999/xlink">
    <title>icon/24px/重新评估</title>
    <g id="icon/24px/重新评估" stroke="none" stroke-width="1" fill="none" fill-rule="evenodd">
        <g id="icon/24px/更新" fill="#333333">
            <path d="M5.00700749,10.6743923 L7.46029376,12.6097101 C7.67709705,12.7807391 7.71420439,13.0951394 7.54317532,13.3119427 C7.37214153,13.5287519 7.05773893,13.5658746 6.84091358,13.3948612 L5.5089694,12.3444336 C5.68803159,15.7741638 8.52568922,18.5 12,18.5 C13.6875845,18.5 15.266014,17.8526196 16.4520051,16.7367171 C16.5609531,16.6342076 16.7022306,16.4820929 16.8758377,16.280373 C17.0479808,16.0803726 17.3428104,16.0414048 17.5609963,16.1898243 C17.7823891,16.3404253 17.8397773,16.6419859 17.6891763,16.8633787 L17.6806054,16.8756109 L17.6806054,16.8756109 C17.6143211,16.9668757 17.548982,17.0470398 17.4845881,17.1161034 C16.0856976,18.6164382 14.1166507,19.5 12,19.5 C8.00041774,19.5 4.73205357,16.3692832 4.51182647,12.4247685 L3.43261967,13.3620581 C3.24733585,13.5228443 2.97737525,13.5230568 2.79263049,13.3747219 L2.72767752,13.3121566 C2.72761565,13.3120853 2.72755379,13.312014 2.72749196,13.3119427 C2.54662315,13.1032777 2.56915641,12.7874981 2.77782141,12.6066293 L5.00700749,10.6743923 Z M12,4.5 C16.1421356,4.5 19.5,7.85786438 19.5,12 L19.4953055,12.237 L20.7313928,11.2957975 C20.9569824,11.1237324 21.2763085,11.1508778 21.4696169,11.3585529 C21.6441514,11.5460587 21.6336361,11.8395504 21.4461302,12.0140849 L21.4197943,12.0368165 L21.4197943,12.0368165 L19.0131223,13.9614492 L16.4014618,12.0225797 C16.1797406,11.8579762 16.1334375,11.5447981 16.298041,11.3230769 C16.4626385,11.1013638 16.7758052,11.0550624 16.9975183,11.2196599 L18.4918561,12.3284697 C18.4972784,12.2193858 18.5,12.1098741 18.5,12 C18.5,8.41014913 15.5898509,5.5 12,5.5 C10.026197,5.5 8.20281692,6.38588956 6.98242191,7.86733007 C6.96872558,7.88395607 6.94855642,7.90968728 6.92191443,7.94452369 C6.75378256,8.16440095 6.44305057,8.21437851 6.21444134,8.05832675 C5.99388759,7.90777377 5.93714075,7.60693232 6.08769373,7.38637857 C6.09368407,7.37760298 6.09996204,7.36902723 6.10654977,7.36069064 C6.10968682,7.35668907 6.1127689,7.35277427 6.11579599,7.34894625 C7.52275884,5.56972042 9.67129713,4.5 12,4.5 Z" id="Combined-Shape"></path>
        </g>
    </g>
</svg>