<?xml version="1.0" encoding="UTF-8"?>
<svg width="14px" height="14px" viewBox="0 0 14 14" version="1.1" xmlns="http://www.w3.org/2000/svg" xmlns:xlink="http://www.w3.org/1999/xlink">
    <title>star fill</title>
    <g id="质量改造" stroke="none" stroke-width="1" fill="none" fill-rule="evenodd">
        <g id="5检核结果-成功" transform="translate(-556.000000, -826.000000)">
            <g id="star-fill" transform="translate(556.000000, 826.000000)">
                <rect id="矩形" x="0" y="0" width="14" height="14"></rect>
                <path d="M7.11670578,1.03849843 C7.20036263,1.07806525 7.26771221,1.14541483 7.30727903,1.22907167 L8.87168326,4.53671953 C8.90014502,4.59689674 8.95668225,4.63896873 9.0224985,4.64894821 L12.5513319,5.18401204 C12.7697493,5.21712986 12.9199643,5.42103944 12.8868465,5.63945685 C12.874222,5.72271758 12.8356416,5.79987001 12.7766026,5.85992098 L10.2068931,8.47367502 C10.1621415,8.51919369 10.141806,8.58333993 10.1521591,8.64632779 L10.7554826,12.3169143 C10.7913127,12.5349032 10.6436439,12.7406642 10.4256551,12.7764944 C10.337392,12.7910019 10.2468132,12.7755071 10.1683913,12.7324857 L7.04187719,11.0173145 C6.98195997,10.9844446 6.90940693,10.9844446 6.84948971,11.0173145 L3.7229756,12.7324857 C3.52929204,12.8387384 3.28614568,12.7678616 3.17989301,12.5741781 C3.13687161,12.4957561 3.12137681,12.4051774 3.13588435,12.3169143 L3.73920776,8.64632779 C3.74956088,8.58333993 3.72922538,8.51919369 3.68447375,8.47367502 L1.11476432,5.85992098 C0.959887531,5.70238961 0.96203949,5.44913276 1.11957086,5.29425597 C1.17962183,5.23521692 1.25677426,5.19663656 1.34003499,5.18401204 L4.8688684,4.64894821 C4.93468465,4.63896873 4.99122187,4.59689674 5.01968364,4.53671953 L6.58408787,1.22907167 C6.67854089,1.02936795 6.91700206,0.944045398 7.11670578,1.03849843 Z" id="星形" fill="#FC9D2F"></path>
            </g>
        </g>
    </g>
</svg>