<?xml version="1.0" encoding="UTF-8"?>
<svg width="12px" height="12px" viewBox="0 0 12 12" version="1.1" xmlns="http://www.w3.org/2000/svg" xmlns:xlink="http://www.w3.org/1999/xlink">
    <title>12px/tree/catagory</title>
    <g id="12px/tree/catagory" stroke="none" stroke-width="1" fill="none" fill-rule="evenodd">
        <g id="tree/catagory">
            <rect id="Rectangle" fill="#000000" fill-rule="nonzero" opacity="0" x="0" y="0" width="12" height="12"></rect>
            <path d="M10.9250908,2.64089747 L6.04583892,4.62834598 L1.15543461,2.64089747 L6.03455457,0.753892863 L10.9250908,2.64089747 Z M0.753443168,3.46716127 L5.62156658,5.49914757 L5.62156658,11.0036675 C5.234517,10.8326395 4.83268145,10.6536248 4.41571215,10.4676669 C4.05852233,10.3115687 3.65460019,10.1367033 3.2042935,9.94310657 C2.75393884,9.74948584 2.30185734,9.55590109 1.84771325,9.36224439 C1.68400025,9.2878828 1.53504923,9.18932163 1.40105209,9.06658485 C1.26703096,8.94389603 1.15164519,8.809719 1.05500271,8.6647373 C0.958192348,8.5194438 0.883794785,8.36495255 0.831654141,8.20121557 C0.779525484,8.03749057 0.753443168,7.87757899 0.753443168,7.72115705 L0.753443168,3.46716127 L0.753443168,3.46716127 Z M11.2264944,3.46716127 L11.2264944,7.69890015 C11.2264944,7.8921971 11.1893076,8.0803975 11.1148981,8.26257798 C11.0403566,8.44507025 10.945453,8.6160863 10.8300552,8.77600987 C10.7148014,8.93624523 10.5863325,9.07772531 10.4448764,9.20043811 C10.3035642,9.32348668 10.1657776,9.41819846 10.0317565,9.48530497 C9.63721198,9.64901797 9.22423597,9.82005802 8.7924927,9.99871288 C8.36076141,10.1774037 7.96257138,10.3411407 7.59776672,10.4902236 C7.17348238,10.6686027 6.75671695,10.8399545 6.34724257,11.0036675 L6.34724257,5.49914757 L11.2264944,3.46716127 Z" id="Shape" fill="#333333"></path>
        </g>
    </g>
</svg>