<?xml version="1.0" encoding="UTF-8"?>
<svg width="12px" height="12px" viewBox="0 0 12 12" version="1.1" xmlns="http://www.w3.org/2000/svg" xmlns:xlink="http://www.w3.org/1999/xlink">
    <title>12px/tree/dataBase</title>
    <g id="12px/tree/dataBase" stroke="none" stroke-width="1" fill="none" fill-rule="evenodd">
        <g id="tree/dataBase" fill="#000000" fill-rule="nonzero">
            <rect id="Rectangle" opacity="0" x="0" y="0" width="12" height="12"></rect>
            <path d="M5.99765625,5.41207031 C8.59921875,5.41207031 10.7112891,4.75441406 10.7112891,3.9384375 L10.7112891,2.76234375 C10.7112891,1.94636719 8.59933594,1.28871094 5.99765625,1.28871094 C3.39609375,1.28871094 1.28402344,1.94625 1.28402344,2.76234375 L1.28402344,3.93832031 C1.28402344,4.74960938 3.39117187,5.41207031 5.99765625,5.41207031 Z M5.99765625,8.0615625 C8.59921875,8.0615625 10.7112891,7.40402344 10.7112891,6.58792969 L10.7112891,4.8215625 C10.7112891,5.63753906 8.59933594,6.29519531 5.99765625,6.29519531 C3.39609375,6.29519531 1.28402344,5.63765625 1.28402344,4.8215625 L1.28402344,6.58792969 C1.28402344,7.39921875 3.39117187,8.0615625 5.99765625,8.0615625 L5.99765625,8.0615625 Z M5.99765625,8.94480469 C3.39609375,8.94480469 1.28882812,8.28714844 1.28882812,7.47117187 L1.28882812,9.23753906 C1.28882812,10.0487109 3.39597656,10.7111719 6.00246094,10.7111719 C8.60402344,10.7111719 10.7160938,10.0536328 10.7160938,9.23753906 L10.7160938,7.47128906 C10.7111719,8.28714844 8.59921875,8.94480469 5.99765625,8.94480469 Z" id="Shape"></path>
        </g>
    </g>
</svg>