<?xml version="1.0" encoding="UTF-8"?>
<svg width="12px" height="12px" viewBox="0 0 12 12" version="1.1" xmlns="http://www.w3.org/2000/svg" xmlns:xlink="http://www.w3.org/1999/xlink">
    <title>12px/tree/systm</title>
    <g id="12px/tree/systm" stroke="none" stroke-width="1" fill="none" fill-rule="evenodd">
        <g id="tree/systm">
            <rect id="Rectangle" fill="#000000" fill-rule="nonzero" opacity="0" x="0" y="0" width="12" height="12"></rect>
            <path d="M9.57142857,9.57142857 C9.96591768,9.57142857 10.2857143,9.89122518 10.2857143,10.2857143 C10.2857143,10.6802034 9.96591768,11 9.57142857,11 L2.42857143,11 C2.03408232,11 1.71428571,10.6802034 1.71428571,10.2857143 C1.71428571,9.89122518 2.03408232,9.57142857 2.42857143,9.57142857 L9.57142857,9.57142857 Z M10.2857143,1 C10.6802034,1 11,1.31979661 11,1.71428571 L11,7.42857143 C11,7.82306053 10.6802034,8.14285714 10.2857143,8.14285714 L1.71428571,8.14285714 C1.31979661,8.14285714 1,7.82306053 1,7.42857143 L1,1.71428571 C1,1.31979661 1.31979661,1 1.71428571,1 L10.2857143,1 Z M5.28571429,2.42857143 L2.42857143,2.42857143 L2.42857143,3.85714286 L5.28571429,3.85714286 L5.28571429,2.42857143 L5.28571429,2.42857143 Z" id="Shape" fill="#333333"></path>
        </g>
    </g>
</svg>