<?xml version="1.0" encoding="UTF-8"?>
<svg width="16px" height="16px" viewBox="0 0 16 16" version="1.1" xmlns="http://www.w3.org/2000/svg" xmlns:xlink="http://www.w3.org/1999/xlink">
    <title>标签</title>
    <g id="入湖血缘icon" stroke="none" stroke-width="1" fill="none" fill-rule="evenodd">
        <g id="血缘入湖表" transform="translate(-128.000000, -264.000000)">
            <g id="标签" transform="translate(128.000000, 264.000000)">
                <rect id="Rectangle" fill="#000000" fill-rule="nonzero" opacity="0" x="0" y="0" width="16" height="16"></rect>
                <path d="M12.44,2.72 L9,2.72 C8.512,2.72 8.04,2.888 7.76,3.168 L2.104,8.816 C1.744,9.176 1.744,9.656 2.104,10.016 L5.824,13.736 C6,13.912 6.224,14.008 6.448,14.008 C6.672,14.008 6.896,13.912 7.072,13.736 L12.864,7.944 C13.104,7.704 13.248,7.344 13.248,6.976 L13.248,3.536 C13.248,2.976 12.992,2.72 12.44,2.72 Z M10.552,6.104 C10.552,6.496 10.24,6.808 9.848,6.808 C9.456,6.808 9.144,6.496 9.144,6.104 C9.144,5.712 9.456,5.4 9.848,5.4 C10.24,5.4 10.552,5.712 10.552,6.104 Z" id="Shape" fill="#1890FF"></path>
            </g>
        </g>
    </g>
</svg>