<?xml version="1.0" encoding="UTF-8"?>
<svg width="12px" height="12px" viewBox="0 0 12 12" version="1.1" xmlns="http://www.w3.org/2000/svg" xmlns:xlink="http://www.w3.org/1999/xlink">
    <!-- Generator: Sketch 59 (86127) - https://sketch.com -->
    <title>F4600E58-F331-4ABD-BDBF-0BEE9547ED68</title>
    <desc>Created with Sketch.</desc>
    <g id="Keywords-Search" stroke="none" stroke-width="1" fill="none" fill-rule="evenodd" opacity="0.65">
        <g id="搜索页面---键盘精灵" transform="translate(-68.000000, -532.000000)" fill="#000000" fill-rule="nonzero">
            <g id="度量" transform="translate(68.000000, 532.000000)">
                <path d="M0.709821429,3.75 L3.80357143,3.75 L3.80357143,4.75 L0.709821429,4.75 L0.709821429,3.75 Z M8.19642857,3.75 L11.4241071,3.75 L11.4241071,4.75 L8.19642857,4.75 L8.19642857,3.75 Z M4.66071429,3.75 L7.33928571,3.75 L7.33928571,4.75 L4.66071429,4.75 L4.66071429,3.75 Z M4.66071429,7.25 L7.33928571,7.25 L7.33928571,8.25 L4.66071429,8.25 L4.66071429,7.25 Z M8.19642857,7.25 L11.4241071,7.25 L11.4241071,8.25 L8.19642857,8.25 L8.19642857,7.25 Z M0.709821429,7.25 L3.80357143,7.25 L3.80357143,8.25 L0.709821429,8.25 L0.709821429,7.25 Z M4.66071429,4.75 L4.66071429,0.796875 L3.80357143,0.796875 L3.80357143,11.203125 L4.66071429,11.203125 L4.66071429,7.25 L4.66071429,4.75 Z M8.19642857,3.75 L8.19642857,0.796875 L7.33928571,0.796875 L7.33928571,11.203125 L8.19642857,11.203125 L8.19642857,4.75 L8.19642857,3.75 Z" id="Shape"></path>
            </g>
        </g>
    </g>
</svg>