<?xml version="1.0" encoding="UTF-8"?>
<svg width="62px" height="62px" viewBox="0 0 62 62" version="1.1" xmlns="http://www.w3.org/2000/svg" xmlns:xlink="http://www.w3.org/1999/xlink">
    <!-- Generator: Sketch 59 (86127) - https://sketch.com -->
    <title>215C9EE3-4111-4544-AEC8-44ACB50D022C</title>
    <desc>Created with Sketch.</desc>
    <g id="Keywords-Search" stroke="none" stroke-width="1" fill="none" fill-rule="evenodd">
        <g id="首页" transform="translate(-409.000000, -353.000000)">
            <g id="度量" transform="translate(400.000000, 344.000000)">
                <rect id="Rectangle" x="0" y="0" width="80" height="80"></rect>
                <path d="M9,26.5945946 L26.9025,26.5945946 L26.9025,32.5525526 L9,32.5525526 L9,26.5945946 Z M52.3225,26.5945946 L71,26.5945946 L71,32.5525526 L52.3225,32.5525526 L52.3225,26.5945946 Z M31.8625,26.5945946 L47.3625,26.5945946 L47.3625,32.5525526 L31.8625,32.5525526 L31.8625,26.5945946 Z M31.8625,47.4474474 L47.3625,47.4474474 L47.3625,53.4054054 L31.8625,53.4054054 L31.8625,47.4474474 Z M52.3225,47.4474474 L71,47.4474474 L71,53.4054054 L52.3225,53.4054054 L52.3225,47.4474474 Z M9,47.4474474 L26.9025,47.4474474 L26.9025,53.4054054 L9,53.4054054 L9,47.4474474 Z M31.9025,32.5525526 L31.9025,9 L26.9025,9 L26.9025,71 L31.9025,71 L31.9025,47.4474474 L31.9025,32.5525526 Z M52.3625,26.5945946 C52.3625,20.7297297 52.3625,14.8648649 52.3625,9 L47.3625,9 L47.3625,71 L52.3625,71 L52.3625,32.5525526 C52.3625,34.4454454 52.3625,32.4594595 52.3625,26.5945946 Z" id="Shape" fill="#B1EDDA" fill-rule="nonzero"></path>
            </g>
        </g>
    </g>
</svg>