<?xml version="1.0" encoding="UTF-8"?>
<svg width="16px" height="16px" viewBox="0 0 16 16" version="1.1" xmlns="http://www.w3.org/2000/svg" xmlns:xlink="http://www.w3.org/1999/xlink">
    <!-- Generator: Sketch 59 (86127) - https://sketch.com -->
    <title>895BDE10-C1A5-46F5-9FBA-CECA7765869C</title>
    <desc>Created with Sketch.</desc>
    <g id="Keywords-Search" stroke="none" stroke-width="1" fill="none" fill-rule="evenodd">
        <g id="搜索页面---搜索框&amp;提示信息&amp;键盘精灵" transform="translate(-1261.000000, -149.000000)" fill="#78828F" fill-rule="nonzero">
            <g id="搜索" transform="translate(1261.000000, 149.000000)">
                <rect id="Rectangle" opacity="0" x="0" y="0" width="16" height="16"></rect>
                <path d="M15.5300741,14.6998519 L12.829037,11.9988148 C13.8820741,10.7588148 14.5185185,9.15407408 14.5185185,7.3997037 C14.5185185,3.4722963 11.3348148,0.288592594 7.40740741,0.288592594 C3.48,0.288592594 0.296296297,3.4722963 0.296296297,7.3997037 C0.296296297,11.3271111 3.48,14.5108148 7.40740741,14.5108148 C9.15377778,14.5108148 10.7522963,13.8802963 11.9899259,12.8355555 L14.6921481,15.5377778 C14.9235555,15.7691852 15.2986667,15.7691852 15.5300741,15.5377778 C15.7614815,15.3063704 15.7614815,14.9312593 15.5300741,14.6998519 Z M7.40740741,13.3256296 C4.13451852,13.3256296 1.48148148,10.6725926 1.48148148,7.3997037 C1.48148148,4.12681481 4.13451852,1.47377778 7.40740741,1.47377778 C10.6802963,1.47377778 13.3333333,4.12681481 13.3333333,7.3997037 C13.3333333,10.6725926 10.6802963,13.3256296 7.40740741,13.3256296 Z" id="Shape"></path>
            </g>
        </g>
    </g>
</svg>