<?xml version="1.0" encoding="UTF-8"?>
<svg width="14px" height="14px" viewBox="0 0 14 14" version="1.1" xmlns="http://www.w3.org/2000/svg" xmlns:xlink="http://www.w3.org/1999/xlink">
    <!-- Generator: Sketch 59 (86127) - https://sketch.com -->
    <title>BD9C7D79-E100-42F3-B3CA-CCB1177B4AD3</title>
    <desc>Created with Sketch.</desc>
    <g id="Keywords-Search" stroke="none" stroke-width="1" fill="none" fill-rule="evenodd" opacity="0.65">
        <g id="搜索页面---键盘精灵" transform="translate(-289.000000, -434.000000)" fill="#000000" fill-rule="nonzero">
            <g id="日期" transform="translate(288.000000, 433.000000)">
                <rect id="Rectangle" opacity="0" x="0" y="0" width="16" height="16"></rect>
                <path d="M13.460125,3.65189062 L11.4512969,3.65189062 L11.4512969,1.52421875 C11.4512969,1.2839375 11.256875,1.0895 11.0165938,1.0895 C10.7763125,1.0895 10.581875,1.28390625 10.581875,1.52421875 L10.581875,3.651875 L5.4469375,3.651875 L5.4469375,1.48048438 C5.4469375,1.24021875 5.25251562,1.04576563 5.01221875,1.04576563 C4.77192187,1.04576563 4.57751562,1.24020313 4.57751562,1.48048438 L4.57751562,3.65189062 L2.53984375,3.65189062 C1.71542187,3.65189062 1.0446875,4.322625 1.0446875,5.14704687 L1.0446875,13.4590781 C1.0446875,14.2835 1.71542187,14.9542344 2.53984375,14.9542344 L13.4601094,14.9542344 C14.2845313,14.9542344 14.9552656,14.2835 14.9552656,13.4590781 L14.9552656,5.14704688 C14.9552656,4.322625 14.2845313,3.65189063 13.4601094,3.65189063 L13.460125,3.65189062 Z M14.0858594,13.4590781 C14.0858594,13.8042031 13.80525,14.0848125 13.460125,14.0848125 L2.53985937,14.0848125 C2.19473438,14.0848125 1.914125,13.8042031 1.914125,13.4590781 L1.914125,5.14704687 C1.914125,4.80189062 2.19473438,4.52128125 2.53985937,4.52128125 L13.460125,4.52128125 C13.80525,4.52128125 14.0858594,4.80190625 14.0858594,5.14703125 L14.0858594,13.4590781 Z M4.51171875,7.58757813 L4.51171875,8.45698438 L5.38114063,8.45698438 L5.38114063,7.58757813 L5.16379688,7.58757813 L4.51171875,7.58757813 Z M7.55765625,7.58757813 L8.4270625,7.58757813 L8.4270625,8.45698438 L7.55765625,8.45698438 L7.55765625,7.58757813 Z M7.55765625,10.1983594 L8.4270625,10.1983594 L8.4270625,11.0677812 L7.55765625,11.0677812 L7.55765625,10.1983594 Z M4.51171875,10.1983594 L5.38114063,10.1983594 L5.38114063,11.0677812 L4.51173438,11.0677812 L4.51173438,10.1983594 L4.51171875,10.1983594 Z M10.6001562,7.574 L11.4695625,7.574 L11.4695625,8.44340625 L10.6001562,8.44340625 L10.6001562,7.574 Z M10.6026875,10.2000625 L11.4721094,10.2000625 L11.4721094,11.0694687 L10.6026875,11.0694687 L10.6026875,10.2000625 Z" id="Shape"></path>
            </g>
        </g>
    </g>
</svg>