<?xml version="1.0" encoding="UTF-8"?>
<svg width="12px" height="12px" viewBox="0 0 12 12" version="1.1" xmlns="http://www.w3.org/2000/svg" xmlns:xlink="http://www.w3.org/1999/xlink">
    <title>12px/查看详情</title>
    <g id="搜索" stroke="none" stroke-width="1" fill="none" fill-rule="evenodd">
        <g id="我的资产" transform="translate(-683.000000, -280.000000)">
            <g id="card" transform="translate(416.000000, 126.000000)">
                <g id="Group-3" transform="translate(267.000000, 150.000000)">
                    <g id="12px/查看详情" transform="translate(0.000000, 4.000000)">
                        <rect id="box" stroke="#979797" fill="#D8D8D8" opacity="0" x="0.5" y="0.5" width="11" height="11"></rect>
                        <path d="M9.65834981,1 C10.3989583,1.00086241 10.9991209,1.58965938 11,2.31624253 L11,2.31624253 L11,8.59727048 C10.9941492,8.79185941 10.8316712,8.94662789 10.6332397,8.94662789 C10.4348084,8.94662789 10.2723302,8.79185941 10.2664795,8.59727048 L10.2664795,8.59727048 L10.2664795,2.31624253 C10.2664795,1.98726015 9.99368258,1.71962939 9.65834981,1.71962939 L9.65834981,1.71962939 L2.34165018,1.71962939 C2.0063174,1.71962939 1.73352052,1.98726015 1.73352052,2.31624253 L1.73352052,2.31624253 L1.73352052,9.68344445 C1.73387224,10.0128017 2.00593523,10.2797125 2.34165018,10.2800576 L2.34165018,10.2800576 L8.58247723,10.2800576 C8.78512138,10.2800576 8.94939701,10.4412222 8.94939701,10.6400288 C8.94939701,10.8388354 8.78512138,11 8.58247723,11 L8.58247723,11 L2.34165018,11 C1.60104167,10.9991376 1.00087906,10.4103406 1,9.68375747 L1,9.68375747 L1,2.31624253 C1.00087906,1.58965938 1.60104167,1.00086241 2.34165018,1 L2.34165018,1 Z M5.95341714,2.98201106 C6.73395512,2.97995823 7.48290786,3.28428055 8.03337376,3.82718252 C8.58678555,4.3672041 8.89698777,5.10198637 8.89483763,5.86774971 C8.89665761,6.51735961 8.67332806,7.14828003 8.26150211,7.6569631 L8.26150211,7.6569631 L10.2320209,9.58953892 C10.3752386,9.73010402 10.3752386,9.95794181 10.2320209,10.0985069 C10.1632979,10.1661352 10.0699628,10.2041459 9.9726246,10.2041459 C9.87528636,10.2041459 9.78195135,10.1661352 9.71322829,10.0985069 L9.71322829,10.0985069 L7.73888074,8.16154882 C7.22673575,8.54697203 6.5988868,8.75511684 5.95341714,8.75346668 C5.17287917,8.75554119 4.42392643,8.45121887 3.87346053,7.9083169 C3.31797588,7.3633518 3.01197531,6.63871412 3.01197531,5.86774971 C3.00988212,5.10199326 3.32007883,4.3672239 3.87346053,3.82718252 C4.42390624,3.28425099 5.17287214,2.97992331 5.95341714,2.98201106 Z M5.95309808,3.70134911 C4.73556251,3.70134911 3.74519814,4.67327136 3.74519814,5.86774971 C3.74519814,7.06222807 4.73556251,8.03415031 5.95309808,8.03415031 C7.17063366,8.03415031 8.16131709,7.06222807 8.16131709,5.86774971 C8.16131709,4.67327136 7.17063366,3.70134911 5.95309808,3.70134911 Z" id="形状结合" fill="#333333"></path>
                    </g>
                </g>
            </g>
        </g>
    </g>
</svg>