<svg height="24" viewBox="0 0 24 24" width="24" xmlns="http://www.w3.org/2000/svg"><g fill="none" fill-rule="evenodd"><circle cx="12" cy="12" fill="#f2f3f4" r="12"/><path d="m8.21011331 15.7897486c.13401534.1353063.31667939.2110538.5069883.2102514.19072191.0011235.37387553-.0746486.50818122-.2102514l2.77471717-2.7808865 2.7759101 2.7796919c.1340153.1353064.3166794.2110539.5069883.2102389.1903089.000815.372973-.0749325.5069883-.2102389.1344793-.1336646.2101133-.3155527.2101133-.5052899s-.075634-.3716253-.2101133-.5052899l-2.7866463-2.7784974 2.7759101-2.77730284c.1344793-.13366461.2101133-.3155527.2101133-.50528993s-.075634-.37162532-.2101133-.50528993c-.1334828-.1346625-.3151234-.21039956-.5046025-.21039956s-.3711197.07573706-.5046025.21039956l-2.7759101 2.7784974-2.77352423-2.77969194c-.13348276-.1346625-.31512338-.21039956-.50460247-.21039956-.1894791 0-.37111972.07573706-.50460248.21039956-.13447929.13366461-.21011331.3155527-.21011331.50528993 0 .18973724.07563402.37162532.21011331.50528994l2.77471718 2.77849737-2.77591009 2.7796919c-.13447929.1336646-.21011331.3155527-.21011331.5052899 0 .1897373.07563402.3716254.21011331.50529z" fill="#333" fill-rule="nonzero"/></g></svg>