<?xml version="1.0" encoding="UTF-8"?>
<svg width="24px" height="24px" viewBox="0 0 24 24" version="1.1" xmlns="http://www.w3.org/2000/svg" xmlns:xlink="http://www.w3.org/1999/xlink">
    <title>icon/24px/趋势</title>
    <g id="icon/24px/趋势" stroke="none" stroke-width="1" fill="none" fill-rule="evenodd">
        <g id="icon/24px/编辑" fill="#333333">
            <path d="M17.52,17.0625 L6.48,17.0625 C6.2145,17.0625 6,17.2506579 6,17.4835526 L6,17.9572368 C6,18.0151316 6.054,18.0625 6.12,18.0625 L17.88,18.0625 C17.946,18.0625 18,18.0151316 18,17.9572368 L18,17.4835526 C18,17.2506579 17.7855,17.0625 17.52,17.0625 Z M18.3377724,6.25745147 L18.25,6.25 C18.2824873,6.25 18.314251,6.25309838 18.3450116,6.25901575 C18.3676561,6.26335057 18.3901378,6.26943661 18.4121081,6.27699713 C18.4210676,6.27992975 18.4300884,6.28331408 18.4389811,6.28694712 C18.4570055,6.29443233 18.4744479,6.30270254 18.4913831,6.31192792 C18.497599,6.31544296 18.504235,6.31930047 18.5107719,6.32330397 C18.5269446,6.33281382 18.5420491,6.34307371 18.5565774,6.35413784 C18.5633602,6.36024512 18.5705399,6.36613541 18.5775487,6.37221749 C18.6614186,6.44256121 18.7224005,6.54153266 18.7426838,6.66148905 L18.75,6.75 L18.75,8.58962847 C18.75,8.86577085 18.5261424,9.08962847 18.25,9.08962847 C18.0045401,9.08962847 17.8003916,8.91275331 17.7580557,8.6795041 L17.75,8.58962847 L17.75,8.06 L12.3729688,14.0830079 C12.1614817,14.3198734 11.7940689,14.2982588 11.6073017,14.0598725 L11.5570275,13.9818952 L9.393,9.849 L6.13888615,13.8769251 C5.98460329,14.067837 5.71871795,14.1154439 5.51069307,14.0017637 L5.43572693,13.9515382 C5.24481503,13.7972554 5.19720819,13.53137 5.31088834,13.3233451 L5.36111385,13.248379 L9.09456655,8.62854932 C9.30187619,8.37202129 9.68788871,8.38715948 9.87932111,8.63699815 L9.9264252,8.71092722 L12.107,12.878 L17.1319831,7.24999481 L16.6562998,7.25 C16.3801574,7.25 16.1562998,7.02614237 16.1562998,6.75 C16.1562998,6.50454011 16.3331749,6.30039163 16.5664241,6.25805567 L16.6562998,6.25 L18.2283407,6.24930082 C18.2651161,6.24801013 18.3018281,6.25081657 18.3377724,6.25745147 Z" id="Path-2"></path>
        </g>
    </g>
</svg>