<?xml version="1.0" encoding="UTF-8"?>
<svg width="14px" height="16px" viewBox="0 0 14 16" version="1.1" xmlns="http://www.w3.org/2000/svg" xmlns:xlink="http://www.w3.org/1999/xlink">
    <!-- Generator: Sketch 59 (86127) - https://sketch.com -->
    <title>51D0D695-4620-436B-BD70-9C4E59D40F83</title>
    <desc>Created with Sketch.</desc>
    <g id="Keywords-Search" stroke="none" stroke-width="1" fill="none" fill-rule="evenodd" opacity="0.65">
        <g id="搜索页面---键盘精灵" transform="translate(-289.000000, -283.000000)" fill="#000000" fill-rule="nonzero">
            <g id="过滤" transform="translate(288.000000, 283.000000)">
                <rect id="Rectangle" opacity="0" x="0" y="0" width="16" height="16"></rect>
                <path d="M9.3080625,15.1981562 C9.19848437,15.1981562 9.09070313,15.1625156 9.0015625,15.0920625 L6.20660938,12.8690937 C6.08989062,12.7764531 6.0221875,12.6339062 6.0221875,12.48425 L6.0221875,7.77009375 C6.0221875,7.75410937 6.01503125,7.7398125 6.00435937,7.72917187 L1.5699375,3.293 C1.552125,3.2751875 1.53521875,3.25642187 1.52092187,3.23689062 C1.2705625,2.97404687 1.13778125,2.64265625 1.13778125,2.29242187 C1.13778125,1.54848437 1.74364062,0.942625 2.4866875,0.942625 L13.4812813,0.942625 C14.224375,0.942625 14.8302031,1.54848437 14.8302031,2.29242187 C14.8302031,2.63903125 14.6984219,2.96873437 14.4596094,3.21995312 C14.4507031,3.23246875 14.4320313,3.25467187 14.4195156,3.265375 L9.81676563,7.86992187 C9.80610938,7.88064062 9.79895313,7.8958125 9.79895313,7.91185937 L9.79895313,14.7081406 C9.79895313,14.8970469 9.69115625,15.0681562 9.52010938,15.1500469 C9.45235938,15.1821094 9.37932813,15.1981562 9.30803125,15.1981562 L9.30803125,15.1981562 L9.3080625,15.1981562 Z M7.00404688,12.2472344 L8.81714063,13.6888906 L8.81714063,7.91090625 C8.81714063,7.6320625 8.9249375,7.3719375 9.12004687,7.175 L13.7085469,2.5865 C13.7227969,2.56954687 13.7362031,2.55529687 13.7504844,2.54014062 C13.8110625,2.4759375 13.8475312,2.38603125 13.8475312,2.2924375 C13.8475312,2.09020312 13.6818125,1.92540625 13.4804844,1.92540625 L2.48679687,1.92540625 C2.28459375,1.92540625 2.11975,2.091125 2.11975,2.2924375 C2.11975,2.38692187 2.15632812,2.47782812 2.22220313,2.5455 C2.24621875,2.57045312 2.26765625,2.5971875 2.28814062,2.62210937 L6.69935937,7.0341875 C6.89267187,7.2275 7.00410937,7.49567187 7.00410937,7.77009375 L7.00410937,12.2472656 L7.00404688,12.2472344 Z" id="Shape"></path>
            </g>
        </g>
    </g>
</svg>