<?xml version="1.0" encoding="UTF-8"?>
<svg width="14px" height="14px" viewBox="0 0 14 14" version="1.1" xmlns="http://www.w3.org/2000/svg" xmlns:xlink="http://www.w3.org/1999/xlink">
    <!-- Generator: Sketch 59 (86127) - https://sketch.com -->
    <title>0EECC522-AD5E-4901-BE8D-F82EF4908C7B</title>
    <desc>Created with Sketch.</desc>
    <g id="Keywords-Search" stroke="none" stroke-width="1" fill="none" fill-rule="evenodd">
        <g id="搜索页面---键盘精灵" transform="translate(-289.000000, -534.000000)">
            <g id="运算" transform="translate(288.000000, 533.000000)">
                <rect id="Rectangle" x="0" y="0" width="16" height="16"></rect>
                <g opacity="0.65" transform="translate(1.000000, 1.000000)" fill="#000000" fill-rule="nonzero" id="Shape">
                    <path d="M11.5496788,14 L2.45148911,14 C1.08500875,14 0,12.8925234 0,11.5 L0,2.5 C0,1.10747664 1.08617669,0 2.45032118,0 L11.5496788,0 C12.9149912,0 14,1.10747664 14,2.5 L14,11.5 C14,12.8563084 12.9149912,14 11.5496788,14 Z M2.45148911,0.714953271 C1.47042629,0.714953271 0.699591215,1.5 0.699591215,2.5 L0.699591215,11.5 C0.699591215,12.5 1.47042629,13.2850467 2.45148911,13.2850467 L11.5496788,13.2850467 C12.5307416,13.2850467 13.3004088,12.5 13.3004088,11.5 L13.3004088,2.5 C13.3004088,1.5 12.5295737,0.714953271 11.5496788,0.714953271 L2.45148911,0.714953271 Z"></path>
                    <path d="M13.6496204,3.94940292 L0.350379578,3.94940292 C0.140151831,3.94940292 0,3.80497164 0,3.59008607 C0,3.37402628 0.140151831,3.23076923 0.350379578,3.23076923 L13.6496204,3.23076923 C13.8598482,3.23076923 14,3.37402628 14,3.59008607 C14,3.80497164 13.8598482,3.94940292 13.6496204,3.94940292 Z M3.36014015,8.00522114 C3.04030373,8.00496771 2.73400254,7.87542202 2.51016223,7.64573521 C2.28632192,7.41604839 2.16374611,7.10551518 2.17001752,6.78401356 C2.17001752,6.1029555 2.69558688,5.56398023 3.36130808,5.56398023 C4.02586135,5.56398023 4.55026278,6.1029555 4.55026278,6.78518781 C4.55026278,7.46624588 3.98965545,8.00522114 3.36014015,8.00522114 L3.36014015,8.00522114 Z M3.36014015,6.1029555 C3.00976058,6.1029555 2.72945691,6.38946958 2.72945691,6.74878642 C2.72945691,7.10810327 3.00976058,7.39461736 3.36014015,7.39461736 C3.71051973,7.39461736 3.99082339,7.10810328 3.99082339,6.74878642 C3.99082339,6.38946958 3.71051973,6.1029555 3.36014015,6.1029555 Z M7.00058397,8.00522116 C6.68054497,8.005283 6.37394113,7.87587603 6.14984704,7.64615424 C5.92575295,7.41643246 5.80301812,7.10571873 5.8092934,6.78401356 C5.8092934,6.1029555 6.33486277,5.56398023 7.00058397,5.56398023 C7.66513724,5.56398023 8.1907066,6.1029555 8.1907066,6.78518781 C8.1907066,7.46624588 7.66513723,8.00522116 6.99941603,8.00522116 L7.00058397,8.00522116 Z M7.00058397,6.1029555 C6.65020439,6.1029555 6.36990073,6.38946958 6.36990073,6.74878642 C6.36990073,7.10810327 6.65020439,7.39461736 7.00058397,7.39461736 C7.35096355,7.39461736 7.63126721,7.10810328 7.63126721,6.74878642 C7.63126721,6.38946958 7.35096355,6.1029555 7.00058397,6.1029555 Z M10.6398598,8.00522114 C10.3202261,8.00465281 10.0142274,7.87496862 9.79064073,7.64531671 C9.56705407,7.41566479 9.44463731,7.10531184 9.45090515,6.78401356 C9.45090515,6.1029555 9.97647452,5.56398023 10.6421957,5.56398023 C11.306749,5.56398023 11.8311504,6.1029555 11.8311504,6.78518781 C11.8311504,7.46624588 11.305581,8.00522114 10.6410278,8.00522114 L10.6398598,8.00522114 Z M10.6398598,6.1029555 C10.2894803,6.1029555 10.0091766,6.38946958 10.0091766,6.74878642 C10.0091766,7.10810327 10.2894803,7.39461736 10.6398598,7.39461736 C10.9902394,7.39461736 11.2705431,7.10810328 11.2705431,6.74878642 C11.2705431,6.38946958 10.9902394,6.1029555 10.6398598,6.1029555 Z M3.36014015,11.8461538 C3.04030374,11.8459004 2.73400255,11.7163547 2.51016224,11.4866679 C2.28632192,11.2569811 2.16374611,10.9464479 2.17001752,10.6249462 C2.17001752,9.94388817 2.69558688,9.40491289 3.36130808,9.40491289 C4.02586135,9.40491289 4.55026278,9.94388816 4.55026278,10.6261205 C4.55026278,11.3071785 3.98965545,11.8461538 3.36014015,11.8461538 Z M3.36014015,9.9791153 C3.00976058,9.9791153 2.72945691,10.2668036 2.72945691,10.6249462 C2.72945691,10.9842631 3.00976058,11.2707772 3.36014015,11.2707772 C3.71051973,11.2707772 3.99082339,10.9842631 3.99082339,10.6249462 C3.99082339,10.2668036 3.71051973,9.9791153 3.36014015,9.9791153 Z M7.00058397,11.8461538 C6.68054497,11.8462157 6.37394113,11.7168087 6.14984705,11.4870869 C5.92575296,11.2573651 5.80301813,10.9466514 5.8092934,10.6249462 C5.8092934,9.94388817 6.33486277,9.40491289 7.00058397,9.40491289 C7.66513724,9.40491289 8.1907066,9.94388816 8.1907066,10.6261205 C8.1907066,11.3071785 7.66513723,11.8461538 6.99941603,11.8461538 L7.00058397,11.8461538 Z M7.00058397,9.9791153 C6.65020439,9.9791153 6.36990073,10.2668036 6.36990073,10.6249462 C6.36990073,10.9842631 6.65020439,11.2707772 7.00058397,11.2707772 C7.35096355,11.2707772 7.63126721,10.9842631 7.63126721,10.6249462 C7.63126721,10.2668036 7.35096355,9.9791153 7.00058397,9.9791153 Z M10.6398598,11.8461538 C10.3202261,11.8455855 10.0142274,11.7159013 9.79064073,11.4862494 C9.56705407,11.2565975 9.44463731,10.9462445 9.45090515,10.6249462 C9.45090515,9.94388817 9.97647452,9.40491289 10.6421957,9.40491289 C11.306749,9.40491289 11.8311504,9.94388816 11.8311504,10.6261205 C11.8311504,11.3071785 11.305581,11.8461538 10.6410278,11.8461538 L10.6398598,11.8461538 Z M10.6398598,9.9791153 C10.2894803,9.9791153 10.0091766,10.2668036 10.0091766,10.6249462 C10.0091766,10.9842631 10.2894803,11.2707772 10.6398598,11.2707772 C10.9902394,11.2707772 11.2705431,10.9842631 11.2705431,10.6249462 C11.2705431,10.2668036 10.9902394,9.9791153 10.6398598,9.9791153 Z"></path>
                </g>
            </g>
        </g>
    </g>
</svg>