<?xml version="1.0" encoding="UTF-8"?>
<svg width="12px" height="12px" viewBox="0 0 12 12" version="1.1" xmlns="http://www.w3.org/2000/svg" xmlns:xlink="http://www.w3.org/1999/xlink">
    <title>icon/12px/配置 copy</title>
    <g id="搜索" stroke="none" stroke-width="1" fill="none" fill-rule="evenodd">
        <g id="我的资产" transform="translate(-739.000000, -280.000000)">
            <g id="card" transform="translate(416.000000, 126.000000)">
                <g id="Group-3" transform="translate(267.000000, 150.000000)">
                    <g id="icon/12px/配置-copy" transform="translate(56.000000, 4.000000)">
                        <rect id="Rectangle" stroke="#979797" fill="#D8D8D8" opacity="0" x="0.5" y="0.5" width="11" height="11"></rect>
                        <path d="M5.98054524,9.44426879 C5.98054524,9.68046357 6.13967517,9.85191043 6.35892111,9.85191043 L10.6216357,9.85191043 C10.8408701,9.85191043 11,9.68047543 11,9.44426879 C11,9.20806214 10.8408701,9.03663907 10.6216357,9.03663907 L6.35892111,9.03663907 C6.13967517,9.03663907 5.98054524,9.208074 5.98054524,9.44426879 Z M5.98054524,2.55571932 C5.98054524,2.7919141 6.13967517,2.96334904 6.35892111,2.96334904 L10.6216357,2.96334904 C10.8408701,2.96334904 11,2.7919141 11,2.55571932 C11,2.31952455 10.8408701,2.1480896 10.6216357,2.1480896 L6.35892111,2.1480896 C6.13967517,2.1480896 5.98054524,2.31952455 5.98054524,2.55571932 Z M6.00470998,6 C6.00470998,5.76380522 5.84605569,5.59237028 5.62744779,5.59237028 L1.37725058,5.59237028 C1.15865429,5.59237028 1,5.76380522 1,6 C1,6.23619478 1.15865429,6.40762972 1.37725058,6.40762972 L5.62744779,6.40762972 C5.84605569,6.40762972 6.00470998,6.23619478 6.00470998,6 L6.00470998,6 Z M5.50061485,9.44426879 C5.50061485,8.58644136 4.81838747,7.88854949 3.97981439,7.88854949 C3.29305104,7.88854949 2.69921114,8.36317007 2.51675174,9.03663907 L1.39846868,9.03663907 C1.16757541,9.03663907 1,9.208074 1,9.44426879 C1,9.68046357 1.16757541,9.85191043 1.39848028,9.85191043 L2.51676334,9.85191043 C2.69923434,10.5253794 3.29306264,11 3.97982599,11 C4.81839907,11 5.50061485,10.3020962 5.50061485,9.44426879 Z M3.97981439,10.1847287 C3.58068446,10.1847287 3.25596288,9.85256307 3.25596288,9.44425693 C3.25596288,9.0359745 3.58067286,8.70379707 3.97981439,8.70379707 C4.37895591,8.70379707 4.70366589,9.03596264 4.70366589,9.44425693 C4.70366589,9.85256307 4.37895591,10.1847287 3.97981439,10.1847287 Z M5.50061485,2.55571932 C5.50061485,1.69789189 4.81838747,1 3.97981439,1 C3.29305104,1 2.69921114,1.4746206 2.51675174,2.1480896 L1.39846868,2.1480896 C1.16757541,2.1480896 1,2.31952455 1,2.55571932 C1,2.7919141 1.16757541,2.96334904 1.39848028,2.96334904 L2.51676334,2.96334904 C2.69923434,3.63681804 3.29306264,4.11143865 3.97982599,4.11143865 C4.81839907,4.11143865 5.50061485,3.41354676 5.50061485,2.55571932 L5.50061485,2.55571932 Z M3.97981439,3.29619107 C3.58068446,3.29619107 3.25596288,2.96402548 3.25596288,2.55571932 C3.25596288,2.14742504 3.58067286,1.81525944 3.97981439,1.81525944 C4.37895591,1.81525944 4.70366589,2.14742504 4.70366589,2.55571932 C4.70366589,2.96401361 4.37895591,3.29619107 3.97981439,3.29619107 Z M9.48323664,6.40762972 L10.6015197,6.40762972 C10.832413,6.40762972 11,6.23619478 11,6 C11,5.76380522 10.832413,5.59237028 10.6015197,5.59237028 L9.48323664,5.59237028 C9.30077729,4.91890128 8.70693736,4.44428068 8.02017401,4.44428068 C7.18160093,4.44428068 6.49937355,5.14217257 6.49937355,6 C6.49937355,6.85782743 7.18160093,7.55571932 8.02017401,7.55571932 C8.70694893,7.55571932 9.30077729,7.08109872 9.48323664,6.40762972 Z M8.02018561,6.74045988 C7.62105569,6.74045988 7.29633411,6.40829429 7.29633411,6 C7.29633411,5.59170571 7.62105569,5.25952825 8.02018561,5.25952825 C8.41931557,5.25952825 8.7440255,5.59170571 8.7440255,6 C8.7440255,6.40829429 8.41930393,6.74045988 8.02018561,6.74045988 Z" id="Shape" fill="#333333"></path>
                    </g>
                </g>
            </g>
        </g>
    </g>
</svg>