<?xml version="1.0" encoding="UTF-8"?>
<svg width="12px" height="12px" viewBox="0 0 12 12" version="1.1" xmlns="http://www.w3.org/2000/svg" xmlns:xlink="http://www.w3.org/1999/xlink">
    <title>12px/tree/field</title>
    <g id="12px/tree/field" stroke="none" stroke-width="1" fill="none" fill-rule="evenodd">
        <g id="tree/catagory">
            <rect id="Rectangle" fill="#000000" fill-rule="nonzero" opacity="0" x="0" y="0" width="12" height="12"></rect>
            <path d="M10.2857143,1 C10.6802034,1 11,1.44771525 11,2 L11,10 C11,10.5522848 10.6802034,11 10.2857143,11 L1.71428571,11 C1.31979661,11 1,10.5522848 1,10 L1,2 C1,1.44771525 1.31979661,1 1.71428571,1 L10.2857143,1 Z M9,3 L3,3 L3,5 L9,5 L9,3 L9,3 Z M7,5 L5,5 L5,9 L7,9 L7,5 L7,5 Z" id="Shape" fill="#333333"></path>
        </g>
    </g>
</svg>