<?xml version="1.0" encoding="UTF-8"?>
<svg width="12px" height="12px" viewBox="0 0 12 12" version="1.1" xmlns="http://www.w3.org/2000/svg" xmlns:xlink="http://www.w3.org/1999/xlink">
    <title>12px/tree/home</title>
    <g id="12px/tree/home" stroke="none" stroke-width="1" fill="none" fill-rule="evenodd">
        <g id="tree/home">
            <rect id="Rectangle" fill="#000000" fill-rule="nonzero" opacity="0" x="0" y="0" width="12" height="12"></rect>
            <path d="M6,0 C2.6856,0 0,2.6856 0,6 C0,9.3144 2.6856,12 6,12 C9.3144,12 12,9.3144 12,6 C12,2.6856 9.3144,0 6,0 Z M4,9.6 C3.1168,9.6 2.4,8.8832 2.4,8 C2.4,7.1168 3.1168,6.4 4,6.4 C4.8832,6.4 5.6,7.1168 5.6,8 C5.6,8.8832 4.8832,9.6 4,9.6 Z M4,5.6 C3.1168,5.6 2.4,4.8832 2.4,4 C2.4,3.1168 3.1168,2.4 4,2.4 C4.8832,2.4 5.6,3.1168 5.6,4 C5.6,4.8832 4.8832,5.6 4,5.6 Z M8,9.6 C7.1168,9.6 6.4,8.8832 6.4,8 C6.4,7.1168 7.1168,6.4 8,6.4 C8.8832,6.4 9.6,7.1168 9.6,8 C9.6,8.8832 8.8832,9.6 8,9.6 Z M8,5.6 C7.1168,5.6 6.4,4.8832 6.4,4 C6.4,3.1168 7.1168,2.4 8,2.4 C8.8832,2.4 9.6,3.1168 9.6,4 C9.6,4.8832 8.8832,5.6 8,5.6 Z" id="Shape" fill="#333333"></path>
        </g>
    </g>
</svg>