<?xml version="1.0" encoding="UTF-8"?>
<svg width="12px" height="12px" viewBox="0 0 12 12" version="1.1" xmlns="http://www.w3.org/2000/svg" xmlns:xlink="http://www.w3.org/1999/xlink">
    <title>12px/tree/table</title>
    <g id="12px/tree/table" stroke="none" stroke-width="1" fill="none" fill-rule="evenodd">
        <g id="tree/catagory">
            <rect id="Rectangle" fill="#000000" fill-rule="nonzero" opacity="0" x="0" y="0" width="12" height="12"></rect>
            <path d="M10.2857143,1 C10.6802034,1 11,1.44771525 11,2 L11,10 C11,10.5522848 10.6802034,11 10.2857143,11 L1.71428571,11 C1.31979661,11 1,10.5522848 1,10 L1,2 C1,1.44771525 1.31979661,1 1.71428571,1 L10.2857143,1 Z M2,8 L2,10 L4,10 L4,7.999 L2,8 Z M7,7.999 L5,7.999 L5,10 L7,10 L7,7.999 Z M10,8 L8,7.999 L8,10 L10,10 L10,8 Z M7,5 L5,5 L5,6.999 L7,6.999 L7,5 Z M10,5 L8,5 L8,6.999 L10,7 L10,5 Z M2,7 L4,6.999 L4,5 L2,5 L2,7 Z" id="Combined-Shape" fill="#333333"></path>
        </g>
    </g>
</svg>