<?xml version="1.0" encoding="UTF-8"?>
<svg width="24px" height="24px" viewBox="0 0 24 24" version="1.1" xmlns="http://www.w3.org/2000/svg" xmlns:xlink="http://www.w3.org/1999/xlink">
    <title>空</title>
    <g id="全链分析" stroke="none" stroke-width="1" fill="none" fill-rule="evenodd">
        <g id="库表_初始" transform="translate(-1303.000000, -741.000000)" fill-rule="nonzero">
            <g id="节点下钻" transform="translate(1190.000000, 506.000000)">
                <g id="空" transform="translate(113.000000, 235.000000)">
                    <rect id="Rectangle" fill="#000000" opacity="0" x="0" y="0" width="24" height="24"></rect>
                    <path d="M4.59253125,20.1006094 L4.57127344,20.1001406 C4.44839063,20.0961562 3.80964844,20.0551406 3.38411719,19.6562344 C2.94780469,19.2470391 2.89572656,18.6586875 2.88972656,18.5448047 C2.88914563,18.5340959 2.88886427,18.523373 2.88888281,18.5126484 L2.88888281,15.3082734 C2.88253125,15.1762734 2.874,14.7303516 3.02341406,14.2351172 C3.16657031,13.7602734 3.34342969,13.4485312 3.39407813,13.3644141 L5.00280469,10.5183516 C5.01084375,10.5040781 5.01935156,10.4902734 5.02846875,10.4768437 C5.078625,10.4024297 5.34827344,10.0193906 5.718,9.78935156 C6.10703906,9.54707812 6.57792188,9.52835156 6.71303906,9.52835156 L16.8748828,9.52835156 C16.8879609,9.52835156 16.9008984,9.52872656 16.9142578,9.52957031 C17.0152734,9.53603906 17.5398047,9.5803125 17.9457422,9.81253125 C18.3333516,10.0345312 18.6453516,10.4224687 18.7039219,10.4978437 C18.7158093,10.5132809 18.7269775,10.5292589 18.7373906,10.5457266 L20.6480391,13.5733125 C20.6561953,13.5866484 20.6644688,13.6005703 20.6719219,13.6148437 C20.7085313,13.6851562 20.8973906,14.0566875 20.9930391,14.418 C21.0874922,14.7754687 21.1102734,15.1705312 21.1137422,15.246 L21.1143279,15.2717812 L21.1143279,18.476625 C21.1163906,18.6460781 21.0851953,19.2276094 20.6028047,19.6597266 C20.1459609,20.0686875 19.5309609,20.1003516 19.3533516,20.1003516 L4.59253125,20.1003516 L4.59253125,20.1006094 Z M4.42884375,14.0138437 C4.3936875,14.0763516 4.28435156,14.2831406 4.19242969,14.5878047 C4.09535156,14.9098828 4.10688281,15.2109609 4.10842969,15.2443125 C4.10929141,15.2587436 4.109815,15.2731928 4.11,15.2876484 L4.11,18.4915312 L4.11119531,18.5003906 C4.11876563,18.558 4.15392188,18.6975703 4.21453125,18.7605469 L4.2226875,18.7692187 L4.23229688,18.7762734 C4.31714063,18.8388047 4.527375,18.8746875 4.60080469,18.8791172 L19.3543125,18.8793516 C19.4767266,18.8779219 19.6906875,18.8371172 19.7876484,18.7502344 C19.8743906,18.6724687 19.8938203,18.5390391 19.8938203,18.5176875 L19.8926484,18.4806094 L19.8926484,15.2905312 C19.8860391,15.1660781 19.8619219,14.9180391 19.812,14.7301406 C19.7554688,14.5154531 19.629,14.2582734 19.6041563,14.2090781 L19.5973125,14.1970781 L17.7223125,11.2256484 L17.7164531,11.2185703 C17.6453906,11.133 17.475,10.9501172 17.3389219,10.8721172 C17.2210781,10.8046875 16.9810781,10.7614922 16.8574688,10.7499609 L16.8446484,10.7493516 L6.71519531,10.7493516 C6.62039063,10.7501953 6.44425781,10.7752734 6.36288281,10.8261563 C6.24827344,10.8975703 6.11257031,11.0607656 6.05676563,11.1369609 L6.05196094,11.1435703 L4.4533125,13.9717266 L4.43603906,14.0007656 L4.43627344,14.0000391 C4.43580469,14.0014688 4.42884375,14.0138438 4.42884375,14.0138438 L4.42884375,14.0138437 Z M11.9432344,8.63292187 C11.6061589,8.63258608 11.3329708,8.35945045 11.3325703,8.022375 L11.3325703,4.5099375 C11.3329705,4.17295343 11.606016,3.89985553 11.943,3.89939063 C12.2800946,3.89972629 12.5533162,4.1728431 12.5537813,4.5099375 L12.5537813,8.02232812 C12.5534453,8.35938462 12.2802909,8.63253909 11.9432344,8.63292187 L11.9432344,8.63292187 Z M16.0369219,8.60976562 C15.699864,8.60930069 15.4267623,8.33613607 15.426375,7.99907812 C15.426503,7.85904482 15.4746498,7.72329058 15.5627812,7.61446875 L16.9585313,5.89307812 C17.0744064,5.74969553 17.2490236,5.66655844 17.433375,5.66699825 C17.5744687,5.66699825 17.7073125,5.71415625 17.8172344,5.8033125 C17.9435139,5.90492822 18.0237828,6.05292928 18.0400781,6.21419531 C18.0574725,6.37527133 18.009629,6.5366039 17.9072344,6.66215625 L16.5115312,8.38357031 C16.3961366,8.52691465 16.2218793,8.61008564 16.0378594,8.60964844 L16.0369219,8.60964844 L16.0369219,8.60976562 Z M7.91819531,8.56308036 C7.73236312,8.56358157 7.55656171,8.47884239 7.44119531,8.33315625 L6.06911719,6.61188281 C5.85926492,6.34807191 5.90259053,5.96417047 6.16596094,5.75376562 C6.27370856,5.66718082 6.40789159,5.62016712 6.54611719,5.62056774 C6.7333125,5.62056774 6.90742969,5.70442969 7.02396094,5.85060937 L8.39615625,7.57185937 C8.60607154,7.83556822 8.56285969,8.21944165 8.29957031,8.42988281 C8.19141661,8.51589781 8.05736704,8.56283581 7.91917969,8.56308036 L7.91819531,8.56308036 L7.91819531,8.56308036 Z" id="Shape" fill="#2C2C2C"></path>
                    <path d="M11.9665313,17.5885312 C10.6062188,17.5885312 9.4243125,16.6765313 9.092625,15.3710391 L9.06588281,15.2658047 L3.64342969,15.2625703 C3.30634706,15.2618347 3.03334683,14.9886144 3.03288281,14.6515312 C3.03341225,14.314593 3.30649129,14.0416188 3.64342969,14.0412188 L9.61439063,14.0450391 C9.95127135,14.0458904 10.2240684,14.3189389 10.2246094,14.6558203 C10.2246094,15.6155859 10.9897266,16.3672734 11.9665313,16.3672734 C12.9398438,16.3672734 13.7023125,15.6156094 13.7023125,14.6558438 C13.7030339,14.3189055 13.9759214,14.0459027 14.3128594,14.0450391 L20.2285312,14.0413125 C20.5653516,14.0413125 20.8390781,14.3148047 20.8393127,14.6513906 C20.8395469,14.9879766 20.5658437,15.2621953 20.2292344,15.2626875 L14.8616484,15.2659219 L14.8348828,15.3711563 C14.5035703,16.676625 13.3241953,17.5885312 11.9665312,17.5885312 L11.9665313,17.5885312 Z" id="Path" fill="#2C2C2C"></path>
                </g>
            </g>
        </g>
    </g>
</svg>