<?xml version="1.0" encoding="UTF-8"?>
<svg width="12px" height="12px" viewBox="0 0 12 12" version="1.1" xmlns="http://www.w3.org/2000/svg" xmlns:xlink="http://www.w3.org/1999/xlink">
    <title>12px/tree/report</title>
    <g id="12px/tree/report" stroke="none" stroke-width="1" fill="none" fill-rule="evenodd">
        <g id="tree/dataBase" fill="#000000" fill-rule="nonzero">
            <rect id="Rectangle" opacity="0" x="0" y="0" width="12" height="12"></rect>
            <path d="M8,1 L2,1 C1.73478351,1 1.48042959,1.10535684 1.29289321,1.29289322 C1.10535684,1.4804296 1,1.73478352 1,2 L1,10 C1,10.2652165 1.10535684,10.5195704 1.29289321,10.7071068 C1.48042959,10.8946432 1.73478351,11 2,11 L10,11 C10.2652165,11 10.5195704,10.8946432 10.7071068,10.7071068 C10.8946432,10.5195704 11,10.2652165 11,10 L11,4 L8,1 Z M5,10 L4,10 L4,3 L5,3 L5,10 Z M7,10 L6,10 L6,6 L7,6 L7,10 Z M9,10 L8,10 L8,8 L9,8 L9,10 Z M3,10 L2,10 L2,8 L3,8 L3,10 Z" id="Shape"></path>
        </g>
    </g>
</svg>