<?xml version="1.0" encoding="UTF-8"?>
<svg width="20px" height="20px" viewBox="0 0 20 20" version="1.1" xmlns="http://www.w3.org/2000/svg" xmlns:xlink="http://www.w3.org/1999/xlink">
    <!-- Generator: Sketch 63.1 (92452) - https://sketch.com -->
    <title>20px/ERD/Index</title>
    <desc>Created with Sketch.</desc>
    <g id="20px/ERD/Index" stroke="none" stroke-width="1" fill="none" fill-rule="evenodd">
        <rect id="box" x="0" y="0" width="20" height="20"></rect>
        <path d="M3,19 L8,19 L8,20 L2.9375,20 C2.41973305,20 2,19.5522847 2,19 L2,1 C2,0.44771525 2.41973305,0 2.9375,0 L16.0625,0 C16.580267,0 17,0.44771525 17,1 L17,7 L16,7 L16,1 L3,1 L3,4 L13,4 L13,5 L3,5 L3,8 L8,8 L8,9 L3,9 L3,12 L6,12 L6,13 L3,13 L3,19 Z" id="Combined-Shape" fill="#F2B06D"></path>
        <path d="M13,8 C15.7614237,8 18,10.2385763 18,13 C17.9989187,14.0191073 17.6933105,14.9668723 17.1692703,15.7572002 L19.2831376,17.8720757 C19.6736619,18.2626 19.6736619,18.895765 19.2831376,19.2862892 C18.8926133,19.6768135 18.2594483,19.6768135 17.868924,19.2862892 L15.7541454,17.1712943 C14.9644306,17.6940973 14.0177945,17.9989201 13,18 C10.2385763,18 8,15.7614237 8,13 C8,10.2385763 10.2385763,8 13,8 Z M13,10 C11.3431458,10 10,11.3431458 10,13 C10,14.6568542 11.3431458,16 13,16 C14.6568542,16 16,14.6568542 16,13 C15.9982206,11.3438834 14.6561166,10.0017794 13,10 Z" id="Combined-Shape" fill="#F2B06D"></path>
    </g>
</svg>