<?xml version="1.0" encoding="UTF-8"?>
<svg width="18px" height="18px" viewBox="0 0 18 18" version="1.1" xmlns="http://www.w3.org/2000/svg" xmlns:xlink="http://www.w3.org/1999/xlink">
    <!-- Generator: Sketch 63.1 (92452) - https://sketch.com -->
    <title>20px/ERD/More</title>
    <desc>Created with Sketch.</desc>
    <g id="ERD" stroke="none" stroke-width="1" fill="none" fill-rule="evenodd">
        <g transform="translate(-553.000000, -1099.000000)" id="20px/ERD/More">
            <g transform="translate(552.000000, 1098.000000)">
                <rect id="box" x="0" y="0" width="20" height="20"></rect>
                <circle id="Oval" fill="#E3E3E3" fill-rule="evenodd" cx="10" cy="10" r="9"></circle>
                <path d="M10,9 C10.5522847,9 11,9.44771525 11,10 C11,10.5522847 10.5522847,11 10,11 C9.44771525,11 9,10.5522847 9,10 C9,9.44771525 9.44771525,9 10,9 Z M15,9 C15.5522847,9 16,9.44771525 16,10 C16,10.5522847 15.5522847,11 15,11 C14.4477153,11 14,10.5522847 14,10 C14,9.44771525 14.4477153,9 15,9 Z M5,9 C5.55228475,9 6,9.44771525 6,10 C6,10.5522847 5.55228475,11 5,11 C4.44771525,11 4,10.5522847 4,10 C4,9.44771525 4.44771525,9 5,9 Z" id="Combined-Shape" fill="#608FBF" fill-rule="evenodd"></path>
            </g>
        </g>
    </g>
</svg>