<?xml version="1.0" encoding="UTF-8"?>
<svg width="12px" height="12px" viewBox="0 0 12 12" version="1.1" xmlns="http://www.w3.org/2000/svg" xmlns:xlink="http://www.w3.org/1999/xlink">
    <title>12px/Rope</title>
    <g id="12px/Rope" stroke="none" stroke-width="1" fill="none" fill-rule="evenodd">
        <rect id="box_20" x="0" y="0" width="12" height="12"></rect>
        <path d="M9.25145881,3 C10.7147665,3 11.9112733,4.14231024 11.9978962,5.58384761 L12.0029176,5.75145881 L12.0029176,6 C12.0029176,7.59768088 10.7539977,8.90366088 9.17919041,8.99490731 L9.00291763,9 L8,9 C7.72385763,9 7.5,8.77614237 7.5,8.5 C7.5,8.25454011 7.67687516,8.05039163 7.91012437,8.00805567 L8,8 L9.00291763,8 C10.0572794,8 10.9210827,7.18412221 10.9974319,6.14926234 L11.0029176,6 L11.0029176,5.75145881 C11.0029176,4.83252002 10.2952179,4.07887335 9.39510567,4.00580604 L9.25145881,4 L7.36284833,4 C7.27494027,4 7.18912768,4.02316263 7.11377313,4.06645355 L7.04221432,4.11634151 L4.320634,6.39084142 C4.10874527,6.56792269 3.79342278,6.53970566 3.61634151,6.32781693 C3.45893594,6.13947139 3.46374136,5.86940042 3.61556874,5.68734006 L3.679366,5.62352444 L6.40094632,3.34902454 C6.63221491,3.15574697 6.91538454,3.03737619 7.21300641,3.0075004 L7.36284833,3 L9.25145881,3 Z M4,3 C4.27614237,3 4.5,3.22385763 4.5,3.5 C4.5,3.74545989 4.32312484,3.94960837 4.08987563,3.99194433 L4,4 L3,4 C1.9456382,4 1.08183488,4.81587779 1.00548574,5.85073766 L1,6 L1,6.25 C1,7.1681734 1.70711027,7.92119234 2.60647279,7.9941988 L2.75,8 L4.63658552,8 C4.72462249,8 4.81055462,7.9767695 4.88598473,7.93336015 L4.95760317,7.88333753 L7.66431298,5.61666247 C7.87602445,5.43936931 8.19137501,5.46727087 8.36866816,5.67898235 C8.52626208,5.86717032 8.52172684,6.13724597 8.37008167,6.31945812 L8.30634828,6.38333753 L5.59963848,8.6500126 C5.36822447,8.84380522 5.08469198,8.96251552 4.78664466,8.9924778 L4.63658552,9 L2.75,9 C1.28746816,9 0.0915957212,7.8582954 0.00501879394,6.41752233 L-3.08197912e-13,6.25 L-3.08197912e-13,6 C-3.08197912e-13,4.40231912 1.24891996,3.09633912 2.82372721,3.00509269 L3,3 L4,3 Z" id="Rope" fill="#666666"></path>
    </g>
</svg>