<?xml version="1.0" standalone="no"?><!DOCTYPE svg PUBLIC "-//W3C//DTD SVG 1.1//EN" "http://www.w3.org/Graphics/SVG/1.1/DTD/svg11.dtd"><svg t="1640587753081" class="icon" viewBox="0 0 1024 1024" version="1.1" xmlns="http://www.w3.org/2000/svg" p-id="2770" xmlns:xlink="http://www.w3.org/1999/xlink" width="200" height="200"><defs><style type="text/css"></style></defs><path d="M529.648941 296.899765a123.723294 123.723294 0 1 1 0-247.446589 123.723294 123.723294 0 0 1 0 247.446589zM266.119529 395.203765a113.061647 113.061647 0 1 1 0-226.18353 113.061647 113.061647 0 0 1 0 226.18353z m-111.796705 255.759059a99.809882 99.809882 0 1 1 0-199.55953 99.809882 99.809882 0 0 1 0 199.55953z m111.796705 253.229176a84.570353 84.570353 0 1 1 0-169.140706 84.570353 84.570353 0 0 1 0 169.140706z m263.529412 96.737882a73.728 73.728 0 1 1 0-147.456 73.728 73.728 0 0 1 0 147.456z m267.324235-124.687058a59.632941 59.632941 0 1 1 0-119.265883 59.632941 59.632941 0 0 1 0 119.265883z m109.44753-275.696942a48.911059 48.911059 0 1 1 0-97.822117 48.911059 48.911059 0 0 1 0 97.822117zM758.964706 285.756235a38.068706 38.068706 0 1 1 76.137412-0.240941 38.068706 38.068706 0 0 1-76.137412 0.240941z" fill="#9EA3A8" p-id="2771"></path></svg>