<?xml version="1.0" standalone="no"?><!DOCTYPE svg PUBLIC "-//W3C//DTD SVG 1.1//EN" "http://www.w3.org/Graphics/SVG/1.1/DTD/svg11.dtd"><svg t="1637043911413" class="icon" viewBox="0 0 1024 1024" version="1.1" xmlns="http://www.w3.org/2000/svg" p-id="1559" xmlns:xlink="http://www.w3.org/1999/xlink" width="200" height="200"><defs><style type="text/css"></style></defs><path d="M883.2 736c7.04 0 12.8 5.76 12.8 12.8v57.6a12.8 12.8 0 0 1-12.8 12.8H140.8a12.8 12.8 0 0 1-12.8-12.8v-57.6c0-7.04 5.76-12.8 12.8-12.8h742.4zM140.8 382.336a12.8 12.8 0 0 1 7.04 2.112l156.16 104.128a12.8 12.8 0 0 1 0 21.248L147.84 613.952A12.8 12.8 0 0 1 128 603.264V395.136c0-7.04 5.76-12.8 12.8-12.8zM883.2 448c7.04 0 12.8 5.76 12.8 12.8v57.6a12.8 12.8 0 0 1-12.8 12.8H460.8a12.8 12.8 0 0 1-12.8-12.8v-57.6c0-7.04 5.76-12.8 12.8-12.8h422.4z m0-256c7.04 0 12.8 5.76 12.8 12.8v57.6a12.8 12.8 0 0 1-12.8 12.8H140.8a12.8 12.8 0 0 1-12.8-12.8v-57.6c0-7.04 5.76-12.8 12.8-12.8h742.4z" p-id="1560"></path></svg>