<?xml version="1.0" standalone="no"?><!DOCTYPE svg PUBLIC "-//W3C//DTD SVG 1.1//EN" "http://www.w3.org/Graphics/SVG/1.1/DTD/svg11.dtd"><svg class="icon" width="200px" height="200.00px" viewBox="0 0 1024 1024" version="1.1" xmlns="http://www.w3.org/2000/svg"><path d="M512 512l-362.048 362.048a517.824 517.824 0 0 1-28.032-30.272l2.688 3.2-8.832-10.56 6.144 7.296a514.56 514.56 0 0 1-8.192-9.792l2.048 2.56A514.816 514.816 0 0 1 16 639.36l-2.304-9.6a514.752 514.752 0 0 1 0.576-237.696l3.2-12.544L512 512z" fill="#3061F2" fill-opacity=".699" /><path d="M512 512L17.408 379.52c3.584-13.44 7.68-26.624 12.224-39.424l-1.408 3.968c1.536-4.352 3.072-8.64 4.736-12.928l-3.328 8.96c1.472-4.032 2.944-8.064 4.48-11.968l-1.152 3.008 3.136-8.192a514.816 514.816 0 0 1 117.568-176.832l7.168-6.848a514.752 514.752 0 0 1 206.08-118.4l12.48-3.456L512 512z" fill="#3061F2" fill-opacity=".552" /><path d="M1017.28 429.184l0.64 4.288 0.768 4.352a515.52 515.52 0 0 1-13.44 211.904l-2.816 9.536a514.752 514.752 0 0 1-119.36 205.44l-9.088 9.344L512 512 644.48 17.472c8.96 2.368 17.792 4.992 26.496 7.808l12.352 4.224 2.24 0.768 0.832 0.32 3.52 1.28 4.864 1.792 2.176 0.832 4.096 1.664a514.816 514.816 0 0 1 176.768 117.568l6.912 7.168a514.752 514.752 0 0 1 118.336 206.08l3.456 12.544c3.584 13.44 6.656 26.88 9.088 40.256l0.512 2.56 0.64 3.712 0.512 3.136z" fill="#3061F2" /><path d="M512 512V0c22.784 0 45.248 1.472 67.2 4.416L572.8 3.52l10.752 1.408c16.128 2.304 32.256 5.376 48.384 9.344l12.608 3.2L512 512z" fill="#4A90E2" fill-opacity=".502" /><path d="M512 512L379.456 17.472c22.016-5.888 44.16-10.304 66.112-13.248L439.04 5.184 449.92 3.712c16.32-1.92 32.64-3.136 49.088-3.52L512 0v512z" fill="#3061F2" fill-opacity=".452" /><path d="M512 512l361.984 362.048a511.936 511.936 0 0 1-724.032 0L512 512z" fill="#3061F2" fill-opacity=".802" /><path d="M256 512a256 256 0 1 0 512 0 256 256 0 0 0-512 0z" fill="#FFFFFF" /></svg>