<?xml version="1.0" standalone="no"?><!DOCTYPE svg PUBLIC "-//W3C//DTD SVG 1.1//EN" "http://www.w3.org/Graphics/SVG/1.1/DTD/svg11.dtd"><svg class="icon" width="200px" height="200.00px" viewBox="0 0 1024 1024" version="1.1" xmlns="http://www.w3.org/2000/svg"><path d="M1024 960v64H0v-64h1024z m0-960v64H0V0h1024z" fill="#4C79FC" opacity=".7" /><path d="M1024 140.8v742.4H0V140.8z" fill="#4C79FC" /><path d="M570.496 636.352v87.744H175.552V636.352h394.944z m131.648 0a43.904 43.904 0 1 1 3.328 87.744 43.904 43.904 0 0 1-3.328-87.744z m131.712 0a43.904 43.904 0 1 1 3.328 87.744 43.904 43.904 0 0 1-3.328-87.744zM482.752 460.8v87.744h-307.2V460.8h307.2z m394.944 0v87.744h-307.2V460.8h307.2z m0-175.552V373.12H175.552V285.248h702.144z" fill="#DEE7FF" /></svg>