<?xml version="1.0" standalone="no"?><!DOCTYPE svg PUBLIC "-//W3C//DTD SVG 1.1//EN" "http://www.w3.org/Graphics/SVG/1.1/DTD/svg11.dtd"><svg class="icon" width="200px" height="200.00px" viewBox="0 0 1024 1024" version="1.1" xmlns="http://www.w3.org/2000/svg"><path d="M874.048 283.264l29.44 25.152-240.704 280.768L349.44 471.68 86.848 621.76l-19.2-33.536 278.4-159.104 304.96 114.368z" fill="#3061F2" /><path d="M77.312 64v946.688H1024v-38.592H115.904V64z" fill="#3061F2" /><path d="M656.896 489.088a77.312 77.312 0 1 1 0 154.56 77.312 77.312 0 0 1 0-154.56z" fill="#3061F2" /><path d="M656.896 527.68a38.656 38.656 0 1 0 0 77.312 38.656 38.656 0 0 0 0-77.312z" fill="#FFFFFF" /><path d="M77.312 527.68a77.312 77.312 0 1 1 0 154.56 77.312 77.312 0 0 1 0-154.56z" fill="#3061F2" /><path d="M77.312 566.4a38.656 38.656 0 1 0 0 77.248 38.656 38.656 0 0 0 0-77.312z" fill="#FFFFFF" /><path d="M347.776 373.12a77.312 77.312 0 1 1 0 154.56 77.312 77.312 0 0 1 0-154.56z" fill="#3061F2" /><path d="M347.776 411.776a38.656 38.656 0 1 0 0 77.312 38.656 38.656 0 0 0 0-77.312z" fill="#FFFFFF" /><path d="M888.768 218.56a77.312 77.312 0 1 1 0 154.56 77.312 77.312 0 0 1 0-154.56z" fill="#3061F2" /><path d="M888.768 257.216a38.656 38.656 0 1 0 0 77.248 38.656 38.656 0 0 0 0-77.248z" fill="#FFFFFF" /></svg>