<?xml version="1.0" encoding="UTF-8"?>
<svg width="16px" height="16px" viewBox="0 0 16 16" version="1.1" xmlns="http://www.w3.org/2000/svg" xmlns:xlink="http://www.w3.org/1999/xlink">
    <!-- Generator: Sketch 63 (92445) - https://sketch.com -->
    <title>D3716C7A-946A-454A-B9DC-4B193B424CD3</title>
    <desc>Created with Sketch.</desc>
    <g id="Keywords-Search-V2.5" stroke="none" stroke-width="1" fill="none" fill-rule="evenodd">
        <g id="搜搜视图---各种状态" transform="translate(-1321.000000, -318.000000)" fill="#1890FF" fill-rule="nonzero">
            <g id="收起" transform="translate(1329.000000, 326.000000) rotate(180.000000) translate(-1329.000000, -326.000000) translate(1321.000000, 318.000000)">
                <path d="M8,0 C12.418278,0 16,3.581722 16,8 C16,12.418278 12.418278,16 8,16 C3.581722,16 0,12.418278 0,8 C0,3.581722 3.581722,0 8,0 Z M8,1.2 C5.57059396,1.2 3.3257302,2.49607263 2.11102717,4.59999997 C0.896324142,6.70392731 0.896324142,9.29607269 2.11102717,11.4 C3.3257302,13.5039274 5.57059396,14.8 8,14.8 C11.7555363,14.8 14.7999999,11.7555363 14.7999999,8 C14.7999999,4.24446374 11.7555363,1.2 8,1.2 Z M8.7067389,5.8134358 L8.79830752,5.8871046 L11.6270056,8.60653561 C11.8687139,8.83834146 11.884955,9.20781422 11.6644387,9.45810938 C11.4439224,9.70840453 11.0595904,9.75673018 10.7786168,9.56949202 L10.6870482,9.49582322 L8.32832882,7.2278767 L5.95085441,9.51371422 C5.72560289,9.73003501 5.37048542,9.76191807 5.10687858,9.58948784 L5.01530996,9.51581904 C4.78878883,9.30136802 4.75492328,8.96326766 4.9347737,8.71177675 L5.01200025,8.62337419 L7.85835012,5.8871046 C8.08481197,5.66915807 8.44274656,5.63807726 8.7067389,5.8134358 L8.7067389,5.8134358 Z" id="Shape"></path>
            </g>
        </g>
    </g>
</svg>