<?xml version="1.0" encoding="utf-8"?>
<!-- Generator: Adobe Illustrator 16.0.0, SVG Export Plug-In . SVG Version: 6.00 Build 0)  -->
<!DOCTYPE svg PUBLIC "-//W3C//DTD SVG 1.1//EN" "http://www.w3.org/Graphics/SVG/1.1/DTD/svg11.dtd">
<svg version="1.1" id="图层_1" xmlns="http://www.w3.org/2000/svg" xmlns:xlink="http://www.w3.org/1999/xlink" x="0px" y="0px"
	 width="12px" height="12px" viewBox="0 0 12 12" enable-background="new 0 0 12 12" xml:space="preserve">
<title>A87E08BD-03AE-4194-8B5A-C6339CEC8440</title>
<desc>Created with Sketch.</desc>
<g id="Keywords-Search-V2.5">
	<g id="搜搜视图---各种状态" transform="translate(-503.000000, -284.000000)">
		<g id="Group-2" transform="translate(503.000000, 284.000000)">
			<path id="Path-2" fill="#1890FF" d="M12,0v9.334C12,11.111,11.111,12,9.334,12C7.556,12,4.444,12,0,12L12,0z"/>
			<g id="对号-_x28_1_x29_" transform="translate(5.000000, 5.000000)">
				<path id="Path" fill="#FFFFFF" d="M2.594,6C1.729,4.904,0.712,4.069,0,3.809l1.678-1.043L2.49,4.383
					c0,0,1.322-3.288,3.408-4.383C5.848,0.782,5.645,1.46,6,2.295C5.085,2.504,3.203,4.853,2.594,6z"/>
			</g>
		</g>
	</g>
</g>
<rect x="9.208" y="9.292" fill="#1890FF" width="2.792" height="2.708"/>
</svg>
