<?xml version="1.0" encoding="UTF-8"?>
<svg width="16px" height="16px" viewBox="0 0 16 16" version="1.1" xmlns="http://www.w3.org/2000/svg" xmlns:xlink="http://www.w3.org/1999/xlink">
    <!-- Generator: Sketch 63 (92445) - https://sketch.com -->
    <title>AE8F91C1-B7B1-48A0-810E-F6D49BC1245D</title>
    <desc>Created with Sketch.</desc>
    <g id="Keywords-Search-V2.5" stroke="none" stroke-width="1" fill="none" fill-rule="evenodd" fill-opacity="0.45">
        <g id="搜搜视图---各种状态" transform="translate(-1384.000000, -276.000000)" fill="#000000" fill-rule="nonzero">
            <g id="设置2" transform="translate(1384.000000, 276.000000)">
                <path d="M15.7893678,10.0320887 L14.5531032,9.03278713 C14.6707137,8.34914653 14.6707137,7.6519969 14.5531032,6.9683563 L15.7893678,5.96814048 C15.9796563,5.81338069 16.0492149,5.56345887 15.9641834,5.34003421 L15.9477642,5.2943205 C15.6075662,4.39415006 15.0980906,3.55968673 14.4439642,2.83126619 L14.4101601,2.79378096 C14.2478552,2.61262847 13.9843422,2.54499436 13.7475995,2.62372598 L12.2138587,3.14029082 C11.6508446,2.70216219 11.0155411,2.35467188 10.3333843,2.11173251 L10.0368739,0.594037573 C9.99125409,0.360432957 9.79792888,0.17779159 9.55106055,0.135071996 L9.49987146,0.125929256 C8.50777939,-0.0419764185 7.49209012,-0.0419764185 6.5,0.125929256 L6.4497748,0.135071996 C6.20281584,0.177326018 6.00910598,0.359603842 5.9629956,0.593123299 L5.66455359,2.11813243 C4.98693097,2.36125021 4.35594138,2.70777435 3.79663499,3.14394792 L2.25130419,2.62372598 C2.01486444,2.54486968 1.75154521,2.61255273 1.58970944,2.79378096 L1.55590533,2.83035192 C0.902786386,3.55962754 0.393720112,4.39426606 0.0530711298,5.2943205 L0.0356861584,5.34003421 C-0.0492772482,5.56392289 0.0206690762,5.81422059 0.211467537,5.96905476 L1.46221965,6.98024187 C1.34495591,7.65531954 1.34495591,8.34399534 1.46221965,9.01907301 L0.211467537,10.0302601 C0.0208331329,10.1847974 -0.0491197261,10.4347547 0.0356861584,10.6583664 L0.0530711298,10.7049944 C0.393506514,11.6045888 0.90260541,12.4386614 1.55590533,13.1671344 L1.58970944,13.2046197 C1.75196918,13.3856459 2.01467541,13.4533022 2.25227002,13.3746746 L3.79760082,12.855367 C4.35628982,13.2914345 4.98705322,13.6373958 5.66455359,13.8793539 L5.9629956,15.4052773 C6.00874623,15.6391515 6.20253199,15.8218648 6.4497748,15.8642429 L6.5,15.8733856 C7.4920043,16.0422048 8.50786521,16.0422048 9.49987146,15.8733856 L9.55106055,15.8642429 C9.79792888,15.8215233 9.99125409,15.6388819 10.0368739,15.4052773 L10.3333843,13.8875824 C11.0158895,13.6453405 11.651309,13.2977867 12.2138587,12.8590241 L13.7475995,13.3746746 C13.9843207,13.4539542 14.2481661,13.3862348 14.4101601,13.2046197 L14.4439642,13.1680487 C15.0973268,12.4391184 15.6067183,11.6047928 15.9477642,10.7049944 L15.9641834,10.6592807 C16.0487423,10.436687 15.9791641,10.1877866 15.7893678,10.0339172 L15.7893678,10.0320887 Z M13.2134945,7.17955361 C13.3084924,7.7244326 13.3084924,8.28036792 13.2134945,8.82524691 L13.0898681,9.54203778 L14.4990166,10.6830518 C14.2855678,11.1493316 14.0161007,11.5881831 13.6954446,11.9968636 L11.9443916,11.4098997 L11.3523368,11.8697795 C10.9042901,12.2186602 10.3984775,12.4951352 9.85529755,12.6880548 L9.13768456,12.9440515 L8.79964345,14.6756866 C8.26692051,14.7328186 7.72908568,14.7328186 7.19636274,14.6756866 L6.85832163,12.9394802 L6.1455378,12.6807406 C5.60701291,12.4874004 5.10555441,12.2119135 4.6610544,11.8652082 L4.06899954,11.4025855 L2.30732243,11.9950351 C1.98777039,11.587152 1.71788221,11.1464241 1.50278458,10.6812233 L2.92738641,9.52923794 L2.80472578,8.8151899 C2.75884765,8.54643039 2.73559456,8.27464576 2.7351859,8.00240026 C2.7351859,7.72903232 2.75740003,7.45566438 2.80472578,7.18961062 L2.92738641,6.47647686 L1.50278458,5.32449155 C1.7162334,4.85821178 1.98570046,4.41936023 2.30732243,4.00976545 L4.06899954,4.60221504 L4.6610544,4.13959237 C5.1082345,3.79216823 5.60756952,3.51697174 6.1455378,3.32405991 L6.86025329,3.06806317 L7.19829441,1.33277101 C7.73101734,1.27563899 8.26885217,1.27563899 8.80157511,1.33277101 L9.13961622,3.06532035 L9.85819504,3.32040281 C10.3990608,3.51240037 10.903225,3.78851113 11.3542684,4.13776382 L11.9463233,4.59855795 L13.6964104,4.011594 C14.0180324,4.4202745 14.2855678,4.86186887 14.5009483,5.32540582 L13.0908339,6.46641985 L13.2134945,7.17955361 L13.2134945,7.17955361 Z M8.00186642,4.68084261 C6.80223127,4.6614731 5.68486174,5.25621828 5.07905955,6.23657258 C4.47325736,7.21692689 4.47325736,8.43039248 5.07905955,9.41074678 C5.68486174,10.3911011 6.80223127,10.9858463 8.00186642,10.9664768 C9.81340356,10.9372274 11.265767,9.53874341 11.265767,7.82365968 C11.265767,6.10857596 9.81340356,4.71009199 8.00186642,4.68084261 Z M9.49600814,9.23849879 C9.10008224,9.61401755 8.56233335,9.82461064 8.00186642,9.82363757 C7.44139949,9.82461064 6.9036506,9.61401755 6.50772471,9.23849879 C6.11102971,8.86370807 5.88856087,8.3546651 5.88958882,7.82411682 C5.88958882,7.29018077 6.10980203,6.78824431 6.50772471,6.40973485 C6.90757905,6.03122539 7.43782068,5.82459946 8.00186642,5.82459946 C8.56591216,5.82459946 9.09615379,6.03122539 9.49600814,6.40973485 C9.89393082,6.78824431 10.114144,7.29018077 10.114144,7.82411682 C10.115172,8.3546651 9.89270314,8.86370807 9.49600814,9.23849879 L9.49600814,9.23849879 Z" id="Shape"></path>
            </g>
        </g>
    </g>
</svg>