<?xml version="1.0" encoding="UTF-8"?>
<svg width="16px" height="16px" viewBox="0 0 16 16" version="1.1" xmlns="http://www.w3.org/2000/svg" xmlns:xlink="http://www.w3.org/1999/xlink">
    <!-- Generator: Sketch 63 (92445) - https://sketch.com -->
    <title>693F46DC-46A5-445B-905D-E51648819CF1</title>
    <desc>Created with Sketch.</desc>
    <g id="Keywords-Search-V2.5" stroke="none" stroke-width="1" fill="none" fill-rule="evenodd">
        <g id="搜搜视图---各种状态" transform="translate(-1218.000000, -460.000000)" fill="#2C2C2C" fill-rule="nonzero">
            <g id="保存" transform="translate(1218.014836, 460.017455)">
                <polygon id="Path" points="9.21483636 6.15330909 11.0126545 6.15330909 11.0126545 3.06501818 9.21483636 3.06501818"></polygon>
                <path d="M15.1796364,2.24232727 C14.6676364,1.70938182 14.1428364,1.18923636 13.6075636,0.676072727 C13.2864,0.367709091 12.9326545,0.100072727 12.4811636,7.1942452e-14 L1.64421818,7.1942452e-14 C1.57672727,0.0174545455 1.50690909,0.0325818182 1.43709091,0.0512 C0.653963636,0.261818182 0.176872727,0.758690909 0.0290909091,1.55927273 C0.0244363636,1.5872 0.0116363636,1.61629091 -1.69730896e-12,1.64538182 L-1.69730896e-12,14.2522182 C0.0302545455,14.3732364 0.0535272727,14.5024 0.0954181818,14.6222545 C0.340945455,15.3192727 0.827345455,15.7346909 1.55694545,15.8661818 C1.58603636,15.8708364 1.61629091,15.8848 1.64305455,15.8952727 L14.2498909,15.8952727 C14.3208727,15.8789818 14.3883636,15.8638545 14.4605091,15.8452364 C15.2436364,15.6357818 15.7207273,15.1389091 15.8696727,14.3383273 C15.8731636,14.3092364 15.8882909,14.2789818 15.8976,14.2522182 L15.8976,3.41527273 C15.7905455,2.94050909 15.5019636,2.57745455 15.1796364,2.24232727 Z M12.4299636,13.0350545 C12.4299636,13.5261091 12.1925818,13.7646545 11.6980364,13.7646545 L7.8336,13.7646545 C6.54894545,13.7646545 5.25963636,13.7646545 3.97032727,13.7669818 C3.48625455,13.7669818 3.24421818,13.5261091 3.24421818,13.0397091 C3.24189091,12.0731166 3.24189091,11.1065198 3.24421818,10.1399273 C3.24654545,9.65352727 3.48392727,9.41730909 3.97149091,9.41730909 L11.6968727,9.41730909 C12.1960727,9.41730909 12.4288,9.6512 12.4288,10.1492364 L12.4299636,13.0350545 L12.4299636,13.0350545 Z M12.4299636,6.05207273 C12.4299636,6.54429091 12.1925818,6.78167273 11.6980364,6.78167273 L7.8336,6.78167273 L3.97032727,6.78283636 C3.48625455,6.78283636 3.24421818,6.54312727 3.24421818,6.05672727 C3.24189091,4.70109091 3.24189091,4.50909091 3.24421818,3.15461818 C3.24654545,2.66821818 3.48392727,2.43316364 3.97149091,2.43316364 L11.6968727,2.43316364 C12.1960727,2.43316364 12.4288,2.66589091 12.4288,3.16276364 L12.4299636,6.05207273 L12.4299636,6.05207273 Z" id="Shape"></path>
            </g>
        </g>
    </g>
</svg>