<?xml version="1.0" encoding="UTF-8"?>
<svg width="24px" height="24px" viewBox="0 0 24 24" version="1.1" xmlns="http://www.w3.org/2000/svg" xmlns:xlink="http://www.w3.org/1999/xlink">
    <title>icon/24px/关联</title>
    <g id="icon/24px/关联" stroke="none" stroke-width="1" fill="none" fill-rule="evenodd">
        <g fill="#333333" id="形状结合">
            <path d="M8.96794586,10.781287 C10.1500795,9.60623768 12.0615933,9.60623768 13.243727,10.781287 C13.452091,10.9892496 13.452091,11.3264237 13.243727,11.5343864 C13.035363,11.742349 12.6975382,11.742349 12.4891742,11.5343864 C11.7241861,10.7742549 10.4874867,10.7742549 9.72249869,11.5343864 L9.72249869,11.5343864 L6.79005315,14.461197 C6.02845472,15.2247115 6.02845472,16.4590288 6.79005315,17.2225433 C7.5636708,17.9615213 8.78311098,17.9615213 9.55672862,17.2225433 L9.55672862,17.2225433 L11.9003777,14.8776718 L11.8889505,14.8776718 C12.0973145,14.6697091 12.4351393,14.6697091 12.6435033,14.8776718 C12.8518673,15.0856345 12.8518673,15.4228085 12.6435033,15.6307712 L12.6435033,15.6307712 L10.2941064,17.975629 C9.54903154,18.8206944 8.39467442,19.1816827 7.29966496,18.9120447 C6.20465549,18.6424068 5.350994,17.786959 5.08523815,16.692984 C4.8194823,15.5990091 5.18580307,14.4483354 6.03548663,13.7080976 L6.03548663,13.7080976 Z M13.7449389,5.89638245 C14.9472633,4.70120585 16.8962197,4.70120585 18.0985442,5.89638245 L18.0985442,5.89638245 L18.0985442,5.87902105 C19.3004853,7.07456808 19.3004853,9.01253013 18.0985442,10.2080772 L18.0985442,10.2080772 L15.1127108,13.2060145 C13.9090625,14.3979952 11.9627677,14.3979952 10.7591194,13.2060145 C10.5469629,12.9950575 10.5469598,12.6530255 10.7591124,12.4420646 C10.9712651,12.2311038 11.3152356,12.2311007 11.527392,12.4420577 C12.3063053,13.2131571 13.5655248,13.2131571 14.3444382,12.4420577 L14.3444382,12.4420577 L17.3302576,9.47306526 C17.7041595,9.10178847 17.9142593,8.59791811 17.9142593,8.07248707 C17.9142593,7.54705603 17.7041595,7.04318567 17.3302576,6.67190887 C16.5425592,5.92227708 15.3009238,5.92227708 14.5132254,6.67190887 L14.5132254,6.67190887 L12.1210668,9.05057233 C11.9817472,9.18704007 11.7797932,9.23923421 11.5912791,9.18749372 C11.4027649,9.13575324 11.2563303,8.98793873 11.2071358,8.79973051 C11.1579412,8.61152228 11.2134606,8.41151364 11.3527802,8.27504591 L11.3527802,8.27504591 Z"></path>
        </g>
    </g>
</svg>