<?xml version="1.0" encoding="UTF-8"?>
<svg width="24px" height="24px" viewBox="0 0 24 24" version="1.1" xmlns="http://www.w3.org/2000/svg" xmlns:xlink="http://www.w3.org/1999/xlink">
    <title>icon/24px/血缘</title>
    <g id="icon/24px/血缘" stroke="none" stroke-width="1" fill="none" fill-rule="evenodd">
        <path d="M8,4.5 C9.1045695,4.5 10,5.3954305 10,6.5 C10,7.43155158 9.36311708,8.21435119 8.50102216,8.43672788 L8.5,13.732 L15.7687762,11.7040438 C16.2010341,11.5834247 16.5,11.1896127 16.5,10.7408411 L16.4999808,10.4369863 C15.6373769,10.2149582 15,9.43191279 15,8.5 C15,7.3954305 15.8954305,6.5 17,6.5 C18.1045695,6.5 19,7.3954305 19,8.5 C19,9.43155158 18.3631171,10.2143512 17.5010222,10.4367279 L17.5,10.8300946 C17.5,11.7246432 16.9059774,12.5104056 16.0453232,12.7543146 L8.5,14.892 L8.50102216,15.5632721 C9.36311708,15.7856488 10,16.5684484 10,17.5 C10,18.6045695 9.1045695,19.5 8,19.5 C6.8954305,19.5 6,18.6045695 6,17.5 C6,16.5680872 6.63737692,15.7850418 7.49998077,15.5630137 L7.49998077,8.43698631 C6.63737692,8.21495822 6,7.43191279 6,6.5 C6,5.3954305 6.8954305,4.5 8,4.5 Z M8,16.5 C7.44771525,16.5 7,16.9477153 7,17.5 C7,18.0522847 7.44771525,18.5 8,18.5 C8.55228475,18.5 9,18.0522847 9,17.5 C9,16.9477153 8.55228475,16.5 8,16.5 Z M17,7.5 C16.4477153,7.5 16,7.94771525 16,8.5 C16,9.04655286 16.4384702,9.4906955 16.9828385,9.49985571 L17.017,9.499 L17.1166211,9.49327227 C17.6139598,9.43550716 18,9.01283584 18,8.5 C18,7.94771525 17.5522847,7.5 17,7.5 Z M8,5.5 C7.44771525,5.5 7,5.94771525 7,6.5 C7,7.05228475 7.44771525,7.5 8,7.5 C8.55228475,7.5 9,7.05228475 9,6.5 C9,5.94771525 8.55228475,5.5 8,5.5 Z" id="Combined-Shape" fill="#333333"></path>
    </g>
</svg>