<?xml version="1.0" encoding="UTF-8"?>
<svg width="24px" height="24px" viewBox="0 0 24 24" version="1.1" xmlns="http://www.w3.org/2000/svg" xmlns:xlink="http://www.w3.org/1999/xlink">
    <title>icon/24px/预览</title>
    <g id="icon/24px/预览" stroke="none" stroke-width="1" fill="none" fill-rule="evenodd">
        <g fill="#333333" id="形状结合">
            <path d="M17.0682222,5 C18.0998734,5.00120538 18.9358866,5.82415585 18.9371111,6.8396875 L18.9371111,6.8396875 L18.9371111,15.6185625 C18.9289611,15.8905358 18.7026328,16.1068528 18.4262222,16.1068528 C18.1498117,16.1068528 17.9234833,15.8905358 17.9153333,15.6185625 L17.9153333,15.6185625 L17.9153333,6.8396875 C17.9153333,6.379875 17.5353333,6.0058125 17.0682222,6.0058125 L17.0682222,6.0058125 L6.87622222,6.0058125 C6.40911111,6.0058125 6.02911111,6.379875 6.02911111,6.8396875 L6.02911111,6.8396875 L6.02911111,17.1366875 C6.02960105,17.597024 6.40857876,17.9700802 6.87622222,17.9705625 L6.87622222,17.9705625 L15.5695556,17.9705625 C15.8518344,17.9705625 16.0806667,18.1958192 16.0806667,18.4736875 C16.0806667,18.7515558 15.8518344,18.9768125 15.5695556,18.9768125 L15.5695556,18.9768125 L6.87622222,18.9768125 C5.84457102,18.9756071 5.00855785,18.1526566 5.00733333,17.137125 L5.00733333,17.137125 L5.00733333,6.8396875 C5.00855785,5.82415585 5.84457102,5.00120538 6.87622222,5 L6.87622222,5 Z M11.9073333,7.7702197 C12.9946054,7.76735049 14.0378799,8.1926961 14.8046667,8.9515 C15.575557,9.70627803 16.0076618,10.7332694 16.0046667,11.8035625 C16.0072019,12.7115101 15.6961088,13.5933357 15.1224444,14.3043125 L15.1224444,14.3043125 L17.8673333,17.0054375 C18.0668323,17.2019027 18.0668323,17.5203473 17.8673333,17.7168125 C17.7716036,17.8113353 17.64159,17.8644621 17.506,17.8644621 C17.37041,17.8644621 17.2403964,17.8113353 17.1446667,17.7168125 L17.1446667,17.7168125 L14.3944444,15.0095625 C13.6810378,15.5482613 12.8064582,15.8391814 11.9073333,15.836875 C10.8200613,15.8397745 9.77678676,15.4144289 9.01,14.655625 C8.23622222,13.8939375 7.80997023,12.881125 7.80997023,11.8035625 C7.80705446,10.7332791 8.23915159,9.70630571 9.01,8.9515 C9.77675863,8.19265478 10.8200515,7.76730169 11.9073333,7.7702197 Z M11.9068889,8.775625 C10.2108889,8.775625 8.83133333,10.1340625 8.83133333,11.8035625 C8.83133333,13.4730625 10.2108889,14.8315 11.9068889,14.8315 C13.6028889,14.8315 14.9828889,13.4730625 14.9828889,11.8035625 C14.9828889,10.1340625 13.6028889,8.775625 11.9068889,8.775625 Z"></path>
        </g>
    </g>
</svg>