<?xml version="1.0" standalone="no"?><!DOCTYPE svg PUBLIC "-//W3C//DTD SVG 1.1//EN" "http://www.w3.org/Graphics/SVG/1.1/DTD/svg11.dtd"><svg t="1661853550030" class="icon" viewBox="0 0 1024 1024" version="1.1" xmlns="http://www.w3.org/2000/svg" p-id="11009" xmlns:xlink="http://www.w3.org/1999/xlink" width="200" height="200"><path d="M864 416c53.12 0 96 42.88 96 96s-42.88 96-96 96S768 565.12 768 512s42.88-96 96-96zM512 416c53.12 0 96 42.88 96 96S565.12 608 512 608 416 565.12 416 512 458.88 416 512 416z m-352 0C213.12 416 256 458.88 256 512s-42.88 96-96 96S64 565.12 64 512s42.88-96 96-96z" p-id="11010"></path></svg>