<?xml version="1.0" encoding="UTF-8"?>
<svg width="20px" height="20px" viewBox="0 0 20 20" version="1.1" xmlns="http://www.w3.org/2000/svg" xmlns:xlink="http://www.w3.org/1999/xlink">
    <title>中文名</title>
    <g id="数据字典" stroke="none" stroke-width="1" fill="none" fill-rule="evenodd">
        <g id="业务图标-40*40" transform="translate(-613.000000, -293.000000)">
            <g id="中文名" transform="translate(613.000000, 293.000000)">
                <rect id="矩形备份-8" x="0" y="0" width="20" height="20"></rect>
                <path d="M18,3 L18,17 L2,17 L2,3 L18,3 Z M16.5,4.5 L3.5,4.5 L3.5,15.5 L16.5,15.5 L16.5,4.5 Z M11,6 L11,7.5 L14,7.5 L14,12.5 L11,12.5 L11,14 L9,14 L9,12.5 L6,12.5 L6,7.5 L9,7.5 L9,6 L11,6 Z M9,9.5 L8,9.5 L8,10.5 L9,10.5 L9,9.5 Z M12,9.5 L11,9.5 L11,10.5 L12,10.5 L12,9.5 Z" id="形状结合" fill="#3863FF" fill-rule="nonzero"></path>
            </g>
        </g>
    </g>
</svg>