<?xml version="1.0" encoding="UTF-8"?>
<svg width="20px" height="20px" viewBox="0 0 20 20" version="1.1" xmlns="http://www.w3.org/2000/svg" xmlns:xlink="http://www.w3.org/1999/xlink">
    <title>主键</title>
    <g id="数据字典" stroke="none" stroke-width="1" fill="none" fill-rule="evenodd">
        <g id="业务图标-40*40" transform="translate(-613.000000, -333.000000)">
            <g id="主键" transform="translate(613.000000, 333.000000)">
                <rect id="矩形备份-10" x="0" y="0" width="20" height="20"></rect>
                <path d="M12,2.5 L17,7.5 L12,7.5 L12,4 L4.5,4 L4.5,16 L12,16 L12,17.5 L3,17.5 L3,2.5 L12,2.5 Z M8.38828125,8.93125 C9.02630208,8.93125 9.47421875,8.9625 9.73203125,9.025 C9.98984375,9.0875 10.2085937,9.19427083 10.3882812,9.3453125 C10.5992187,9.51979167 10.760026,9.73789062 10.8707031,9.99960937 C10.9813802,10.2613281 11.0367187,10.5523437 11.0367187,10.8726562 C11.0367187,11.2138021 10.9820312,11.5139323 10.8726562,11.7730469 C10.7632812,12.0321615 10.6018229,12.2450521 10.3882812,12.4117187 C10.2268229,12.5367187 10.0367187,12.6265625 9.81796875,12.68125 C9.59921875,12.7359375 9.24895833,12.7632812 8.7671875,12.7632812 L8.2203125,12.7632812 L8.2203125,14.65 L6.759375,14.65 L6.759375,8.93125 L8.38828125,8.93125 Z M13.3726562,8.93125 L13.3726562,11.5289062 L15.18125,8.93125 L16.9976562,8.93125 L14.884375,11.7203125 L17.18125,14.65 L15.2359375,14.65 L13.3726562,12.0835937 L13.3726562,14.65 L11.8296875,14.65 L11.8296875,8.93125 L13.3726562,8.93125 Z M8.5328125,10.1617187 L8.2203125,10.1617187 L8.2203125,11.5054687 L8.5171875,11.5054687 C8.8921875,11.5054687 9.15390625,11.4540365 9.30234375,11.3511719 C9.45078125,11.2483073 9.525,11.0731771 9.525,10.8257812 C9.525,10.5861979 9.45208333,10.415625 9.30625,10.3140625 C9.16041667,10.2125 8.90260417,10.1617187 8.5328125,10.1617187 Z" id="形状结合备份-2" fill="#3863FF" fill-rule="nonzero"></path>
            </g>
        </g>
    </g>
</svg>