<?xml version="1.0" encoding="UTF-8"?>
<svg width="20px" height="20px" viewBox="0 0 20 20" version="1.1" xmlns="http://www.w3.org/2000/svg" xmlns:xlink="http://www.w3.org/1999/xlink">
    <title>分区</title>
    <g id="数据字典" stroke="none" stroke-width="1" fill="none" fill-rule="evenodd">
        <g id="业务图标-40*40" transform="translate(-613.000000, -373.000000)">
            <g id="分区" transform="translate(613.000000, 373.000000)">
                <rect id="矩形备份-12" x="0" y="0" width="20" height="20"></rect>
                <path d="M16,2.5 L16,7 L4,7 L4,2.5 L16,2.5 Z M14.5,4 L5.5,4 L5.5,5.5 L14.5,5.5 L14.5,4 Z M9.25,13 L9.25,17.5 L1.75,17.5 L1.75,13 L9.25,13 Z M7.75,14.5 L3.25,14.5 L3.25,16 L7.75,16 L7.75,14.5 Z M18.25,13 L18.25,17.5 L10.75,17.5 L10.75,13 L18.25,13 Z M16.75,14.5 L12.25,14.5 L12.25,16 L16.75,16 L16.75,14.5 Z M10.5213203,8.12132034 L10.521,10.3273203 L11.4355339,9.41421356 L12.1426407,10.1213203 L10.0213203,12.2426407 L7.9,10.1213203 L8.60710678,9.41421356 L9.521,10.3273203 L9.52132034,8.12132034 L10.5213203,8.12132034 Z" id="形状结合" fill="#3863FF" fill-rule="nonzero"></path>
            </g>
        </g>
    </g>
</svg>