<?xml version="1.0" encoding="UTF-8"?>
<svg width="20px" height="20px" viewBox="0 0 20 20" version="1.1" xmlns="http://www.w3.org/2000/svg" xmlns:xlink="http://www.w3.org/1999/xlink">
    <title>数据库</title>
    <g id="数据字典" stroke="none" stroke-width="1" fill="none" fill-rule="evenodd">
        <g id="业务图标-40*40" transform="translate(-613.000000, -173.000000)">
            <g id="数据库" transform="translate(613.000000, 173.000000)">
                <rect id="矩形备份-6" x="0" y="0" width="20" height="20"></rect>
                <path d="M10.3920356,2.50335664 L10.7788347,2.51331679 C11.0348456,2.52212146 11.2870361,2.53521868 11.5347477,2.55238888 L11.9028733,2.58117146 C12.2067081,2.60765682 12.5030298,2.64033466 12.7905519,2.67877613 L13.1312722,2.727645 L13.4630507,2.78188228 C15.8075761,3.18942618 17.4251568,3.99787424 17.4974722,4.93445285 L17.5,5 L17.5,15 C17.5,15.9643067 15.8620999,16.8010961 13.4630507,17.2181177 L13.1312722,17.272355 L12.7905519,17.3212239 C12.5030298,17.3596653 12.2067081,17.3923432 11.9028733,17.4188285 L11.5347477,17.4476111 C11.2870361,17.4647813 11.0348456,17.4778785 10.7788347,17.4866832 L10.3920356,17.4966434 C10.2622023,17.498872 10.1314964,17.5 10,17.5 C9.86850363,17.5 9.73779766,17.498872 9.60796442,17.4966434 L9.22116526,17.4866832 C8.96515442,17.4778785 8.71296387,17.4647813 8.46525235,17.4476111 L8.09712666,17.4188285 C7.79329188,17.3923432 7.49697019,17.3596653 7.20944814,17.3212239 L6.86872785,17.272355 L6.53694925,17.2181177 C4.19242393,16.8105738 2.57484316,16.0021258 2.50252778,15.0655472 L2.5,15 L2.5,5 L2.50252778,4.93445285 C2.57484316,3.99787424 4.19242393,3.18942618 6.53694925,2.78188228 L6.86872785,2.727645 L7.20944814,2.67877613 C7.49697019,2.64033466 7.79329188,2.60765682 8.09712666,2.58117146 L8.46525235,2.55238888 C8.71296387,2.53521868 8.96515442,2.52212146 9.22116526,2.51331679 L9.60796442,2.50335664 C9.67288104,2.50224234 9.73801584,2.50140318 9.80335854,2.50084259 L10,2.5 C10.1314964,2.5 10.2622023,2.50112803 10.3920356,2.50335664 Z M13.4630507,12.2181177 L13.1312722,12.272355 L12.7905519,12.3212239 C12.5030298,12.3596653 12.2067081,12.3923432 11.9028733,12.4188285 L11.5347477,12.4476111 C11.2870361,12.4647813 11.0348456,12.4778785 10.7788347,12.4866832 L10.3920356,12.4966434 L10.1966415,12.4991574 L10,12.5 C9.86850363,12.5 9.73779766,12.498872 9.60796442,12.4966434 L9.22116526,12.4866832 C8.96515442,12.4778785 8.71296387,12.4647813 8.46525235,12.4476111 L8.09712666,12.4188285 C7.79329188,12.3923432 7.49697019,12.3596653 7.20944814,12.3212239 L6.86872785,12.272355 L6.53694925,12.2181177 C5.53816144,12.0445005 4.6713019,11.798126 3.99963783,11.500083 L4,14.7805 L4.04386532,14.8149709 C4.28328496,14.9942588 4.68979879,15.1883841 5.2258073,15.3627776 C6.4572116,15.7634219 8.164768,16 10,16 C11.8639753,16 13.5956013,15.7558613 14.8289592,15.344742 C15.3127262,15.1834864 15.6850407,15.0068265 15.9168526,14.8435486 L16,14.78 L16.0013498,11.4996447 C15.3295479,11.7978844 14.4623282,12.0444154 13.4630507,12.2181177 Z M13.4630507,7.46622448 L13.1312722,7.52046175 L12.7905519,7.56933062 C12.5030298,7.6077721 12.2067081,7.64044993 11.9028733,7.66693529 L11.5347477,7.69571787 C11.2870361,7.71288807 11.0348456,7.72598529 10.7788347,7.73478996 L10.3920356,7.74475011 L10.1966415,7.74726416 L10,7.74810675 C9.86850363,7.74810675 9.73779766,7.74697872 9.60796442,7.74475011 L9.22116526,7.73478996 C8.96515442,7.72598529 8.71296387,7.71288807 8.46525235,7.69571787 L8.09712666,7.66693529 C7.79329188,7.64044993 7.49697019,7.6077721 7.20944814,7.56933062 L6.86872785,7.52046175 L6.53694925,7.46622448 C5.53816144,7.29260729 4.6713019,7.04623271 3.99963783,6.74818978 L4,10 L4.0415,10 L4.1269035,10.0440631 C4.29668649,10.1287519 4.49869051,10.2139076 4.7292835,10.295932 L4.871041,10.344742 C6.10439896,10.7558613 8.13602472,11 10,11 C11.8639753,11 13.945601,10.7558613 15.178959,10.344742 C15.4692192,10.2479886 15.7193569,10.1456897 15.9230965,10.0440631 L16,10.004 L16.0013498,6.74775145 C15.3295479,7.04599115 14.4623282,7.29252219 13.4630507,7.46622448 Z M10,4 C8.164768,4 6.4572116,4.23657808 5.2258073,4.63722245 C4.73852684,4.79576191 4.35826677,4.97060879 4.11327617,5.13579052 L4.02325112,5.20073941 L4,5.219 L4,5.248 L4.0415,5.24810675 L4.1269035,5.29216983 C4.29668649,5.37685868 4.49869051,5.4620144 4.7292835,5.54403872 L4.871041,5.59284876 C6.10439896,6.00396808 8.13602472,6.24810675 10,6.24810675 C11.8639753,6.24810675 13.945601,6.00396808 15.178959,5.59284876 C15.4692192,5.49609537 15.7193569,5.39379645 15.9230965,5.29216983 L16,5.252 L16,5.219 L15.9561347,5.18502911 C15.716715,5.00574125 15.3102012,4.81161586 14.7741927,4.63722245 C13.5427884,4.23657808 11.835232,4 10,4 Z" id="形状结合" fill="#3863FF" fill-rule="nonzero"></path>
            </g>
        </g>
    </g>
</svg>