<?xml version="1.0" encoding="UTF-8"?>
<svg width="20px" height="20px" viewBox="0 0 20 20" version="1.1" xmlns="http://www.w3.org/2000/svg" xmlns:xlink="http://www.w3.org/1999/xlink">
    <title>表</title>
    <g id="数据字典" stroke="none" stroke-width="1" fill="none" fill-rule="evenodd">
        <g id="业务图标-40*40" transform="translate(-613.000000, -213.000000)">
            <g id="表" transform="translate(613.000000, 213.000000)">
                <rect id="矩形备份-3" x="0" y="0" width="20" height="20"></rect>
                <path d="M18,4 L18,16.5 L2,16.5 L2,4 L18,4 Z M6.699,12 L3.5,12 L3.5,15 L6.7,15 L6.699,12 Z M11.75,12 L8.199,12 L8.2,15 L11.75,15 L11.75,12 Z M16.5,12 L13.25,12 L13.25,15 L16.5,15 L16.5,12 Z M6.699,7.5 L3.5,7.5 L3.5,10.5 L6.699,10.5 L6.699,7.5 Z M11.75,7.5 L8.199,7.5 L8.199,10.5 L11.75,10.5 L11.75,7.5 Z M16.5,7.5 L13.25,7.5 L13.25,10.5 L16.5,10.5 L16.5,7.5 Z" id="形状结合" fill="#3863FF" fill-rule="nonzero"></path>
            </g>
        </g>
    </g>
</svg>