<?xml version="1.0" encoding="UTF-8"?>
<svg width="20px" height="20px" viewBox="0 0 20 20" version="1.1" xmlns="http://www.w3.org/2000/svg" xmlns:xlink="http://www.w3.org/1999/xlink">
    <title>规范</title>
    <g id="数据字典" stroke="none" stroke-width="1" fill="none" fill-rule="evenodd">
        <g id="业务图标-40*40" transform="translate(-613.000000, -413.000000)">
            <g id="规范" transform="translate(613.000000, 413.000000)">
                <rect id="矩形备份-19" x="0" y="0" width="20" height="20"></rect>
                <path d="M10.2703798,2 C11.7207288,2.01618514 13.1262343,2.21664026 14.4815198,2.59554929 C15.3493073,2.85827977 16.1843253,3.20709445 16.9723663,3.63608876 C17.3351326,3.83343915 17.676241,4.06337581 17.9907772,4.32264865 C17.9914476,5.17011248 17.9195743,6.24045989 17.5592352,7.75406263 C17.2295394,9.08836464 16.7335781,10.3820739 16.0812225,11.6094942 C15.4380978,12.8284699 14.6211899,13.9607216 13.6577672,14.9704798 C12.6612288,15.9579558 11.5244965,16.7996449 10.2601975,17.4670575 C8.99417144,16.7878804 7.83035705,15.9372706 6.83292024,14.9421988 C5.87021782,13.9138001 5.04004413,12.7836531 4.35959461,11.5747154 C3.71538915,10.3395776 3.22743986,9.03868758 2.90568274,7.69832109 C2.64199081,6.59916263 2.5060118,5.47681781 2.5,4.35069517 C2.67850165,4.18925085 3.08506768,3.87356361 3.9391842,3.42196106 C4.32002239,3.22934195 4.71155437,3.05601669 5.11078713,2.90314376 L5.41160882,2.79234198 L5.67353523,2.70276131 C7.52121765,2.04738691 9.93939603,2.00322802 10.2703798,2 Z M10.2837794,3.49984539 C9.95236748,3.50325767 7.91883322,3.55701134 6.36414866,4.05302687 L6.16425856,4.12026486 L5.90740973,4.20808092 L5.6453199,4.30476789 C5.29823941,4.43775081 4.96064962,4.58698247 4.63255335,4.75223383 C4.44509805,4.85159025 4.28960743,4.93921351 4.03626431,5.25063563 C4.08887029,5.95561261 4.1983777,6.65672755 4.3642278,7.34811761 C4.65498895,8.55926282 5.09545517,9.73757951 5.68234848,10.8668604 C6.2953975,11.9505099 7.04223252,12.9677579 7.91639226,13.9044722 C8.57528156,14.5579058 9.32084128,15.1465894 10.3973924,15.6572985 C11.190315,15.1587008 11.9197602,14.578129 12.5873576,13.9192772 C13.4540183,13.0072819 14.1820599,11.9945893 14.7573513,10.9041033 C15.3507897,9.78767811 15.8013086,8.61228668 16.1009035,7.40262327 C16.3242575,6.46267752 16.4228165,5.72275399 16.2555702,4.95372112 C15.5638173,4.57712977 14.8285473,4.26904063 14.057079,4.03435194 C12.839959,3.6960812 11.5768555,3.51590357 10.2837794,3.49984539 Z M13.1362343,6.74976214 L10.2494533,11.7497421 L7.36261226,6.74976214 L13.1362343,6.74976214 Z" id="形状结合" fill="#3863FF"></path>
            </g>
        </g>
    </g>
</svg>