<?xml version="1.0" encoding="UTF-8"?>
<svg width="20px" height="20px" viewBox="0 0 20 20" version="1.1" xmlns="http://www.w3.org/2000/svg" xmlns:xlink="http://www.w3.org/1999/xlink">
    <!-- Generator: Sketch 63.1 (92452) - https://sketch.com -->
    <title>20px/Cross</title>
    <desc>Created with Sketch.</desc>
    <g id="20px/Cross" stroke="none" stroke-width="1" fill="none" fill-rule="evenodd">
        <rect id="box_20" x="0" y="0" width="20" height="20"></rect>
        <circle id="椭圆形" fill="#F2F2F2" cx="10" cy="10" r="9"></circle>
        <path d="M7.24665757,6.21376086 L10,8.967 L12.7537723,6.21384839 C13.03942,5.92882526 13.5025451,5.92882526 13.7862497,6.21320061 C14.0718975,6.49822373 14.070602,6.96073853 13.7862497,7.24576166 L11.032,9.999 L13.7862454,12.7535475 C14.0706034,13.0398575 14.0718989,13.5017105 13.7862454,13.786725 C13.5018873,14.0710917 13.0387529,14.0710917 12.7537471,13.786725 L9.999,11.032 L7.24679427,13.7857468 C6.9611465,14.0714177 6.49866917,14.0714177 6.21366913,13.7857468 C5.92866909,13.5013715 5.92866909,13.0395045 6.21431686,12.7531858 L8.967,10 L6.21351152,7.24629056 C5.92915346,6.96127609 5.92850571,6.49877533 6.21351152,6.21376086 C6.49722185,5.92874638 6.96035628,5.92874638 7.24665757,6.21376086 Z" id="Cross" fill="#555555"></path>
    </g>
</svg>