<?xml version="1.0" encoding="UTF-8"?>
<svg width="12px" height="14px" viewBox="0 0 12 14" version="1.1" xmlns="http://www.w3.org/2000/svg" xmlns:xlink="http://www.w3.org/1999/xlink">
    <!-- Generator: Sketch 59 (86127) - https://sketch.com -->
    <title>E82416C2-625E-44DC-8B8D-1A35E2E02D89</title>
    <desc>Created with Sketch.</desc>
    <g id="Keywords-Search" stroke="none" stroke-width="1" fill="none" fill-rule="evenodd" opacity="0.65">
        <g id="搜索页面---键盘精灵" transform="translate(-290.000000, -334.000000)" fill="#000000" fill-rule="nonzero">
            <g id="维度" transform="translate(288.000000, 333.000000)">
                <rect id="Rectangle" opacity="0" x="0" y="0" width="16" height="16"></rect>
                <path d="M13.8282085,2.3778918 C13.8282085,2.64286414 13.6133621,2.85769448 13.3483738,2.85769448 L2.6516102,2.85769448 C2.38663786,2.85769448 2.17179152,2.64286414 2.17179152,2.3778918 L2.17179152,2.3778918 C2.17179152,2.11290345 2.38663784,1.89807311 2.6516102,1.89807311 L13.3483738,1.89807311 C13.6133621,1.89805712 13.8282085,2.11288747 13.8282085,2.3778918 L13.8282085,2.3778918 L13.8282085,2.3778918 Z M8.00003198,14.1019269 C7.73497969,14.1019269 7.5202133,13.8871605 7.5202133,13.6221242 L7.5202133,2.39359314 C7.5202133,2.1286048 7.73499567,1.91377445 8.00003198,1.91377445 L8.00003198,1.91377445 C8.26500433,1.91377445 8.4797867,2.1286048 8.4797867,2.39359314 L8.4797867,13.6221882 C8.4797867,13.8871605 8.26500433,14.1019269 8.00003198,14.1019269 L8.00003198,14.1019269 L8.00003198,14.1019269 Z" id="Shape"></path>
            </g>
        </g>
    </g>
</svg>