<?xml version="1.0" encoding="UTF-8"?>
<svg width="14px" height="14px" viewBox="0 0 14 14" version="1.1" xmlns="http://www.w3.org/2000/svg" xmlns:xlink="http://www.w3.org/1999/xlink">
    <!-- Generator: Sketch 61.2 (89653) - https://sketch.com -->
    <title>AAF6C521-374D-4C54-B9BD-61D2093FE73E</title>
    <desc>Created with Sketch.</desc>
    <g id="Keywords-Search-V2.0" stroke="none" stroke-width="1" fill="none" fill-rule="evenodd">
        <g id="创建数据分析集" transform="translate(-1373.000000, -205.000000)" fill="#1890FF" fill-rule="nonzero">
            <g id="计算公式" transform="translate(1373.000000, 205.000000)">
                <path d="M12.3239104,6.31174142 C12.4112911,6.22442463 12.4986719,6.13704386 12.5859887,6.13704386 L13.8088556,6.13704386 C13.8962363,6.13704386 13.9835532,6.04972706 13.9835532,5.96241027 L13.9835532,4.56476588 C13.9835532,4.47744908 13.8962364,4.39006831 13.8088556,4.39006831 L12.4112911,4.39006831 C12.3239104,4.39006831 12.1492768,4.47744906 12.1492768,4.56476588 L10.6643156,6.13704387 C10.5769988,6.22442463 10.489618,6.22442463 10.489618,6.13704387 L9.703511,4.56476588 C9.61606628,4.47744908 9.52874948,4.39006831 9.44143269,4.39006831 L7.17033252,4.39006831 C7.08309566,4.39006831 6.99563495,4.47744906 6.99563495,4.56476588 L6.99563495,5.96241027 C6.99563495,6.04972706 7.08307967,6.13704386 7.17033252,6.13704386 L8.56796092,6.13704386 C8.65527772,6.13704386 8.74265848,6.22442461 8.82997528,6.31174142 L9.35406795,7.44737147 L9.35406795,7.70938583 L7.78180595,9.54372614 C7.6944252,9.54372614 7.60715636,9.63099497 7.51979159,9.63099497 L6.2969087,9.63099497 C6.20959191,9.63099497 6.12214719,9.71835973 6.12214719,9.80567653 L6.12214719,11.2033209 C6.12214719,11.2906377 6.20959191,11.3780185 6.2969087,11.3780185 L7.6944092,11.3780185 C7.78178995,11.3780185 7.95648752,11.2906377 7.95648752,11.2033209 L9.96552539,8.93220473 C10.0529061,8.84488794 10.140223,8.84488794 10.140223,8.93220473 L11.2757251,11.2033209 C11.2757251,11.2906377 11.4504226,11.3780185 11.5378034,11.3780185 L12.9353838,11.3780185 C13.0227006,11.3780185 13.1100814,11.2906377 13.1100814,11.2033209 L13.1100814,9.80567653 C13.1100814,9.71835973 13.0227006,9.63099497 12.9353838,9.63099497 L12.4112911,9.63099497 C12.3239104,9.63099497 12.2366575,9.54372614 12.1492768,9.45629741 L11.275725,7.7094018 L11.275725,7.44738744 L12.3239104,6.31174142 L12.3239104,6.31174142 L12.3239104,6.31174142 L12.3239104,6.31174142 Z M5.16135859,0.896085234 C4.72458273,1.2455443 4.28787081,1.76963697 4.0257925,2.64312473 L3.58916053,4.3900843 L1.05595006,4.3900843 C0.968569313,4.3900843 0.8812525,4.47746505 0.8812525,4.56478186 L0.8812525,5.96242625 C0.8812525,6.04974305 0.968569297,6.13705984 1.05595006,6.13705984 L3.15230473,6.13705984 L1.84205708,11.3780185 C1.58004272,12.4262038 0.8812525,12.2515063 0.8812525,12.2515063 L0.00776471875,12.2515063 L0.00776471875,13.9985457 L0.8812525,13.9985457 C1.58004272,13.9985457 2.27883294,13.911165 2.62822805,13.4743891 C3.06498792,13.0376772 3.32706623,12.2515062 3.50169983,11.3780185 L4.81196347,6.13705984 L6.82100136,6.13705986 C6.9082542,6.13705986 6.99569892,6.04974306 6.99569892,5.96242627 L6.99569892,4.56478187 C6.99569892,4.47746508 6.9082542,4.39008431 6.82100136,4.39008431 L5.24872336,4.39008431 L5.68543527,2.73044155 C5.77281602,2.46836323 6.20959189,2.03165133 6.47154228,1.85695377 C7.43241081,1.15816355 8.74265847,1.59487545 9.61606631,1.76963697 L9.61606631,0.284675766 C8.74265848,0.109978219 6.82100136,-0.501495203 5.16135859,0.896085234 L5.16135859,0.896085234 L5.16135859,0.896085234 L5.16135859,0.896085234 Z" id="Shape"></path>
            </g>
        </g>
    </g>
</svg>