<?xml version="1.0" encoding="UTF-8"?>
<svg width="20px" height="20px" viewBox="0 0 20 20" version="1.1" xmlns="http://www.w3.org/2000/svg" xmlns:xlink="http://www.w3.org/1999/xlink">
    <!-- Generator: Sketch 63.1 (92452) - https://sketch.com -->
    <title>20px/Publish</title>
    <desc>Created with Sketch.</desc>
    <g id="20px/Publish" stroke="none" stroke-width="1" fill="none" fill-rule="evenodd">
        <rect id="box_20" x="0" y="0" width="20" height="20"></rect>
        <path d="M16.4643934,3.00044981 L16.49315,3.00108764 C16.5080463,3.00204789 16.5228728,3.0036558 16.5375909,3.00589809 C16.5390228,3.00816345 16.5406923,3.00844911 16.5423608,3.00874219 C16.6036932,3.01660856 16.6628326,3.03747017 16.7172525,3.06831722 C16.7197238,3.07140148 16.7223842,3.07288832 16.7250352,3.0743984 C16.7434576,3.08367832 16.761214,3.09562327 16.7783028,3.10867619 C16.7869974,3.11521965 16.7956281,3.12191169 16.8041051,3.12889129 C16.9404025,3.2411217 17.0069282,3.40299678 16.9994706,3.56334478 C17.0000754,3.57607318 16.9997375,3.58832996 16.9990234,3.60054209 L16.994721,3.63364733 L16.994721,3.63364733 L15.1721153,16.5153084 C15.1324015,16.7960783 14.8796972,17.0000252 14.589468,17.0000252 C14.5679187,17.0000252 14.5461817,16.9988955 14.5242879,16.9965968 L14.4706095,17.0000252 L14.4706095,17.0000252 C14.3899656,17.0000252 14.3104021,16.9814253 14.238049,16.9457125 L10.2961231,15.0066652 C10.0338768,14.8776539 9.92556339,14.559899 10.0542072,14.2969209 C10.182851,14.0339593 10.4997747,13.9253505 10.762021,14.0543452 L14.1,15.696 L15.561,5.366 L9,12.79 L9.00003499,16.4652659 C9.00003499,16.7606034 8.77617561,17.0000252 8.50003499,17.0000252 C8.22389436,17.0000252 8.00003499,16.7606034 8.00003499,16.4652659 L8.00003499,12.5347846 L8.00133674,12.497865 C7.99175737,12.3622909 8.03497046,12.2231383 8.13353641,12.1115926 L13.939,5.54 L4.512,10.551 L6.73884592,11.9271636 C6.9798565,12.0760534 7.07040764,12.421752 6.94108867,12.6992697 C6.85176015,12.8909998 6.68084119,13.0000252 6.50427343,13.0000252 C6.42268866,13.0000252 6.34238096,12.9766945 6.27055214,12.9321472 L3.26122405,11.0728875 C3.07593533,10.9584212 2.97957598,10.7276306 3.00368621,10.5009271 C2.97794152,10.2708571 3.08828678,10.0388024 3.29589417,9.92846378 L15.9658221,3.19366735 C16.0778356,3.07072012 16.2442775,2.99628172 16.4240267,3.00017047 C16.4376423,2.99988934 16.4510219,2.99993829 16.4643934,3.00044981 Z" id="形状结合" fill="#1890FF"></path>
    </g>
</svg>