<?xml version="1.0" encoding="UTF-8"?>
<svg width="24px" height="24px" viewBox="0 0 24 24" version="1.1" xmlns="http://www.w3.org/2000/svg" xmlns:xlink="http://www.w3.org/1999/xlink">
    <!-- Generator: Sketch 61.2 (89653) - https://sketch.com -->
    <title>6BC8D342-F175-4A7E-90A2-61F7FA38E361</title>
    <desc>Created with Sketch.</desc>
    <g id="Keywords-Search-V2.0" stroke="none" stroke-width="1" fill="none" fill-rule="evenodd">
        <g id="数据管理列表" transform="translate(-1120.000000, -270.000000)">
            <g id="Group-2" transform="translate(1120.000000, 270.000000)">
                <circle id="Oval" fill="#E6F7FF" cx="12" cy="12" r="12"></circle>
                <g id="关联" transform="translate(5.000000, 5.000000)" fill="#1890FF" fill-rule="nonzero">
                    <path d="M6.90037771,9.8776718 L4.55672862,12.2225433 C3.78311098,12.9615213 2.5636708,12.9615213 1.79005315,12.2225433 C1.02845472,11.4590288 1.02845472,10.2247115 1.79005315,9.46119702 L4.72249869,6.53438635 C5.48748671,5.77425493 6.72418614,5.77425493 7.48917416,6.53438635 C7.69753817,6.74234901 8.03536298,6.74234901 8.24372699,6.53438635 C8.452091,6.3264237 8.452091,5.98924961 8.24372699,5.78128696 C7.06159332,4.60623768 5.15007953,4.60623768 3.96794586,5.78128696 L1.03548663,8.70809762 C0.185803068,9.44833542 -0.180517704,10.5990091 0.0852381493,11.692984 C0.350994003,12.786959 1.20465549,13.6424068 2.29966496,13.9120447 C3.39467442,14.1816827 4.54903154,13.8206944 5.2941064,12.975629 L7.64350331,10.6307712 C7.85186733,10.4228085 7.85186733,10.0856345 7.64350331,9.8776718 C7.4351393,9.66970914 7.09731449,9.66970914 6.88895048,9.8776718 L6.90037771,9.8776718 Z" id="Path"></path>
                    <path d="M13.0985442,0.896382447 C11.8962197,-0.298794149 9.94726334,-0.298794149 8.74493886,0.896382447 L6.35278018,3.27504591 C6.21346057,3.41151364 6.15794124,3.61152228 6.20713578,3.79973051 C6.25633032,3.98793873 6.40276491,4.13575324 6.59127907,4.18749372 C6.77979322,4.23923421 6.98174715,4.18704007 7.12106675,4.05057233 L9.51322543,1.67190887 C10.3009238,0.92227708 11.5425592,0.92227708 12.3302576,1.67190887 C12.7041595,2.04318567 12.9142593,2.54705603 12.9142593,3.07248707 C12.9142593,3.59791811 12.7041595,4.10178847 12.3302576,4.47306526 L9.34443816,7.44205771 C8.56552484,8.21315709 7.30630534,8.21315709 6.52739203,7.44205771 C6.31523555,7.2311007 5.97126506,7.2311038 5.75911243,7.44206464 C5.5469598,7.65302548 5.54696292,7.99505747 5.75911939,8.20601449 C6.96276766,9.39799517 8.90906252,9.39799517 10.1127108,8.20601449 L13.0985442,5.20807715 C14.3004853,4.01253013 14.3004853,2.07456808 13.0985442,0.879021052 L13.0985442,0.896382447 Z" id="Path"></path>
                </g>
            </g>
        </g>
    </g>
</svg>