<?xml version="1.0" encoding="UTF-8"?>
<svg width="24px" height="24px" viewBox="0 0 24 24" version="1.1" xmlns="http://www.w3.org/2000/svg" xmlns:xlink="http://www.w3.org/1999/xlink">
    <!-- Generator: Sketch 61.2 (89653) - https://sketch.com -->
    <title>98099F1E-DFDA-4712-8F78-6CABCA2BC1E4</title>
    <desc>Created with Sketch.</desc>
    <g id="Keywords-Search-V2.0" stroke="none" stroke-width="1" fill="none" fill-rule="evenodd">
        <g id="数据管理列表" transform="translate(-1216.000000, -270.000000)">
            <g id="删除" transform="translate(1216.000000, 270.000000)">
                <circle id="Oval" fill="#E6F7FF" cx="12" cy="12" r="12"></circle>
                <g id="删-除" transform="translate(5.000000, 5.000000)" fill="#1890FF" fill-rule="nonzero">
                    <path d="M10.8541952,12.0208014 C10.8541952,12.5002804 10.4740131,12.8905558 10.0069345,12.8905558 L3.90247103,12.8905558 C3.43539241,12.8905558 3.05521034,12.5002804 3.05521034,12.0208014 L3.05521034,2.7881954 L10.8541952,2.7881954 L10.8541952,12.0208014 L10.8541952,12.0208014 Z M4.74971583,1.2271731 C4.74910194,1.17966135 4.76720992,1.13390621 4.79993997,1.10030722 C4.83267002,1.06670824 4.87724183,1.04811951 4.92352483,1.04876602 L8.99677172,1.04876602 C9.04305472,1.04811951 9.08762654,1.06670824 9.12035658,1.10030722 C9.15308663,1.13390621 9.17119462,1.17966135 9.17058072,1.2271731 L9.17058072,1.75121416 L4.74971583,1.75121416 L4.74971583,1.2271731 Z M13.3959772,1.75121416 L10.1808048,1.75121416 L10.1808048,1.2271731 C10.1808048,0.558106903 9.64853448,0.0117847788 8.99684897,0.0117847788 L4.92352483,0.0117847788 C4.27176207,0.0117847788 3.73956897,0.558186195 3.73956897,1.2271731 L3.73956897,1.75121416 L0.513505517,1.75121416 C0.231111034,1.75121416 0.00301724138,1.98536354 0.00301724138,2.27525522 C0.00301724138,2.5651469 0.231111034,2.79929628 0.513505517,2.79929628 L2.03423379,2.79929628 L2.03423379,12.0207221 C2.03423379,13.0799844 2.87060345,13.9386379 3.90254828,13.9386379 L10.0070117,13.9386379 C11.0388793,13.9386379 11.8753262,13.0800637 11.8753262,12.0207221 L11.8753262,2.7881954 L13.3960545,2.7881954 C13.678449,2.7881954 13.9065428,2.55404602 13.9065428,2.26415434 C13.9065428,1.97426265 13.6783717,1.75121416 13.3959772,1.75121416 Z M6.95474138,11.3183537 C7.09018157,11.3185219 7.22012171,11.2633647 7.31589246,11.1650514 C7.41166321,11.066738 7.4653939,10.9333482 7.46523003,10.7943122 L7.46523003,5.21905133 C7.46523003,4.92915965 7.23713586,4.69501027 6.95474138,4.69501027 C6.6723469,4.69501027 6.44425282,4.92915965 6.44425282,5.21905133 L6.44425282,10.7943122 C6.44410943,10.9333417 6.49784672,11.0667193 6.59361301,11.1650281 C6.68937929,11.2633368 6.81930748,11.3185008 6.95474138,11.3183537 M4.57593862,11.3183537 C4.71137881,11.3185219 4.84131896,11.2633647 4.9370897,11.1650514 C5.03286045,11.066738 5.08659114,10.9333482 5.08642727,10.7943122 L5.08642727,5.21905133 C5.08642727,4.92915965 4.8583331,4.69501027 4.57593862,4.69501027 C4.29354414,4.69501027 4.06545034,4.92915965 4.06545034,5.21905133 L4.06545034,10.7943122 C4.07626414,11.0841246 4.30443517,11.3183537 4.57593862,11.3183537 M9.33354414,11.3183537 C9.46898433,11.3185219 9.59892447,11.2633647 9.69469522,11.1650514 C9.79046597,11.066738 9.84419666,10.9333482 9.84403279,10.7943122 L9.84403279,5.21905133 C9.84403279,4.92915965 9.61593862,4.69501027 9.33354414,4.69501027 C9.05114966,4.69501027 8.82305557,4.92915965 8.82305557,5.21905133 L8.82305557,10.7943122 C8.82291219,10.9333417 8.87664948,11.0667193 8.97241577,11.1650281 C9.06818205,11.2633368 9.19811024,11.3185008 9.33354414,11.3183537" id="Shape"></path>
                </g>
            </g>
        </g>
    </g>
</svg>