<?xml version="1.0" encoding="UTF-8"?>
<svg width="24px" height="24px" viewBox="0 0 24 24" version="1.1" xmlns="http://www.w3.org/2000/svg" xmlns:xlink="http://www.w3.org/1999/xlink">
    <!-- Generator: Sketch 63.1 (92452) - https://sketch.com -->
    <title>icon/24px/发布</title>
    <desc>Created with Sketch.</desc>
    <g id="icon/24px/发布" stroke="none" stroke-width="1" fill="none" fill-rule="evenodd">
        <g>
            <circle id="Oval" fill="#E6F7FF" cx="12" cy="12" r="12"></circle>
            <path d="M17.4643934,5.00044981 L17.49315,5.00108764 C17.5080463,5.00204789 17.5228728,5.0036558 17.5375909,5.00589809 C17.5390228,5.00816345 17.5406923,5.00844911 17.5423608,5.00874219 C17.6036932,5.01660856 17.6628326,5.03747017 17.7172525,5.06831722 C17.7197238,5.07140148 17.7223842,5.07288832 17.7250352,5.0743984 C17.7434576,5.08367832 17.761214,5.09562327 17.7783028,5.10867619 C17.7869974,5.11521965 17.7956281,5.12191169 17.8041051,5.12889129 C17.9404025,5.2411217 18.0069282,5.40299678 17.9994706,5.56334478 C18.0000754,5.57607318 17.9997375,5.58832996 17.9990234,5.60054209 L17.994721,5.63364733 L17.994721,5.63364733 L16.1721153,18.5153084 C16.1324015,18.7960783 15.8796972,19.0000252 15.589468,19.0000252 C15.5679187,19.0000252 15.5461817,18.9988955 15.5242879,18.9965968 L15.4706095,19.0000252 L15.4706095,19.0000252 C15.3899656,19.0000252 15.3104021,18.9814253 15.238049,18.9457125 L11.2961231,17.0066652 C11.0338768,16.8776539 10.9255634,16.559899 11.0542072,16.2969209 C11.182851,16.0339593 11.4997747,15.9253505 11.762021,16.0543452 L15.1,17.696 L16.561,7.366 L10,14.79 L10.000035,18.4652659 C10.000035,18.7606034 9.77617561,19.0000252 9.50003499,19.0000252 C9.22389436,19.0000252 9.00003499,18.7606034 9.00003499,18.4652659 L9.00003499,14.5347846 L9.00133674,14.497865 C8.99175737,14.3622909 9.03497046,14.2231383 9.13353641,14.1115926 L14.939,7.54 L5.512,12.551 L7.73884592,13.9271636 C7.9798565,14.0760534 8.07040764,14.421752 7.94108867,14.6992697 C7.85176015,14.8909998 7.68084119,15.0000252 7.50427343,15.0000252 C7.42268866,15.0000252 7.34238096,14.9766945 7.27055214,14.9321472 L4.26122405,13.0728875 C4.07593533,12.9584212 3.97957598,12.7276306 4.00368621,12.5009271 C3.97794152,12.2708571 4.08828678,12.0388024 4.29589417,11.9284638 L16.9658221,5.19366735 C17.0778356,5.07072012 17.2442775,4.99628172 17.4240267,5.00017047 C17.4376423,4.99988934 17.4510219,4.99993829 17.4643934,5.00044981 Z" id="形状结合" fill="#D3D3D3"></path>
        </g>
    </g>
</svg>