<?xml version="1.0" encoding="UTF-8"?>
<svg width="24px" height="24px" viewBox="0 0 24 24" version="1.1" xmlns="http://www.w3.org/2000/svg" xmlns:xlink="http://www.w3.org/1999/xlink">
    <!-- Generator: Sketch 61.2 (89653) - https://sketch.com -->
    <title>B45010A9-073F-4231-8862-0467A5D85BE1</title>
    <desc>Created with Sketch.</desc>
    <g id="Keywords-Search-V2.0" stroke="none" stroke-width="1" fill="none" fill-rule="evenodd">
        <g id="数据管理列表" transform="translate(-1184.000000, -270.000000)">
            <g id="移动" transform="translate(1184.000000, 270.000000)">
                <circle id="Oval" fill="#E6F7FF" cx="12" cy="12" r="12"></circle>
                <g transform="translate(5.000000, 5.000000)" fill="#1890FF" fill-rule="nonzero">
                    <path d="M12.2728758,12.4501634 L1.65849674,12.4501634 C0.743464047,12.4501634 0.0114379142,11.7181373 0.0114379142,10.8031046 L0.0114379142,1.65277777 C0.0114379142,0.737745098 0.743464047,0.00571894853 1.65849674,0.00571894853 L5.79444444,0.00571894853 L6.96568627,1.83578431 L12.2362745,1.83578431 C13.1513072,1.83578431 13.8833333,2.56781046 13.8833333,3.48284314 L13.8833333,10.8031046 C13.9199346,11.7181373 13.1879085,12.4501634 12.2728758,12.4501634 Z M1.65849674,1.10375816 C1.36568627,1.10375816 1.10947713,1.35996731 1.10947713,1.65277777 L1.10947713,10.8031046 C1.10947713,11.095915 1.36568627,11.3521242 1.65849674,11.3521242 L12.2728758,11.3521242 C12.5656863,11.3521242 12.8218954,11.095915 12.8218954,10.8031046 L12.8218954,3.48284314 C12.8218954,3.19003267 12.5656863,2.93382353 12.2728758,2.93382353 L6.38006537,2.93382353 L5.20882353,1.10375816 L1.65849674,1.10375816 Z" id="Shape"></path>
                    <line x1="3.89117647" y1="7.06977125" x2="8.6493464" y2="7.16977125" id="Path"></line>
                    <path d="M8.6493464,7.69199346 L3.89117647,7.61879086 C3.59836601,7.61879086 3.34215686,7.36258171 3.34215686,7.06977125 C3.34215686,6.77696078 3.59836601,6.52075164 3.89117647,6.52075164 L8.6493464,6.59395424 C8.94215686,6.59395424 9.19836601,6.85016339 9.19836601,7.14297385 C9.19836601,7.47238562 8.94215686,7.69199346 8.6493464,7.69199346 Z" id="Path"></path>
                    <path d="M7.22189542,5.05669934 L8.90555556,6.74035948 C9.1251634,6.95996733 9.1251634,7.28937909 8.90555556,7.50898693 L7.22189542,9.19264706 C7.0754902,9.33905228 7.0754902,9.55866012 7.22189542,9.70506537 L7.47810458,9.96127451 C7.6245098,10.1076797 7.84411765,10.1076797 7.99052287,9.96127451 L10.4428105,7.50898693 C10.6624183,7.28937909 10.6624183,6.95996733 10.4428105,6.74035948 L7.99052287,4.28807189 C7.84411765,4.14166667 7.6245098,4.14166667 7.47810458,4.28807189 L7.22189542,4.54428105 C7.0754902,4.69068627 7.0754902,4.91029412 7.22189542,5.05669934 Z" id="Path"></path>
                </g>
            </g>
        </g>
    </g>
</svg>