<?xml version="1.0" encoding="UTF-8"?>
<svg width="24px" height="24px" viewBox="0 0 24 24" version="1.1" xmlns="http://www.w3.org/2000/svg" xmlns:xlink="http://www.w3.org/1999/xlink">
    <!-- Generator: Sketch 61.2 (89653) - https://sketch.com -->
    <title>4BED5E7E-BBF1-40FD-9B42-0B6AF211AC0A</title>
    <desc>Created with Sketch.</desc>
    <g id="Keywords-Search-V2.0" stroke="none" stroke-width="1" fill="none" fill-rule="evenodd">
        <g id="数据管理列表" transform="translate(-1248.000000, -270.000000)">
            <g id="编辑" transform="translate(1248.000000, 270.000000)">
                <circle id="Oval" fill="#E6F7FF" cx="12" cy="12" r="12"></circle>
                <g transform="translate(5.000000, 5.000000)" fill="#1890FF" fill-rule="nonzero" id="fill">
                    <path d="M3.0265625,10.75 C3.0578125,10.75 3.0890625,10.746875 3.1203125,10.7421875 L5.7484375,10.28125 C5.7796875,10.275 5.809375,10.2609375 5.83125,10.2375 L12.4546875,3.6140625 C12.515625,3.553125 12.515625,3.4546875 12.4546875,3.39375 L9.8578125,0.7953125 C9.828125,0.765625 9.7890625,0.75 9.746875,0.75 C9.7046875,0.75 9.665625,0.765625 9.6359375,0.7953125 L3.0125,7.41875 C2.9890625,7.4421875 2.975,7.4703125 2.96875,7.5015625 L2.5078125,10.1296875 C2.478125,10.303125 2.53125,10.471875 2.6546875,10.5953125 C2.7578125,10.6953125 2.8875,10.75 3.0265625,10.75 L3.0265625,10.75 Z M4.0796875,8.025 L9.746875,2.359375 L10.8921875,3.5046875 L5.225,9.1703125 L3.8359375,9.415625 L4.0796875,8.025 L4.0796875,8.025 Z M12.75,12.0625 L1.25,12.0625 C0.9734375,12.0625 0.75,12.2859375 0.75,12.5625 L0.75,13.125 C0.75,13.19375 0.80625,13.25 0.875,13.25 L13.125,13.25 C13.19375,13.25 13.25,13.19375 13.25,13.125 L13.25,12.5625 C13.25,12.2859375 13.0265625,12.0625 12.75,12.0625 Z"></path>
                </g>
            </g>
        </g>
    </g>
</svg>