<?xml version="1.0" encoding="UTF-8"?>
<svg width="12px" height="14px" viewBox="0 0 12 14" version="1.1" xmlns="http://www.w3.org/2000/svg" xmlns:xlink="http://www.w3.org/1999/xlink">
    <!-- Generator: Sketch 61.2 (89653) - https://sketch.com -->
    <title>9D5620D0-7793-439D-AC4B-EC8A677AB1D0</title>
    <desc>Created with Sketch.</desc>
    <g id="Keywords-Search-V2.0" stroke="none" stroke-width="1" fill="none" fill-rule="evenodd">
        <g id="创建数据分析集" transform="translate(-1186.000000, -206.000000)" fill-rule="nonzero">
            <g id="过滤" transform="translate(1185.000000, 206.000000)">
                <rect id="Rectangle" fill="#000000" opacity="0" x="0" y="0" width="14" height="14"></rect>
                <path d="M8.14455469,13.2983867 C8.04867383,13.2983867 7.95436523,13.2672012 7.87636719,13.2055547 L5.4307832,11.260457 C5.3286543,11.1793965 5.26941406,11.054668 5.26941406,10.9237187 L5.26941406,6.79883203 C5.26941406,6.7848457 5.26315234,6.77233594 5.25381445,6.76302539 L1.37369531,2.881375 C1.35810937,2.86578906 1.34331641,2.84936914 1.33080664,2.8322793 C1.11174219,2.60229102 0.995558594,2.31232422 0.995558594,2.00586914 C0.995558594,1.35492383 1.52568555,0.824796875 2.17585156,0.824796875 L11.7961211,0.824796875 C12.4463281,0.824796875 12.9764277,1.35492383 12.9764277,2.00586914 C12.9764277,2.30915234 12.8611191,2.59764258 12.6521582,2.81745898 C12.6443652,2.82841016 12.6280273,2.84783789 12.6170762,2.85720312 L8.58966992,6.88618164 C8.5803457,6.89556055 8.57408398,6.90883594 8.57408398,6.92287695 L8.57408398,12.869623 C8.57408398,13.034916 8.47976172,13.1846367 8.3300957,13.256291 C8.27081445,13.2843457 8.20691211,13.2983867 8.14452734,13.2983867 L8.14452734,13.2983867 L8.14455469,13.2983867 Z M6.12854102,10.7163301 L7.71499805,11.9777793 L7.71499805,6.92204297 C7.71499805,6.67805469 7.80932031,6.45044531 7.98004102,6.278125 L11.9949785,2.2631875 C12.0074473,2.24835352 12.0191777,2.23588477 12.0316738,2.22262305 C12.0846797,2.16644531 12.1165898,2.08777734 12.1165898,2.00588281 C12.1165898,1.82892773 11.9715859,1.68473047 11.7954238,1.68473047 L2.17594727,1.68473047 C1.99901953,1.68473047 1.85478125,1.82973437 1.85478125,2.00588281 C1.85478125,2.08855664 1.88678711,2.16809961 1.94442773,2.2273125 C1.96544141,2.24914648 1.98419922,2.27253906 2.00212305,2.2943457 L5.86193945,6.15491406 C6.03108789,6.3240625 6.1285957,6.55871289 6.1285957,6.79883203 L6.1285957,10.7163574 L6.12854102,10.7163301 Z" id="Shape" fill="#1890FF"></path>
            </g>
        </g>
    </g>
</svg>