<?xml version="1.0" encoding="UTF-8"?>
<svg width="24px" height="24px" viewBox="0 0 24 24" version="1.1" xmlns="http://www.w3.org/2000/svg" xmlns:xlink="http://www.w3.org/1999/xlink">
    <!-- Generator: Sketch 61.2 (89653) - https://sketch.com -->
    <title>62B235D2-D2BE-4E07-B1AC-87BBE21D4997</title>
    <desc>Created with Sketch.</desc>
    <g id="Keywords-Search-V2.0" stroke="none" stroke-width="1" fill="none" fill-rule="evenodd">
        <g id="数据管理列表" transform="translate(-1088.000000, -270.000000)">
            <g id="Group" transform="translate(1088.000000, 270.000000)">
                <circle id="Oval" fill="#E6F7FF" cx="12" cy="12" r="12"></circle>
                <g id="配置" transform="translate(5.000000, 5.000000)" fill="#1890FF" fill-rule="nonzero">
                    <path d="M6.97276334,11.8219763 C6.97276334,12.152649 7.19554524,12.3926746 7.50248956,12.3926746 L13.47029,12.3926746 C13.7772181,12.3926746 14,12.1526656 14,11.8219763 C14,11.491287 13.7772181,11.2512947 13.47029,11.2512947 L7.50248956,11.2512947 C7.19554524,11.2512947 6.97276334,11.4913036 6.97276334,11.8219763 Z M6.97276334,2.17800705 C6.97276334,2.50867974 7.19554524,2.74868866 7.50248956,2.74868866 L13.47029,2.74868866 C13.7772181,2.74868866 14,2.50867974 14,2.17800705 C14,1.84733437 13.7772181,1.60732544 13.47029,1.60732544 L7.50248956,1.60732544 C7.19554524,1.60732544 6.97276334,1.84733437 6.97276334,2.17800705 Z M7.00659397,7 C7.00659397,6.66932731 6.78447796,6.42931839 6.47842691,6.42931839 L0.528150812,6.42931839 C0.222116009,6.42931839 0,6.66932731 0,7 C0,7.33067269 0.222116009,7.57068161 0.528150812,7.57068161 L6.47842691,7.57068161 C6.78447796,7.57068161 7.00659397,7.33067269 7.00659397,7 L7.00659397,7 Z M6.30086079,11.8219763 C6.30086079,10.6210179 5.34574246,9.64396928 4.17174014,9.64396928 C3.21027146,9.64396928 2.37889559,10.3084381 2.12345244,11.2512947 L0.557856148,11.2512947 C0.234605568,11.2512947 0,11.4913036 0,11.8219763 C0,12.152649 0.234605568,12.3926746 0.55787239,12.3926746 L2.12346868,12.3926746 C2.37892807,13.3355312 3.2102877,14 4.17175638,14 C5.3457587,14 6.30086079,13.0229347 6.30086079,11.8219763 Z M4.17174014,12.8586202 C3.61295824,12.8586202 3.15834803,12.3935883 3.15834803,11.8219597 C3.15834803,11.2503643 3.612942,10.7853159 4.17174014,10.7853159 C4.73053828,10.7853159 5.18513225,11.2503477 5.18513225,11.8219597 C5.18513225,12.3935883 4.73053828,12.8586202 4.17174014,12.8586202 Z M6.30086079,2.17800705 C6.30086079,0.977048651 5.34574246,0 4.17174014,0 C3.21027146,0 2.37889559,0.664468844 2.12345244,1.60732544 L0.557856148,1.60732544 C0.234605568,1.60732544 0,1.84733437 0,2.17800705 C0,2.50867974 0.234605568,2.74868866 0.55787239,2.74868866 L2.12346868,2.74868866 C2.37892807,3.69154526 3.2102877,4.35601411 4.17175638,4.35601411 C5.3457587,4.35601411 6.30086079,3.37896546 6.30086079,2.17800705 L6.30086079,2.17800705 Z M4.17174014,3.2146675 C3.61295824,3.2146675 3.15834803,2.74963567 3.15834803,2.17800705 C3.15834803,1.60639505 3.612942,1.14136322 4.17174014,1.14136322 C4.73053828,1.14136322 5.18513225,1.60639505 5.18513225,2.17800705 C5.18513225,2.74961906 4.73053828,3.2146675 4.17174014,3.2146675 Z M11.8765313,7.57068161 L13.4421276,7.57068161 C13.7653782,7.57068161 14,7.33067269 14,7 C14,6.66932731 13.7653782,6.42931839 13.4421276,6.42931839 L11.8765313,6.42931839 C11.6210882,5.48646179 10.7897123,4.82199295 9.82824362,4.82199295 C8.6542413,4.82199295 7.69912297,5.7990416 7.69912297,7 C7.69912297,8.2009584 8.6542413,9.17800705 9.82824362,9.17800705 C10.7897285,9.17800705 11.6210882,8.51353821 11.8765313,7.57068161 Z M9.82825986,8.03664383 C9.26947796,8.03664383 8.81486775,7.57161201 8.81486775,7 C8.81486775,6.42838799 9.26947796,5.96333955 9.82825986,5.96333955 C10.3870418,5.96333955 10.8416357,6.42838799 10.8416357,7 C10.8416357,7.57161201 10.3870255,8.03664383 9.82825986,8.03664383 Z" id="Shape"></path>
                </g>
            </g>
        </g>
    </g>
</svg>