<?xml version="1.0" encoding="UTF-8"?>
<svg width="24px" height="24px" viewBox="0 0 24 24" version="1.1" xmlns="http://www.w3.org/2000/svg" xmlns:xlink="http://www.w3.org/1999/xlink">
    <!-- Generator: Sketch 61.2 (89653) - https://sketch.com -->
    <title>7D41F925-7716-4008-A4C1-45EF3C318F7F</title>
    <desc>Created with Sketch.</desc>
    <g id="Keywords-Search-V2.0" stroke="none" stroke-width="1" fill="none" fill-rule="evenodd">
        <g id="数据管理列表" transform="translate(-1152.000000, -270.000000)">
            <g id="预览" transform="translate(1152.000000, 270.000000)">
                <circle id="Oval" fill="#E6F7FF" cx="12" cy="12" r="12"></circle>
                <g transform="translate(5.000000, 5.000000)" fill="#1890FF" fill-rule="nonzero">
                    <path d="M13.9371111,1.8396875 C13.9358866,0.824155853 13.0998734,0.00120538008 12.0682222,0 L1.87622222,0 C0.844571025,0.00120538008 0.00855784643,0.824155853 0.00733333333,1.8396875 L0.00733333333,12.137125 C0.00855784643,13.1526566 0.844571025,13.9756071 1.87622222,13.9768125 L10.5695556,13.9768125 C10.8518344,13.9768125 11.0806667,13.7515558 11.0806667,13.4736875 C11.0806667,13.1958192 10.8518344,12.9705625 10.5695556,12.9705625 L1.87622222,12.9705625 C1.40857876,12.9700802 1.02960105,12.597024 1.02911111,12.1366875 L1.02911111,1.8396875 C1.02911111,1.379875 1.40911111,1.0058125 1.87622222,1.0058125 L12.0682222,1.0058125 C12.5353333,1.0058125 12.9153333,1.379875 12.9153333,1.8396875 L12.9153333,10.6185625 C12.9234833,10.8905358 13.1498117,11.1068528 13.4262222,11.1068528 C13.7026328,11.1068528 13.9289611,10.8905358 13.9371111,10.6185625 L13.9371111,1.8396875 Z" id="Path"></path>
                    <path d="M10.1224444,9.3043125 C10.6961088,8.59333572 11.0072019,7.71151008 11.0046667,6.8035625 C11.0076618,5.73326944 10.575557,4.70627803 9.80466667,3.9515 C9.03787991,3.1926961 7.99460539,2.76735049 6.90733333,2.77023477 C5.82005149,2.76730169 4.77675863,3.19265478 4.01,3.9515 C3.23915159,4.70630571 2.80705446,5.73327907 2.80998504,6.8035625 C2.80998504,7.881125 3.23622222,8.8939375 4.01,9.655625 C4.77678676,10.4144289 5.82006128,10.8397745 6.90733333,10.836875 C7.80645822,10.8391814 8.68103785,10.5482613 9.39444444,10.0095625 L12.1446667,12.7168125 C12.2403964,12.8113353 12.37041,12.8644621 12.506,12.8644621 C12.64159,12.8644621 12.7716036,12.8113353 12.8673333,12.7168125 C13.0668323,12.5203473 13.0668323,12.2019027 12.8673333,12.0054375 L10.1224444,9.3043125 Z M3.83133333,6.8035625 C3.83133333,5.1340625 5.21088889,3.775625 6.90688889,3.775625 C8.60288889,3.775625 9.98288889,5.1340625 9.98288889,6.8035625 C9.98288889,8.4730625 8.60288889,9.8315 6.90688889,9.8315 C5.21088889,9.8315 3.83133333,8.4730625 3.83133333,6.8035625 Z" id="Shape"></path>
                </g>
            </g>
        </g>
    </g>
</svg>