<?xml version="1.0" encoding="UTF-8"?>
<svg width="200px" height="45px" viewBox="0 0 200 45" version="1.1" xmlns="http://www.w3.org/2000/svg" xmlns:xlink="http://www.w3.org/1999/xlink">
    <title>量之LOGO</title>
    <g id="中泰logo" stroke="none" stroke-width="1" fill="none" fill-rule="evenodd">
        <g id="中泰LOGO_导航" transform="translate(0.000000, -70.000000)">
            <g id="量之LOGO" transform="translate(0.000000, 70.000000)">
                <rect id="Rectangle-Copy-2" fill="#1F67DD" opacity="0" x="0" y="0" width="200" height="45"></rect>
                <path d="M32.1093846,34.7394554 L29.5635385,31.8518407 C28.7641538,30.9453794 28.7636923,29.5856875 29.5626154,28.6785339 L33.1794615,24.5710734 C33.5789231,24.1178427 33.5786923,23.4379968 33.179,22.9845353 L28.6215385,17.8153059 C28.4791538,17.6537675 28.5938462,17.3999214 28.8089231,17.3999214 L31.6598462,17.3999214 C31.9963077,17.3999214 32.3173077,17.5413829 32.5448462,17.7894598 L36.5429231,22.1542279 C37.3829231,23.0710738 37.3833846,24.4778426 36.5440769,25.3953809 L32.8328462,29.4520721 C32.4130769,29.9106105 32.4133077,30.6139949 32.8333077,31.0723025 L35.7105385,34.2135324 C35.7917692,34.301917 35.9182308,34.334917 36.0313077,34.2945324 C40.6734615,32.637379 44,28.2114571 44,23 C44,17.8095367 40.6997692,13.3993071 36.0866923,11.7266921 C35.9731538,11.6856152 35.8455385,11.7183844 35.7643077,11.8074613 L33.9368462,13.8091531 C33.7095385,14.0581531 33.3878462,14.2000761 33.0506923,14.2000761 L30.0975385,14.2000761 C29.9256154,14.2000761 29.834,13.99723 29.9475385,13.8679993 L32.2316923,11.2683845 C32.3196154,11.1684615 32.2538462,11.0094615 32.1206923,11.0032308 C32.0807692,11.0011538 32.0406154,11 32,11 L31.9960769,11 C25.3702308,11.0020769 20,16.3741524 20,23 L20,23.3932275 C20,29.9948412 25.4085385,35.0064553 31.997,35 C32.1294615,34.9956091 32.1970769,34.8391476 32.1093846,34.7394554" id="Fill-1" fill="#FFFFFF"></path>
                <text id="数据运营平台" font-family="PingFangSC-Regular, PingFang SC" font-size="16" font-weight="normal" line-spacing="24" letter-spacing="4" fill="#FFFFFF">
                    <tspan x="56" y="28">数据运营平台</tspan>
                </text>
            </g>
        </g>
    </g>
</svg>