<?xml version="1.0" encoding="utf-8"?>
<!-- Generator: Adobe Illustrator 22.1.0, SVG Export Plug-In . SVG Version: 6.00 Build 0)  -->
<svg version="1.1" id="图层_1" xmlns="http://www.w3.org/2000/svg" xmlns:xlink="http://www.w3.org/1999/xlink" x="0px" y="0px"
	 viewBox="0 0 20 20" style="enable-background:new 0 0 20 20;" xml:space="preserve">
<style type="text/css">
	.st0{fill:none;}
	.st1{fill:#8AD6E6;}
</style>
<title>20px/Edit</title>
<desc>Created with Sketch.</desc>
<g id="主导航修改2">
	<g id="首页" transform="translate(-240.000000, -733.000000)">
		<g id="代码值" transform="translate(230.000000, 721.000000)">
			<g id="_x32_0px_x2F_Data_x2F_Code_x5F_value" transform="translate(10.000000, 10.000000)">
				<rect id="box_20" y="2" class="st0" width="20" height="20"/>
				<path id="形状结合" class="st1" d="M19,4c0.6,0,1,0.4,1,1v14c0,0.6-0.4,1-1,1H1c-0.6,0-1-0.4-1-1V5c0-0.6,0.4-1,1-1H19z
					 M1,5v14h18V5H1z M5.2,8v8H3.6V9.5l-0.1,0c-0.1,0-0.1,0-0.2,0.1C3.2,9.6,3.1,9.6,3,9.6l0,0V8.7l0.1,0c0.1,0,0.2-0.1,0.4-0.1
					C3.7,8.5,3.8,8.4,4,8.4c0.2-0.1,0.4-0.1,0.6-0.2C4.8,8.1,5,8,5.2,8L5.2,8z M8.9,8c0.5,0,0.8,0.1,1.2,0.2s0.6,0.3,0.8,0.6
					s0.4,0.5,0.5,0.8s0.2,0.6,0.2,0.9c0,0.1,0,0.2,0,0.3s0,0.2-0.1,0.3c0,0.1-0.1,0.2-0.1,0.3c0,0.1-0.1,0.2-0.1,0.2
					c-0.2,0.2-0.3,0.5-0.6,0.8c-0.2,0.3-0.5,0.6-0.7,0.9c-0.2,0.3-0.5,0.6-0.7,1l0,0L9,14.7c-0.1,0.1-0.2,0.3-0.3,0.4l0,0h2.8V16
					H6.2v-0.6l0.1-0.1c0.1-0.1,0.2-0.3,0.4-0.4c0.2-0.2,0.4-0.5,0.6-0.8s0.5-0.6,0.7-0.9c0.3-0.3,0.5-0.6,0.8-1s0.5-0.6,0.7-0.9
					c0.2-0.3,0.4-0.6,0.6-0.8c0.1-0.1,0.2-0.3,0.3-0.4c0.1-0.1,0.1-0.3,0.1-0.4C10.3,9.4,10,9.3,9.8,9.1C9.5,9,9.2,8.9,8.9,8.9
					C8.6,8.9,8.3,9,8,9.1C7.7,9.3,7.5,9.5,7.3,9.8c0,0,0,0-0.1-0.1l0,0L7.1,9.6L6.9,9.4l0,0L6.8,9.3C6.7,9.2,6.6,9.2,6.6,9.2
					c0.2-0.4,0.6-0.7,1-0.9C8,8.1,8.4,8,8.9,8z M14.8,8c0.3,0,0.6,0.1,0.9,0.2s0.5,0.3,0.7,0.5c0.2,0.2,0.4,0.5,0.5,0.8
					c0.1,0.3,0.2,0.6,0.2,1c0,0.3,0,0.6-0.1,0.8c-0.1,0.3-0.2,0.5-0.3,0.7c0.1,0.2,0.2,0.4,0.3,0.7c0.1,0.2,0.1,0.5,0.1,0.8
					c0,0.3-0.1,0.7-0.2,1c-0.1,0.3-0.3,0.6-0.5,0.8c-0.2,0.2-0.4,0.4-0.7,0.5c-0.3,0.1-0.6,0.2-0.9,0.2c-0.2,0-0.5,0-0.7-0.1
					c-0.2-0.1-0.4-0.2-0.6-0.3c-0.2-0.1-0.3-0.3-0.5-0.5c-0.1-0.2-0.2-0.4-0.3-0.6l0,0l0.7-0.4l0.1,0.2c0.1,0.2,0.2,0.4,0.3,0.5
					c0.2,0.2,0.3,0.3,0.5,0.4c0.2,0.1,0.4,0.1,0.6,0c0.2,0,0.4-0.1,0.6-0.3l0,0v-2.4h-1.6v-0.9h1.6V9.2l-0.1-0.1
					C15.3,9.1,15.2,9,15.1,9c-0.2-0.1-0.3-0.1-0.5,0c-0.2,0-0.4,0.1-0.5,0.2c-0.2,0.1-0.3,0.3-0.5,0.5l0,0l-0.6-0.5L13,9
					c0.2-0.3,0.4-0.5,0.7-0.7C14,8.1,14.4,8,14.8,8z"/>
			</g>
		</g>
	</g>
</g>
</svg>
