<?xml version="1.0" encoding="utf-8"?>
<!-- Generator: Adobe Illustrator 22.1.0, SVG Export Plug-In . SVG Version: 6.00 Build 0)  -->
<svg version="1.1" id="图层_1" xmlns="http://www.w3.org/2000/svg" xmlns:xlink="http://www.w3.org/1999/xlink" x="0px" y="0px"
	 viewBox="0 0 20 20" style="enable-background:new 0 0 20 20;" xml:space="preserve">
<style type="text/css">
	.st0{fill:none;}
	.st1{fill:#B1D962;}
</style>
<title>20px/table_system</title>
<desc>Created with Sketch.</desc>
<g id="主导航修改2">
	<g id="首页" transform="translate(-1137.000000, -513.000000)">
		<g id="代码项" transform="translate(1127.000000, 501.000000)">
			<g id="_x32_0px_x2F_Data_x2F_Code_x5F_item" transform="translate(10.000000, 10.000000)">
				<rect id="box_20" y="2" class="st0" width="20" height="20"/>
				<path id="形状结合" class="st1" d="M19,4c0.6,0,1,0.4,1,1v14c0,0.6-0.4,1-1,1H1c-0.6,0-1-0.4-1-1V5c0-0.6,0.4-1,1-1H19z
					 M1,5v14h18V5H1z M12,8l-2.5,8H8l2.5-8H12z M15.3,8l2.3,3.1l0.1,0.1c0.2,0.3,0.3,0.5,0.3,0.8c0,0.3-0.1,0.6-0.3,0.8l0,0L15.3,16
					H14l2.6-3.4l0.1-0.1c0.1-0.1,0.1-0.3,0.1-0.4c0-0.2,0-0.3-0.1-0.4l0,0L14,8H15.3z M6,8l-2.7,3.7l-0.1,0.1c0,0.1-0.1,0.2-0.1,0.3
					c0,0.2,0.1,0.3,0.2,0.5l0,0L6,16H4.7l-2.4-3.2l-0.1-0.1C2.1,12.5,2,12.3,2,12c0-0.3,0.1-0.6,0.4-0.9l0,0L4.7,8H6z"/>
			</g>
		</g>
	</g>
</g>
</svg>
