<?xml version="1.0" encoding="UTF-8"?>
<svg width="20px" height="20px" viewBox="0 0 20 20" version="1.1" xmlns="http://www.w3.org/2000/svg" xmlns:xlink="http://www.w3.org/1999/xlink">
    <title>20px/Data/DB</title>
    <g id="20px/Data/DB" stroke="none" stroke-width="1" fill="none" fill-rule="evenodd">
        <rect id="box_20" x="0" y="0" width="20" height="20"></rect>
        <path d="M10,0 C14.3178626,0 17.8367623,1.28278744 17.994482,2.88753087 L18,3 L18,16.6 C18,18.5994036 14.3955239,20 10,20 C5.70215442,20 2.16058958,18.6609606 2.00530909,16.7323977 L2,16.6 L2,3 C2,1.34314575 5.581722,0 10,0 Z M10,15.5 C7.00074588,15.5 4.36979706,14.8287143 3.00096044,13.7483578 L3,16.6 C3,17.8196275 6.11125265,19.0285714 10,19.0285714 C13.7915287,19.0285714 16.8439514,17.8793191 16.9942029,16.6914333 L17,16.6 L17.0010664,13.7467571 C15.6328011,14.8280512 13.0007351,15.5 10,15.5 Z M10,11 C7.00074588,11 4.36979706,10.3287143 3.00096044,9.2483578 L3,12 C3,13.2554989 6.11125265,14.5 10,14.5 C13.7915287,14.5 16.8439514,13.3169462 16.9942029,12.0941225 L17,12 L17.0010664,9.24675711 C15.6328011,10.3280512 13.0007351,11 10,11 Z M10,6 C6.98824989,6 4.36521077,5.37589892 3.00037604,4.45375679 L3,7.5 C3,8.75549894 6.11125265,10 10,10 C13.7915287,10 16.8439514,8.81694618 16.9942029,7.59412253 L17,7.5 L17.0005919,4.45310259 C15.6360297,5.37560373 13.0124623,6 10,6 Z M10,1 C6.10127922,1 3,2.16297971 3,3 C3,3.83702029 6.10127922,5 10,5 C13.8987208,5 17,3.83702029 17,3 C17,2.16297971 13.8987208,1 10,1 Z" id="Combined-Shape" fill="#7171CC"></path>
    </g>
</svg>