<?xml version="1.0" encoding="UTF-8"?>
<svg width="24px" height="24px" viewBox="0 0 24 24" version="1.1" xmlns="http://www.w3.org/2000/svg" xmlns:xlink="http://www.w3.org/1999/xlink">
    <!-- Generator: Sketch 63.1 (92452) - https://sketch.com -->
    <title>logo</title>
    <desc>Created with Sketch.</desc>
    <g id="主导航修改2" stroke="none" stroke-width="1" fill="none" fill-rule="evenodd">
        <g id="首页" transform="translate(-20.000000, -12.000000)" fill="#FFFFFF">
            <g id="Main-menu">
                <path d="M32.10845,35.7493854 L29.56445,32.8606222 C28.76495,31.9542258 28.76495,30.5931306 29.56295,29.6867342 L33.17945,25.5779375 C33.57845,25.1232387 33.57845,24.4434414 33.17945,23.9902432 L28.54745,18.7349451 C28.43495,18.6058887 28.52495,18.4017994 28.69895,18.4017994 L31.61645,18.4017994 C31.98095,18.4017994 32.32745,18.5548664 32.57495,18.8249845 L36.54245,23.1588797 C37.38395,24.0772813 37.38395,25.4833962 36.54395,26.4017978 L32.83145,30.4595722 C32.41295,30.918773 32.41295,31.6225808 32.83295,32.0817816 L35.70995,35.2241557 C35.79095,35.3111938 35.91845,35.3442082 36.03095,35.3051911 C40.67345,33.646966 44.00045,29.2185295 44.00045,24.0052498 C44.00045,18.8129793 40.70045,14.3995493 36.08645,12.7278183 C35.97245,12.6857999 35.84495,12.7188143 35.76545,12.807353 L33.93695,14.8107291 C33.70895,15.059838 33.38795,15.2008997 33.05045,15.2008997 L30.09695,15.2008997 C29.92595,15.2008997 29.83295,14.9983111 29.94845,14.8692547 L32.24495,12.2536109 C32.32745,12.1590696 32.26595,12.0105046 32.13995,12.004502 C32.09345,12.0015007 32.04695,12 32.00045,12 C25.37195,12.0015007 20.00045,17.3783519 20.00045,24.0097518 C20.00045,30.635149 25.37345,36.0059976 31.99595,36 C32.12645,36 32.19545,35.846928 32.10845,35.7493854" id="logo"></path>
            </g>
        </g>
    </g>
</svg>