<?xml version="1.0" encoding="UTF-8"?>
<svg width="12px" height="12px" viewBox="0 0 12 12" version="1.1" xmlns="http://www.w3.org/2000/svg" xmlns:xlink="http://www.w3.org/1999/xlink">
    <!-- Generator: Sketch 63.1 (92452) - https://sketch.com -->
    <title>12px/User/Message</title>
    <desc>Created with Sketch.</desc>
    <g id="12px/User/Message" stroke="none" stroke-width="1" fill="none" fill-rule="evenodd">
        <rect id="box_20" x="0" y="0" width="12" height="12"></rect>
        <path d="M5.5758,11.8242 L3.3516,9.6 L0.6,9.6 C0.26862915,9.6 0,9.33137085 0,9 L0,0.6 C0,0.26862915 0.26862915,0 0.6,0 L11.4,0 C11.7313708,0 12,0.26862915 12,0.6 L12,9 C12,9.33137085 11.7313708,9.6 11.4,9.6 L8.6484,9.6 L6.4242,11.8242 C6.18990009,12.0584292 5.81009991,12.0584292 5.5758,11.8242 L5.5758,11.8242 Z M1.2,8.4 L3.6,8.4 C3.75911689,8.40003398 3.91170436,8.46327038 4.0242,8.5758 L6,10.5516 L7.9758,8.5758 C8.08829564,8.46327038 8.24088311,8.40003398 8.4,8.4 L10.8,8.4 L10.8,1.2 L1.2,1.2 L1.2,8.4 Z M8.4,4.2 L3.6,4.2 C3.26862915,4.2 3,3.93137085 3,3.6 C3,3.26862915 3.26862915,3 3.6,3 L8.4,3 C8.73137085,3 9,3.26862915 9,3.6 C9,3.93137085 8.73137085,4.2 8.4,4.2 L8.4,4.2 Z M8.4,6.6 L3.6,6.6 C3.26862916,6.6 3.00000003,6.33137084 3.00000003,6 C3.00000003,5.66862916 3.26862916,5.4 3.6,5.4 L8.4,5.4 C8.73137085,5.4 9.00000003,5.66862915 9.00000003,6 C9.00000003,6.33137085 8.73137085,6.6 8.4,6.6 L8.4,6.6 Z" id="形状" fill="#555555"></path>
    </g>
</svg>