<?xml version="1.0" encoding="UTF-8"?>
<svg width="12px" height="12px" viewBox="0 0 12 12" version="1.1" xmlns="http://www.w3.org/2000/svg" xmlns:xlink="http://www.w3.org/1999/xlink">
    <!-- Generator: Sketch 63.1 (92452) - https://sketch.com -->
    <title>12px/User/Password</title>
    <desc>Created with Sketch.</desc>
    <g id="12px/User/Password" stroke="none" stroke-width="1" fill="none" fill-rule="evenodd">
        <rect id="box_20" x="0" y="0" width="12" height="12"></rect>
        <path d="M5.98355263,0.0109649123 C7.00811404,0.0109649123 7.97653509,0.417982456 8.71337719,1.14780702 C9.37302632,1.80745614 9.76600877,2.65657895 9.83618421,3.56885965 L9.83618421,3.56885965 L10.0046053,3.56885965 C11.085307,3.56885965 11.9695175,4.44605263 11.9695175,5.53377193 L11.9695175,5.53377193 L11.9695175,10.0109649 C11.9695175,11.0916667 11.085307,11.9758772 10.0046053,11.9758772 L10.0046053,11.9758772 L1.96951754,11.9758772 C0.888815789,11.9758772 0.00460526316,11.0916667 0.00460526316,10.0109649 L0.00460526316,10.0109649 L0.00460526316,5.52675439 C0.00460526316,4.44605263 0.888815789,3.56184211 1.96951754,3.56184211 L1.96951754,3.56184211 L2.1379386,3.56184211 C2.29232456,1.58289474 3.95548246,0.0109649123 5.98355263,0.0109649123 Z M10.0116228,4.69166667 L1.96951754,4.69166667 C1.50635965,4.69166667 1.12741228,5.07061404 1.12741228,5.53377193 L1.12741228,5.53377193 L1.12741228,10.0109649 C1.12741228,10.4741228 1.50635965,10.8530702 1.96951754,10.8530702 L1.96951754,10.8530702 L10.0046053,10.8530702 C10.4677632,10.8530702 10.8467105,10.4741228 10.8467105,10.0109649 L10.8467105,10.0109649 L10.8537281,10.0109649 L10.8537281,5.53377193 C10.8537281,5.07061404 10.4747807,4.69166667 10.0116228,4.69166667 L10.0116228,4.69166667 Z M5.98355263,5.91973684 C6.29232456,5.91973684 6.54495614,6.17236842 6.54495614,6.48114035 L6.54495614,6.48114035 L6.54495614,8.65657895 C6.54495614,8.96535088 6.29232456,9.21798246 5.98355263,9.21798246 C5.6747807,9.21798246 5.42214912,8.96535088 5.42214912,8.65657895 L5.42214912,8.65657895 L5.42214912,6.48114035 C5.42214912,6.17236842 5.6747807,5.91973684 5.98355263,5.91973684 Z M5.98355263,1.13377193 C4.58004386,1.13377193 3.41513158,2.2004386 3.26074561,3.56885965 L3.26074561,3.56885965 L8.69934211,3.56885965 C8.63618421,2.95833333 8.3625,2.38991228 7.91337719,1.94078947 C7.39407895,1.42149123 6.71337719,1.13377193 5.98355263,1.13377193 Z" id="形状结合" fill="#555555"></path>
    </g>
</svg>