<?xml version="1.0" encoding="utf-8"?>
<!-- Generator: Adobe Illustrator 22.1.0, SVG Export Plug-In . SVG Version: 6.00 Build 0)  -->
<svg version="1.1" id="图层_1" xmlns="http://www.w3.org/2000/svg" xmlns:xlink="http://www.w3.org/1999/xlink" x="0px" y="0px"
	 viewBox="0 0 20 20" style="enable-background:new 0 0 20 20;" xml:space="preserve">
<style type="text/css">
	.st0{fill:none;}
	.st1{fill:#CECECE;}
</style>
<title>20px/search</title>
<desc>Created with Sketch.</desc>
<g id="主导航修改2">
	<g id="导航_搜索栏" transform="translate(-1370.000000, -55.000000)">
		<g id="Search-open" transform="translate(1117.000000, 48.000000)">
			<g id="_x32_0px_x2F_search" transform="translate(252.000000, 6.000000)">
				<rect id="box_20" x="0.5" y="0.5" class="st0" width="20" height="20"/>
				<path id="icon_x2F_放大镜" class="st1" d="M9,1.5c4.1,0,7.5,3.4,7.5,7.5c0,1.8-0.7,3.5-1.7,4.8l4.8,4.8
					c0.2,0.2,0.3,0.5,0.2,0.8c-0.1,0.3-0.4,0.4-0.6,0.4c-0.2,0-0.4-0.1-0.5-0.2l-4.8-4.8c-1.3,1.1-3,1.7-4.8,1.7
					c-4.1,0-7.5-3.4-7.5-7.5S4.9,1.5,9,1.5z M9,2.8C5.6,2.8,2.8,5.6,2.8,9s2.8,6.2,6.2,6.2s6.2-2.8,6.2-6.2C15.2,5.6,12.4,2.8,9,2.8
					z"/>
			</g>
		</g>
	</g>
</g>
</svg>
