<?xml version="1.0" encoding="UTF-8"?>
<svg width="20px" height="20px" viewBox="0 0 20 20" version="1.1" xmlns="http://www.w3.org/2000/svg" xmlns:xlink="http://www.w3.org/1999/xlink">
    <title>20px/Data/storage</title>
    <g id="20px/Data/storage" stroke="none" stroke-width="1" fill="none" fill-rule="evenodd">
        <rect id="box_20" x="0" y="0" width="20" height="20"></rect>
        <path d="M12.1715729,1 C12.9672223,1 13.7302841,1.31607052 14.2928932,1.87867966 L14.2928932,1.87867966 L18.1213203,5.70710678 C18.6839295,6.26971592 19,7.03277766 19,7.82842712 L19,7.82842712 L19,18 C19,18.5522847 18.5522847,19 18,19 L18,19 L2,19 C1.44771525,19 1,18.5522847 1,18 L1,18 L1,2 C1,1.44771525 1.44771525,1 2,1 L2,1 Z M12.1715729,2 L2,2 L2,18 L5,18 L5,12 L15,12 L15,18 L18,18 L18,7.82842712 L17.9922594,7.65257428 C17.9511456,7.18659778 17.7476116,6.74761157 17.4142136,6.41421356 L17.4142136,6.41421356 L13.5857864,2.58578644 L13.4559662,2.46691315 C13.0973993,2.16648982 12.6430689,2 12.1715729,2 L12.1715729,2 Z M14,13 L6,13 L6,18 L14,18 L14,13 Z M7,5 L7,9 L5,9 L5,5 L7,5 Z" id="Combined-Shape" fill="#7EB2E6"></path>
    </g>
</svg>