<?xml version="1.0" encoding="utf-8"?>
<!-- Generator: Adobe Illustrator 22.1.0, SVG Export Plug-In . SVG Version: 6.00 Build 0)  -->
<svg version="1.1" id="图层_1" xmlns="http://www.w3.org/2000/svg" xmlns:xlink="http://www.w3.org/1999/xlink" x="0px" y="0px"
	 viewBox="0 0 20 20" style="enable-background:new 0 0 20 20;" xml:space="preserve">
<style type="text/css">
	.st0{fill:none;}
	.st1{fill:#FAAF64;}
</style>
<title>20px/table_process</title>
<desc>Created with Sketch.</desc>
<g id="主导航修改2">
	<g id="首页" transform="translate(-540.000000, -512.000000)">
		<g id="数据表" transform="translate(529.000000, 501.000000)">
			<g id="_x32_0px_x2F_Data_x2F_Table" transform="translate(10.000000, 10.000000)">
				<rect id="box_20" x="1" y="1" class="st0" width="20" height="20"/>
				<path id="形状结合" class="st1" d="M18.9,2C19.5,2,20,2.4,20,2.9v16.2c0,0.5-0.5,0.9-1.1,0.9H3.1C2.5,20,2,19.6,2,19.1V2.9
					C2,2.4,2.5,2,3.1,2H18.9z M8,8H3v11h5v-5H4v-1h4V8z M13,14H9v5h4L13,14z M9,8v5h4l0-5H9z M19,3H3v4h16V3z M14,13h4v1h-4l0,5h5V8
					h-5L14,13z"/>
			</g>
		</g>
	</g>
</g>
</svg>
