<?xml version="1.0" encoding="utf-8"?>
<!-- Generator: Adobe Illustrator 16.0.0, SVG Export Plug-In . SVG Version: 6.00 Build 0)  -->
<!DOCTYPE svg PUBLIC "-//W3C//DTD SVG 1.1//EN" "http://www.w3.org/Graphics/SVG/1.1/DTD/svg11.dtd">
<svg version="1.1" id="图层_1" xmlns="http://www.w3.org/2000/svg" xmlns:xlink="http://www.w3.org/1999/xlink" x="0px" y="0px"
	 width="20px" height="20px" viewBox="0 0 20 20" enable-background="new 0 0 20 20" xml:space="preserve">
<g id="Keywords-Search">
	<g id="结果---图" transform="translate(-1247.000000, -300.000000)">
		<g id="图表" transform="translate(1245.000000, 298.000000)">
			<g id="Shape" transform="translate(2.250000, 2.250000)">
				<path d="M16.124,4.444l-3.862,4.333L7.627,5.334L2.772,9.777L2,8.889l5.517-5.111l4.635,3.445L15.131,4l-1.213-0.778L17.007,2
					l0.441,3.444C17.448,5.334,16.124,4.444,16.124,4.444z M2,16.334h16V18H2V16.334z M2.772,10.777h2.097v4.111H2.772V10.777
					L2.772,10.777z M6.524,8h2.097v6.666H6.524V8L6.524,8z M10.607,10h2.096v4.666h-2.096V10z M14.579,8h2.097v6.666h-2.097V8z"/>
			</g>
			<rect id="Rectangle" x="2" y="2" fill="none" width="20" height="20"/>
		</g>
	</g>
</g>
</svg>
