<?xml version="1.0" encoding="UTF-8"?>
<svg width="16px" height="16px" viewBox="0 0 16 16" version="1.1" xmlns="http://www.w3.org/2000/svg" xmlns:xlink="http://www.w3.org/1999/xlink">
    <!-- Generator: Sketch 59 (86127) - https://sketch.com -->
    <title>A72C5BC9-4752-471F-B717-4BC303D8C31B</title>
    <desc>Created with Sketch.</desc>
    <g id="Keywords-Search-V2.0" stroke="none" stroke-width="1" fill="none" fill-rule="evenodd">
        <g id="结果页加入看板" transform="translate(-1257.000000, -300.000000)" fill="#000000">
            <g id="icon---看板" transform="translate(1257.000000, 300.000000)">
                <g id="看板">
                    <path d="M15.542,0 C15.791,0 16,0.20399993 16,0.446999847 L16,15.5529947 C15.9945537,15.8018643 15.7909286,16.0005988 15.542,16 L0.458,16 C0.209071434,16.0005988 0.00544629715,15.8018643 0,15.5529947 L0,0.446999847 C0,0.20399993 0.209,0 0.458,0 L15.542,0 Z M13.798,14.534995 C14.048,14.534995 14.256,14.3309951 14.256,14.0879952 L14.256,1.91999934 C14.2505537,1.67112972 14.0469286,1.47239521 13.798,1.47299812 L2.202,1.47299812 C1.95307143,1.47239521 1.7494463,1.67112972 1.744,1.91999934 L1.744,14.0879952 C1.744,14.3309951 1.953,14.534995 2.202,14.534995 L13.798,14.534995 Z M9.12,5.87499799 L12.674,5.87499799 C12.784,5.87499799 12.874,5.96499796 12.874,6.07499793 L12.874,8.13699722 C12.874,8.24745414 12.7844569,8.33699715 12.674,8.33699715 L9.12,8.33699715 C9.00954305,8.33699715 8.92,8.24745414 8.92,8.13699722 L8.92,6.07499793 C8.92,5.96499796 9.01,5.87499799 9.12,5.87499799 Z M9.12,2.49999915 L12.674,2.49999915 C12.784,2.49999915 12.874,2.58999912 12.874,2.69999908 L12.874,4.85899834 C12.874,4.96945525 12.7844569,5.05899827 12.674,5.05899827 L9.12,5.05899827 C9.00954305,5.05899827 8.92,4.96945525 8.92,4.85899834 L8.92,2.69999908 C8.92,2.58999912 9.01,2.49999915 9.12,2.49999915 Z M3.008,2.99999915 C3.008,2.7238567 3.23185763,2.49999915 3.508,2.49999915 L7.413,2.49999915 C7.68914237,2.49999915 7.913,2.7238567 7.913,2.99999915 L7.913,7.83699733 C7.913,8.11313961 7.68914237,8.33699715 7.413,8.33699715 L3.508,8.33699715 C3.23185763,8.33699715 3.008,8.11313961 3.008,7.83699733 L3.008,2.99999915 Z M12.931,9.09198855 C12.9470855,9.09172877 12.9626049,9.09793161 12.9740743,9.10921298 C12.9855437,9.12049435 12.9920022,9.13590911 12.992,9.15199688 L12.992,9.20799686 C12.992,9.21114443 12.9934819,9.21410831 12.996,9.21599685 C12.9985181,9.2178854 13,9.22084928 13,9.22399685 L13,13.3679954 C13,13.371143 12.9985181,13.3741069 12.996,13.3759954 C12.9937435,13.3776641 12.992292,13.3802042 12.992,13.3829954 L12.992,13.4389954 C12.9922681,13.4550809 12.9860653,13.4706003 12.9747839,13.4820697 C12.9635025,13.4935391 12.9480878,13.4999954 12.932,13.4999954 L3.5,13.4999954 C3.22385763,13.4999954 3,13.2761378 3,12.9999956 L3,9.59198855 C3,9.31585445 3.22385763,9.09198855 3.5,9.09198855 L12.931,9.09198855 L12.931,9.09198855 Z" id="Shape" fill-rule="nonzero"></path>
                </g>
            </g>
        </g>
    </g>
</svg>