<?xml version="1.0" encoding="UTF-8"?>
<svg width="14px" height="14px" viewBox="0 0 14 14" version="1.1" xmlns="http://www.w3.org/2000/svg" xmlns:xlink="http://www.w3.org/1999/xlink">
    <!-- Generator: Sketch 59 (86127) - https://sketch.com -->
    <title>D542C928-B5C9-4D0C-8805-8633996E9313</title>
    <desc>Created with Sketch.</desc>
    <g id="Keywords-Search" stroke="none" stroke-width="1" fill="none" fill-rule="evenodd">
        <g id="结果---图" transform="translate(-1298.000000, -300.000000)">
            <g id="明细" transform="translate(1297.000000, 299.000000)">
                <rect id="Rectangle" x="0" y="0" width="16" height="16"></rect>
                <g transform="translate(1.000000, 1.000000)" fill="#000000" fill-rule="nonzero" id="Group-9">
                    <g>
                        <path d="M13.7555107,9.43987619 L12.7280216,8.81481481 L7.99423238,11.6459752 C7.69502074,11.8242006 7.35138363,11.9134672 7.00343929,11.9033534 C6.65695812,11.901408 6.31642655,11.8129481 6.0126462,11.6459752 L1.278857,8.81481481 L0.247698276,9.43987619 C-0.0825660921,9.62371777 -0.0825660921,9.95463262 0.247698276,10.1752425 L6.375937,13.8520742 C6.5668608,13.9565132 6.78239923,14.007328 6.99976968,13.9991474 C7.21714014,14.007328 7.43267858,13.9565132 7.62360238,13.8520742 L13.7518411,10.1752425 C14.0821055,9.99140094 14.0821055,9.66048609 13.7555107,9.43987619 L13.7555107,9.43987619 Z" id="Path"></path>
                        <path d="M0.244918489,7.58264993 L6.37246714,11.2594816 C6.56336943,11.3639206 6.7788836,11.4147354 6.99622957,11.4065548 C7.21357555,11.4147354 7.42908972,11.3639206 7.61999202,11.2594816 L13.7475407,7.58264993 C14.0777678,7.36204003 14.0777678,7.03112518 13.7842326,6.84728361 L12.7568591,6.22222222 L8.023603,9.05338259 C7.72442506,9.23160801 7.38082664,9.32087459 7.03292148,9.3107608 C6.68647933,9.30881539 6.34598611,9.22035554 6.04223996,9.05338259 L1.27229191,6.22222222 L0.244918489,6.84728361 C-0.0816394963,7.03112519 -0.0816394963,7.36204004 0.244918489,7.58264993 Z" id="Path"></path>
                        <path d="M0.245002296,4.5119468 L6.3746477,8.14993328 C6.56561532,8.25326895 6.78120323,8.30354691 6.99862357,8.29545273 C7.21604392,8.30354691 7.43163184,8.25326895 7.62259946,8.14993328 L13.7522449,4.5119468 C14.082585,4.29366762 14.082585,3.96624883 13.7522449,3.78434951 L7.6262699,0.146363031 C7.43530228,0.0430273567 7.21971437,-0.0072506092 7.00229402,0.00084356349 C6.78487368,-0.0072506092 6.56928577,0.0430273567 6.37831815,0.146363031 L0.245002296,3.78434951 C-0.0816674321,3.96624883 -0.0816674321,4.29366762 0.245002296,4.5119468 Z" id="Path"></path>
                    </g>
                </g>
            </g>
        </g>
    </g>
</svg>