<?xml version="1.0" encoding="UTF-8"?>
<svg width="32px" height="27px" viewBox="0 0 32 27" version="1.1" xmlns="http://www.w3.org/2000/svg" xmlns:xlink="http://www.w3.org/1999/xlink">
    <!-- Generator: Sketch 59 (86127) - https://sketch.com -->
    <title>EB476C7B-FC8B-44F0-9DD4-9BFEE7F1A226</title>
    <desc>Created with Sketch.</desc>
    <g id="Keywords-Search" stroke="none" stroke-width="1" fill="none" fill-rule="evenodd">
        <g id="图表的icon" transform="translate(-1305.000000, -614.000000)">
            <g id="地图" transform="translate(1301.000000, 608.000000)">
                <rect id="Rectangle" x="0" y="0" width="40" height="40"></rect>
                <path d="M35.0015385,8.8225641 L35.9205128,8.2974359 L35.9205128,9.74153847 L35.0015385,10.6605128 L35.9205128,12.4984615 L35.0015385,13.4174359 L34.0825641,14.3364103 L32.3758974,15.2553846 L30.6692308,15.2553846 L29.7502564,17.0933333 L29.7502564,18.0123077 L31.325641,18.0123077 L31.325641,18.9312821 L30.6692308,19.8502564 L31.5882051,20.7692308 L32.5071795,21.6882051 L32.5071795,25.3641026 L31.4569231,27.7271795 L29.8815385,29.04 L28.9625641,29.9589744 L28.0435897,29.9589744 L27.1246154,30.8779487 L26.205641,30.8779487 L25.0241026,31.1405128 L24.8928205,31.534359 C24.8928205,31.534359 24.6302564,31.665641 24.6302564,31.534359 L24.3676923,31.1405128 L22.6610256,30.7466667 L21.7420513,30.0902564 L20.1666667,30.0902564 L19.2476923,30.7466667 L18.3287179,30.7466667 L17.4097436,29.8276923 L17.4097436,28.9087179 L16.4907692,28.9087179 L16.4907692,27.9897436 L17.4097436,26.6769231 L13.0774359,26.2830769 L11.7646154,25.1015385 L9.5328205,25.3641026 L8.61384617,23.5261538 L7.6948718,23.5261538 L6.77589743,22.6071795 L5.85692307,21.6882051 L5.85692307,18.8 L4.93794873,17.8810256 L4.93794873,15.5179487 L4.01897437,15.1241026 L4.01897437,14.2051282 L5.72564103,14.2051282 L7.4323077,13.2861538 L8.35128207,11.4482051 L10.0579487,11.4482051 L10.0579487,9.6102564 L11.7646154,8.69128207 L13.4712821,9.6102564 L14.3902564,11.4482051 L16.0969231,13.2861538 L18.7225641,14.2051282 L20.4292308,15.1241026 L23.9738462,15.1241026 L24.8928205,12.3671795 L25.8117949,12.3671795 L27.5184615,11.4482051 L26.5994872,10.5292308 L27.5184615,8.69128207 L27.5184615,6.9846154 L28.4374359,6.06564103 L29.3564103,6.06564103 L31.0630769,6.9846154 L31.9820513,7.90358973 L32.9010256,7.90358973 L33.82,8.8225641 L35.0015385,8.8225641 L35.0015385,8.8225641 Z" id="Path" fill="#8FB5EE" fill-rule="nonzero"></path>
                <path d="M23.9738462,32.4533333 L23.9738462,32.1907692 C23.9738462,32.1907692 24.1051282,32.1907692 24.1051282,32.0594872 C24.1051282,32.0594872 24.1051282,31.9282051 24.2364103,31.9282051 C24.2364103,31.9282051 24.2364103,31.7969231 24.3676923,31.7969231 L24.6302564,31.665641 C24.6302564,31.665641 25.0241026,31.534359 25.0241026,31.4030769 C25.1553846,31.2717949 25.4179487,31.1405128 25.4179487,31.2717949 L25.4179487,31.7969231 C25.4179487,31.7969231 25.2866667,32.1907692 25.2866667,32.3220513 L24.8928205,32.7158974 L24.6302564,32.8471795 C24.6302564,32.8471795 24.3676923,32.7158974 24.2364103,32.7158974 L24.1051282,32.7158974 L23.9738462,32.5846154 L23.9738462,32.4533333 L23.9738462,32.4533333 Z" id="Path" fill="#8FB5EE" fill-rule="nonzero"></path>
                <path d="M30.1441026,6.19692307 C30.0128205,6.19692307 29.8815385,6.065641 29.7502564,6.06564103 C29.4876923,6.06564103 29.2251282,5.93435897 28.9625641,6.06564103 C28.7,6.1969231 28.0435897,6.85333333 28.0435897,6.9846154 C27.9123077,7.11589747 28.0435897,8.69128207 28.0435897,8.8225641 C28.0435897,8.95384617 27.1246154,10.3979487 27.1246154,10.6605128 C27.1246154,10.9230769 27.9123077,11.4482051 27.7810256,11.5794872 C26.9933333,12.1046154 26.7307692,12.2358974 26.3369231,12.4984615 L25.4179487,12.4984615 C25.2866667,12.6297436 25.0241026,13.0235897 24.7615385,13.2861538 C24.6302564,13.4174359 24.4989744,13.4174359 24.4989744,13.4174359 C24.3676923,13.548718 24.2364103,13.68 24.2364103,13.8112821 C24.1051282,13.9425641 24.1051282,14.0738462 23.8425641,14.3364103 C23.58,14.5989744 23.1861538,14.7302564 22.7923077,14.7302564 C22.2671795,14.8615385 22.2671795,14.8615385 21.6107692,14.9928205 C21.4794872,14.9928205 21.2169231,14.9928205 20.6917949,14.8615385 C20.1666667,14.7302564 19.9041026,14.4676923 19.3789744,14.3364103 C18.8538462,14.2051282 17.2784615,13.4174359 16.8846154,13.4174359 C16.3594872,13.4174359 16.3594872,13.548718 16.0969231,13.9425641 C15.965641,14.0738462 15.965641,14.3364103 15.834359,14.4676923 C15.7030769,14.4676923 15.7030769,14.5989744 15.5717949,14.5989744 C15.3092308,14.5989744 14.9153846,14.8615385 14.6528205,14.9928205 C14.5215384,15.1241026 14.1276923,15.2553846 14.1276923,15.3866667 L14.1276923,15.9117949 C14.1276923,16.0430769 14.2589744,16.305641 14.1276923,16.4369231 C13.7338461,16.5682051 13.34,16.6994872 13.2087179,16.6994872 C12.9461538,16.6994872 12.0271795,16.9620513 11.7646154,16.9620513 C11.7646154,17.0933333 11.7646154,17.4871795 11.8958974,17.4871795 C12.0271795,17.6184616 11.1082051,19.9815385 10.9769231,19.9815385 C10.9769231,20.2441026 11.2394872,20.6379487 11.3707692,21.0317949 L11.5020513,21.1630769 C11.7646154,21.1630769 12.0271795,21.294359 12.2897436,21.425641 C12.4210257,21.5569231 13.0774359,21.6882051 13.2087179,21.6882051 L14.1276923,21.6882051 L14.3902564,21.9507692 L14.5215385,22.2133333 C14.6528205,22.2133333 14.6528205,22.3446154 14.7841026,22.3446154 C14.9153846,22.3446154 15.0466667,22.2133333 15.1779487,22.3446154 C15.1779487,22.3446154 15.5717949,22.0820513 15.5717949,21.9507692 C15.7030769,21.8194872 16.2282051,22.2133333 16.2282051,22.2133333 C16.3594872,22.2133333 16.3594872,22.3446154 16.4907692,22.3446154 C16.6220513,22.3446154 16.6220513,22.4758975 16.6220513,22.6071795 L16.4907692,22.7384615 L16.4907692,22.8697436 C16.4907692,23.1323077 16.6220513,23.2635898 16.6220513,23.5261538 L16.6220513,24.1825641 C16.6220513,24.1825641 16.7533333,24.1825641 16.6220513,24.3138462 L16.6220513,24.9702564 C16.6220513,25.1015385 16.7533333,25.3641026 16.8846154,25.3641026 C16.8846154,25.2328205 17.0158975,25.2328205 17.1471795,25.2328205 C17.1471795,25.1015384 17.1471795,25.1015384 17.2784615,25.1015385 L17.4097436,25.1015385 L17.4097436,25.2328205 L17.2784615,25.2328205 L17.2784615,25.3641026 L17.4097436,25.4953846 C17.5410257,25.6266667 17.6723077,25.4953846 17.6723077,25.4953846 C17.8035898,25.4953846 17.8035898,25.7579487 17.8035897,25.7579487 C17.8035897,25.7579488 17.8035897,25.8892308 17.9348718,25.8892308 C18.1974359,26.2830769 18.0661539,26.8082051 18.5912821,26.8082051 C18.7225641,26.8082051 19.3789744,26.545641 19.3789744,26.2830769 C19.5102564,25.8892308 19.5102564,25.7579487 19.5102564,25.4953846 C19.5102564,25.2328205 20.2979487,25.6266667 20.4292308,25.6266667 C20.5605128,25.6266667 20.6917949,25.4953846 20.6917949,25.4953846 L22.3984615,25.4953846 C22.5297436,25.6266667 23.4487179,24.5764102 23.4487179,24.3138462 C23.58,24.0512821 25.1553846,23.788718 25.5492308,24.0512821 C25.6805128,24.0512821 26.7307692,24.3138462 26.7307692,24.3138462 C26.9933333,24.1825641 27.9123077,22.7384616 27.7810256,22.7384615 C27.6497436,22.6071795 27.3871795,22.6071795 27.3871795,22.6071795 C27.2558974,22.6071795 27.1246154,22.4758974 26.9933333,22.3446154 C26.9933333,22.3446154 26.8620513,22.2133333 26.8620513,22.3446154 C26.7307692,22.3446154 25.6805128,22.0820513 25.1553846,21.8194872 C24.6302564,21.556923 24.1051282,20.6379487 24.1051282,20.1128205 C24.1051282,19.8502564 23.9738461,18.931282 23.9738462,18.6687179 C23.9738462,18.2748718 24.2364103,18.1435897 24.2364103,17.7497436 C24.2364103,17.6184615 24.7615385,16.174359 25.0241026,15.9117949 L26.4682051,14.5989744 C26.5994872,14.8615385 28.3061539,14.0738462 28.3061538,14.0738462 C28.3061538,14.0738462 29.8815384,13.548718 30.0128205,13.5487179 L30.1441026,13.5487179 C30.1441026,13.5487179 30.8005128,13.0235897 30.8005128,13.1548718 L30.8005128,13.0235897 L30.9317949,13.0235897 C31.194359,13.1548718 31.325641,12.8923077 31.4569231,12.6297436 C31.5882051,12.4984615 31.325641,12.3671795 31.325641,12.2358974 C31.194359,12.1046154 31.0630769,11.8420513 30.9317949,11.5794872 C30.8005128,11.7107692 30.2753846,11.4482051 30.4066667,11.185641 L31.194359,8.69128207 L31.194359,8.0348718 L31.194359,7.90358973 L31.325641,7.90358973 C31.325641,7.90358973 31.4569231,7.77230767 31.325641,7.64102563 C31.5882051,7.7723077 31.7194872,7.11589743 31.5882051,6.9846154 C31.5882051,6.9846154 30.2753846,6.32820513 30.1441026,6.19692307 Z" id="Path" fill="#528EE9" fill-rule="nonzero"></path>
                <path d="M16.8846154,13.4174359 C16.8846154,13.4174359 16.6220513,13.2861538 15.965641,12.4984615 C15.834359,12.2358974 14.9153846,11.3169231 14.7841026,11.054359 C14.2589744,10.3979487 14.5215385,10.2666667 14.2589744,10.0041026 C14.1276923,9.74153847 13.7338462,9.47897437 13.4712821,9.21641027 C12.9461539,8.69128207 12.2897436,8.8225641 12.1584615,8.8225641 C12.0271795,8.8225641 10.5830769,9.47897437 10.4517949,9.74153847 C10.3205128,10.0041026 10.3205128,11.3169231 10.0579487,11.3169231 C9.66410257,11.4482051 8.61384617,11.5794872 8.61384617,11.5794872 C8.61384617,11.5794872 7.6948718,13.2861538 7.56358973,13.4174359 C7.56358973,13.548718 5.98820513,14.2051282 5.85692307,14.2051282 C5.85692307,14.2051282 4.54410257,14.0738461 4.28153847,14.3364103 C4.01897437,14.4676923 4.28153847,15.2553846 4.28153847,15.2553846 L5.06923077,15.6492308 L5.06923077,16.305641 C5.06923077,16.4369231 5.20051283,16.5682051 5.20051283,16.5682051 C5.3317949,16.5682051 5.20051283,16.5682051 5.33179487,16.6994872 C5.4630769,16.8307692 5.59435897,16.8307692 5.72564103,16.9620513 C5.72564103,16.9620513 5.98820513,17.2246154 6.11948717,17.2246154 C6.11948717,17.2246154 6.11948717,17.3558975 6.25076923,17.4871795 C6.25076923,17.6184616 6.3820513,17.6184616 6.51333333,17.7497436 C6.6446154,17.7497436 6.51333333,17.7497436 6.6446154,17.8810256 C6.77589747,18.0123077 6.9071795,18.0123077 7.03846153,18.0123077 L7.1697436,18.0123077 C7.1697436,18.0123077 7.30102567,18.0123077 7.30102563,17.8810256 C7.30102563,17.8810256 7.30102563,17.7497436 7.4323077,17.7497436 L7.9574359,17.6184615 L8.22,17.6184615 C8.22,17.6184615 8.22,17.7497436 8.35128207,17.7497436 L8.4825641,17.7497436 C8.4825641,17.7497436 8.4825641,17.6184615 8.61384617,17.6184615 L9.40153847,17.6184615 L9.5328205,17.8810256 L9.7953846,17.8810256 C9.7953846,17.8810256 9.92666667,18.0123077 9.92666667,17.8810256 L10.714359,17.8810256 C10.714359,17.8810256 10.845641,17.7497436 11.1082051,17.7497436 L11.6333333,17.7497436 C11.6333333,17.7497436 11.5020513,17.2246154 11.6333333,17.2246154 C11.7646154,17.2246154 13.34,17.0933333 13.8651282,16.6994872 C13.9964103,16.5682051 13.7338461,15.9117949 13.9964103,15.6492308 C14.2589744,15.5179487 13.9964103,15.5179487 14.5215385,15.2553846 C14.6528205,15.1241025 15.0466667,15.1241025 15.4405128,14.8615385 C15.5717949,14.7302564 15.5717949,14.4676923 15.834359,14.3364103 C16.2282051,13.8112821 16.4907692,13.68 16.8846154,13.4174359 L16.8846154,13.4174359 Z" id="Path" fill="#2975E5" fill-rule="nonzero"></path>
                <polygon id="Path" fill="#8FB5EE" fill-rule="nonzero" points="32.2446154 27.8584615 32.3758974 27.4646154 32.5071795 27.3333333 32.6384615 27.0707692 32.9010256 26.9394872 32.9010256 26.8082051 33.0323077 26.6769231 33.1635897 26.6769231 33.1635897 26.8082051 33.2948718 26.8082051 33.4261538 26.9394872 33.2948718 27.0707692 33.2948718 27.2020513 33.4261538 27.3333333 33.4261538 27.4646154 33.2948718 27.7271795 33.2948718 28.5148718 33.1635897 29.04 32.9010256 29.3025641 32.9010256 30.0902564 32.7697436 30.0902564 32.7697436 29.9589744 32.6384615 29.6964103 32.5071795 29.5651282 32.2446154 29.4338462 32.1133333 29.04 31.9820513 29.04 31.9820513 28.5148718 32.1133333 28.1210256"></polygon>
            </g>
        </g>
    </g>
</svg>