<?xml version="1.0" encoding="UTF-8"?>
<svg width="62px" height="62px" viewBox="0 0 62 62" version="1.1" xmlns="http://www.w3.org/2000/svg" xmlns:xlink="http://www.w3.org/1999/xlink">
    <!-- Generator: Sketch 59 (86127) - https://sketch.com -->
    <title>5DF4C464-5A28-4A06-87AF-3A7DE6755B5F</title>
    <desc>Created with Sketch.</desc>
    <g id="Keywords-Search" stroke="none" stroke-width="1" fill="none" fill-rule="evenodd">
        <g id="首页" transform="translate(-1185.000000, -694.000000)">
            <g id="Group-3" transform="translate(1176.000000, 685.000000)">
                <g id="图表" transform="translate(9.000000, 9.000000)" fill="#F3BDC3" fill-rule="nonzero">
                    <path d="M54.7310345,9.47222222 L39.7655172,26.2638889 L21.8068966,12.9166667 L2.99310345,30.1388889 L0,26.6944444 L21.3793103,6.88888889 L39.337931,20.2361111 L50.8827586,7.75 L46.1793103,4.73611111 L58.1517241,0 L59.862069,13.3472222 C59.862069,12.9166667 54.7310345,9.47222222 54.7310345,9.47222222 Z M0,55.5416667 L62,55.5416667 L62,62 L0,62 L0,55.5416667 Z M2.99310345,34.0138889 L11.1172414,34.0138889 L11.1172414,49.9444444 L2.99310345,49.9444444 L2.99310345,34.0138889 L2.99310345,34.0138889 Z M17.5310345,23.25 L25.6551724,23.25 L25.6551724,49.0833333 L17.5310345,49.0833333 L17.5310345,23.25 L17.5310345,23.25 Z M33.3517241,31 L41.4758621,31 L41.4758621,49.0833333 L33.3517241,49.0833333 L33.3517241,31 Z M48.7448276,23.25 L56.8689655,23.25 L56.8689655,49.0833333 L48.7448276,49.0833333 L48.7448276,23.25 Z" id="Shape"></path>
                </g>
                <rect id="Rectangle" x="0" y="0" width="80" height="80"></rect>
            </g>
        </g>
    </g>
</svg>