<?xml version="1.0" encoding="UTF-8"?>
<svg width="62px" height="62px" viewBox="0 0 62 62" version="1.1" xmlns="http://www.w3.org/2000/svg" xmlns:xlink="http://www.w3.org/1999/xlink">
    <!-- Generator: Sketch 59 (86127) - https://sketch.com -->
    <title>C86AC4EF-0AD4-4E40-A58B-7137A2CBA5D0</title>
    <desc>Created with Sketch.</desc>
    <g id="Keywords-Search" stroke="none" stroke-width="1" fill="none" fill-rule="evenodd">
        <g id="首页" transform="translate(-809.000000, -694.000000)">
            <g id="Group-2" transform="translate(800.000000, 685.000000)">
                <g id="排序" transform="translate(9.000000, 9.000000)" fill="#F2D48E" fill-rule="nonzero">
                    <path d="M4.11535633,0 L58.1294078,0 C60.187086,0 61.7303446,1.55 61.7303446,4.13333335 C61.7303446,6.71666671 60.187086,8.26666665 57.6149883,8.26666665 L4.11535633,8.26666665 C1.54325861,7.75 0,6.2 0,4.13333335 C0,2.06666671 1.54325861,0 4.11535633,0 Z M4.11535633,26.8666666 L17.4902643,26.8666666 C19.5479424,26.8666666 21.6056206,28.4166666 21.6056206,31 C21.6056206,33.5833334 19.0335229,35.1333334 16.9758448,35.1333334 L4.11535633,35.1333334 C1.54325861,35.1333334 0,33.0666666 0,31 C0,28.9333334 1.54325861,26.8666666 4.11535633,26.8666666 Z M53.499632,32.0333334 L59.6726665,32.0333334 C60.7015056,32.0333334 61.2159251,31.5166666 61.7303446,30.4833334 C62.2447641,29.45 61.7303446,28.9333334 61.2159251,27.9 L49.3842757,16.5333334 C48.8698562,16.0166666 47.8410171,16.0166666 46.812178,16.0166666 C46.2977584,16.5333333 45.7833389,17.5666666 45.7833389,18.0833334 L45.7833389,57.8666666 C45.7833389,59.9333333 47.3265975,62 49.8986952,62 C51.9563733,62 54.0140515,60.45 54.0140515,57.8666666 L53.499632,32.0333334 Z M31.8940114,45.9833334 L25.7209769,45.9833334 C24.6921378,45.9833334 24.1777183,46.5 23.6632987,47.5333334 C23.1488792,48.5666667 23.6632987,49.0833334 24.1777183,50.1166666 L35.4949481,61.4833334 C36.5237872,62 37.5526263,62 38.0670459,62 C39.095885,61.4833334 39.6103045,60.9666666 39.6103045,59.9333334 L39.6103045,20.15 C39.6103045,18.0833334 38.0670459,16.0166666 35.4949481,16.0166666 C32.9228504,16.0166666 31.8940114,17.5666666 31.8940114,20.15 L31.8940114,45.9833334 Z M4.11535633,54.25 L17.4902643,54.25 C19.5479424,54.25 21.6056206,55.8 21.6056206,58.3833334 C21.6056206,60.9666667 19.0335229,62 16.9758448,62 L4.11535633,62 C1.54325861,62 0,60.45 0,57.8666666 C0,55.2833333 1.54325861,54.25 4.11535633,54.25 Z" id="Shape"></path>
                </g>
                <rect id="Rectangle" x="0" y="0" width="80" height="80"></rect>
            </g>
        </g>
    </g>
</svg>