<?xml version="1.0" encoding="utf-8"?>
<!-- Generator: Adobe Illustrator 16.0.0, SVG Export Plug-In . SVG Version: 6.00 Build 0)  -->
<!DOCTYPE svg PUBLIC "-//W3C//DTD SVG 1.1//EN" "http://www.w3.org/Graphics/SVG/1.1/DTD/svg11.dtd">
<svg version="1.1" id="图层_1" xmlns="http://www.w3.org/2000/svg" xmlns:xlink="http://www.w3.org/1999/xlink" x="0px" y="0px"
	 width="62px" height="62px" viewBox="0 0 62 62" enable-background="new 0 0 62 62" xml:space="preserve">
<title>31E68B68-B203-4548-8BCB-51CAEEBDA67D</title>
<desc>Created with Sketch.</desc>
<g id="Keywords-Search" opacity="0.65">
	<g id="首页" transform="translate(-809.000000, -353.000000)">
		<g id="文本" transform="translate(800.000000, 344.000000)">
			<rect id="Rectangle" fill-opacity="0" width="80" height="80"/>
			<path id="Shape" fill="#9ADBC7" d="M71,13c0,2.209-1.143,4-2.553,4H11.552C10.143,17,9,15.209,9,13l0,0c0-2.209,1.143-4,2.552-4
				h56.895C69.857,9,71,10.791,71,13L71,13L71,13z M36,68.559V11.441C36,10.093,37.791,9,40,9c2.208,0,4,1.093,4,2.441V68.56
				c0,1.349-1.791,2.44-4,2.44C37.791,71,36,69.908,36,68.559z"/>
		</g>
	</g>
</g>
</svg>
