<?xml version="1.0" encoding="utf-8"?>
<!-- Generator: Adobe Illustrator 16.0.0, SVG Export Plug-In . SVG Version: 6.00 Build 0)  -->
<!DOCTYPE svg PUBLIC "-//W3C//DTD SVG 1.1//EN" "http://www.w3.org/Graphics/SVG/1.1/DTD/svg11.dtd">
<svg version="1.1" id="图层_1" xmlns="http://www.w3.org/2000/svg" xmlns:xlink="http://www.w3.org/1999/xlink" x="0px" y="0px"
	 width="62px" height="62px" viewBox="0 0 62 62" enable-background="new 0 0 62 62" xml:space="preserve">
<title>215C9EE3-4111-4544-AEC8-44ACB50D022C</title>
<desc>Created with Sketch.</desc>
<g id="Keywords-Search">
	<g id="首页" transform="translate(-409.000000, -353.000000)">
		<g id="度量" transform="translate(400.000000, 344.000000)">
			<rect id="Rectangle" fill="none" width="80" height="80"/>
			<path id="Shape" fill="#64B5F6" d="M9,26.595h17.902v5.958H9V26.595z M52.322,26.595H71v5.958H52.322V26.595z M31.862,26.595
				h15.5v5.958h-15.5V26.595z M31.862,47.447h15.5v5.958h-15.5V47.447z M52.322,47.447H71v5.958H52.322V47.447z M9,47.447h17.902
				v5.958H9V47.447z M31.902,32.553V9h-5v62h5V47.447V32.553z M52.362,26.595c0-5.865,0-11.73,0-17.595h-5v62h5V32.553
				C52.362,34.445,52.362,32.459,52.362,26.595z"/>
		</g>
	</g>
</g>
</svg>
