<?xml version="1.0" encoding="UTF-8"?>
<svg width="62px" height="62px" viewBox="0 0 62 62" version="1.1" xmlns="http://www.w3.org/2000/svg" xmlns:xlink="http://www.w3.org/1999/xlink">
    <!-- Generator: Sketch 59 (86127) - https://sketch.com -->
    <title>3C25C8D4-85BB-4A71-8FE7-ACC6D3FF85DB</title>
    <desc>Created with Sketch.</desc>
    <g id="Keywords-Search" stroke="none" stroke-width="1" fill="none" fill-rule="evenodd" opacity="0.65">
        <g id="首页" transform="translate(-1185.000000, -353.000000)" fill-rule="nonzero">
            <g id="过滤" transform="translate(1176.000000, 344.000000)">
                <rect id="Rectangle" fill="#000000" opacity="0" x="0" y="0" width="80" height="80"></rect>
                <path d="M45.9954594,71 C45.4992839,71 45.0112448,70.8449922 44.6076114,70.5385782 L31.951918,60.8704669 C31.4234094,60.4675554 31.1168461,59.8475921 31.1168461,59.1967087 L31.1168461,38.6939521 C31.1168461,38.6244331 31.0844422,38.5622532 31.0361194,38.5159752 L10.956826,19.2222251 C10.8761701,19.1447552 10.7996177,19.06314 10.7348807,18.9781949 C9.60124042,17.8350377 9,16.3937572 9,14.8705217 C9,11.6349969 11.7433628,9 15.1079178,9 L64.8920114,9 C68.2567787,9 71,11.6349969 71,14.8705217 C71,16.3779914 70.4032876,17.8119326 69.3219322,18.9045305 C69.2816042,18.9589633 69.197057,19.0555289 69.1403856,19.1020788 L48.2988937,39.1281235 C48.2506416,39.1747414 48.2182377,39.2407267 48.2182377,39.3105176 L48.2182377,68.8688294 C48.2182377,69.6904184 47.7301279,70.4346054 46.9556187,70.7907632 C46.6488432,70.9302091 46.3181539,71 45.9953179,71 L45.9953179,71 L45.9954594,71 Z M35.5844658,58.4933966 L43.7570143,64.8 L43.7570143,39.5238942 C43.7570143,38.3040771 44.2429104,37.1661462 45.122369,36.3046324 L65.8051047,16.2319904 C65.8693368,16.1578281 65.9297657,16.0954907 65.9941386,16.0291888 C66.2671955,15.7483288 66.4315789,15.355029 66.4315789,14.9455981 C66.4315789,14.0609129 65.6845991,13.34 64.7771094,13.34 L15.2228906,13.34 C14.3114568,13.34 13.5684211,14.0649457 13.5684211,14.9455981 C13.5684211,15.3589251 13.7332975,15.7565994 14.0302301,16.0526337 C14.1384809,16.1617925 14.2351108,16.2787435 14.3274444,16.3877656 L34.2110821,35.6886405 C35.0824413,36.5342965 35.5847475,37.7074289 35.5847475,38.9079023 L35.5847475,58.4935333 L35.5844658,58.4933966 Z" id="Shape" fill="#BDBDBD"></path>
            </g>
        </g>
    </g>
</svg>