<?xml version="1.0" encoding="UTF-8"?>
<svg width="62px" height="62px" viewBox="0 0 62 62" version="1.1" xmlns="http://www.w3.org/2000/svg" xmlns:xlink="http://www.w3.org/1999/xlink">
    <!-- Generator: Sketch 59 (86127) - https://sketch.com -->
    <title>06E8C829-6D9E-4506-9EAD-F821F29B817C</title>
    <desc>Created with Sketch.</desc>
    <g id="Keywords-Search" stroke="none" stroke-width="1" fill="none" fill-rule="evenodd">
        <g id="首页" transform="translate(-409.000000, -694.000000)">
            <g id="运算_H" transform="translate(400.000000, 685.000000)">
                <rect id="Rectangle" x="0" y="0" width="80" height="80"></rect>
                <g id="运算" opacity="0.65" transform="translate(9.000000, 9.000000)" fill="#B4A5E2" fill-rule="nonzero">
                    <path d="M51.1485776,62 L10.8565946,62 C4.80503875,62 0,57.0954606 0,50.9285714 L0,11.0714286 C0,4.90453939 4.81021107,0 10.8514224,0 L51.1485776,0 C57.1949612,0 62,4.90453939 62,11.0714286 L62,50.9285714 C62,56.9350801 57.1949612,62 51.1485776,62 Z M10.8565946,3.16622163 C6.51188784,3.16622163 3.09818967,6.64285715 3.09818967,11.0714286 L3.09818967,50.9285714 C3.09818967,55.3571429 6.51188784,58.8337784 10.8565946,58.8337784 L51.1485776,58.8337784 C55.4932844,58.8337784 58.9018103,55.3571429 58.9018103,50.9285714 L58.9018103,11.0714286 C58.9018103,6.64285715 55.4881122,3.16622163 51.1485776,3.16622163 L10.8565946,3.16622163 Z" id="Shape"></path>
                    <path d="M60.448319,17.4902129 L1.55168099,17.4902129 C0.620672395,17.4902129 0,16.8505887 0,15.8989526 C0,14.9421164 0.620672395,14.3076923 1.55168099,14.3076923 L60.448319,14.3076923 C61.3793276,14.3076923 62,14.9421164 62,15.8989526 C62,16.8505887 61.3793276,17.4902129 60.448319,17.4902129 Z M14.8806207,35.4516936 C13.4642022,35.4505713 12.1077255,34.876869 11.1164327,33.8596845 C10.1251399,32.8425 9.58230421,31.4672815 9.61007757,30.0434886 C9.61007757,27.0273744 11.9375991,24.6404839 14.8857929,24.6404839 C17.8288146,24.6404839 20.1511637,27.0273744 20.1511637,30.0486889 C20.1511637,33.0648032 17.6684742,35.4516936 14.8806207,35.4516936 L14.8806207,35.4516936 Z M14.8806207,27.0273744 C13.3289397,27.0273744 12.0875949,28.2962224 12.0875949,29.8874827 C12.0875949,31.478743 13.3289397,32.7475912 14.8806207,32.7475912 C16.4323017,32.7475912 17.6736465,31.4787431 17.6736465,29.8874827 C17.6736465,28.2962224 16.4323017,27.0273744 14.8806207,27.0273744 Z M31.0025862,35.4516937 C29.5852706,35.4519676 28.2274536,34.8788796 27.2350369,33.8615402 C26.2426202,32.8442009 25.6990803,31.468183 25.7268708,30.0434886 C25.7268708,27.0273744 28.0543923,24.6404839 31.0025862,24.6404839 C33.9456078,24.6404839 36.2731292,27.0273744 36.2731292,30.0486889 C36.2731292,33.0648032 33.9456077,35.4516937 30.9974138,35.4516937 L31.0025862,35.4516937 Z M31.0025862,27.0273744 C29.4509052,27.0273744 28.2095604,28.2962224 28.2095604,29.8874827 C28.2095604,31.478743 29.4509052,32.7475912 31.0025862,32.7475912 C32.5542671,32.7475912 33.7956119,31.4787431 33.7956119,29.8874827 C33.7956119,28.2962224 32.5542671,27.0273744 31.0025862,27.0273744 Z M47.1193793,35.4516936 C45.7038585,35.4491768 44.3487213,34.874861 43.3585518,33.8578311 C42.3683823,32.8408012 41.8262509,31.466381 41.8540085,30.0434886 C41.8540085,27.0273744 44.18153,24.6404839 47.1297239,24.6404839 C50.0727455,24.6404839 52.3950947,27.0273744 52.3950947,30.0486889 C52.3950947,33.0648032 50.0675732,35.4516936 47.1245516,35.4516936 L47.1193793,35.4516936 Z M47.1193793,27.0273744 C45.5676983,27.0273744 44.3263535,28.2962224 44.3263535,29.8874827 C44.3263535,31.478743 45.5676983,32.7475912 47.1193793,32.7475912 C48.6710603,32.7475912 49.9124051,31.4787431 49.9124051,29.8874827 C49.9124051,28.2962224 48.6710603,27.0273744 47.1193793,27.0273744 Z M14.8806207,52.4615383 C13.4642023,52.4604159 12.1077256,51.8867136 11.1164328,50.8695291 C10.12514,49.8523447 9.58230422,48.4771262 9.61007757,47.0533333 C9.61007757,44.0372191 11.9375991,41.6503285 14.8857929,41.6503285 C17.8288146,41.6503285 20.1511637,44.037219 20.1511637,47.0585335 C20.1511637,50.0746478 17.6684742,52.4615383 14.8806207,52.4615383 Z M14.8806207,44.1932249 C13.3289397,44.1932249 12.0875949,45.4672732 12.0875949,47.0533333 C12.0875949,48.6445936 13.3289397,49.9134417 14.8806207,49.9134417 C16.4323017,49.9134417 17.6736465,48.6445936 17.6736465,47.0533333 C17.6736465,45.4672732 16.4323017,44.1932249 14.8806207,44.1932249 Z M31.0025862,52.4615384 C29.5852706,52.4618122 28.2274536,51.8887242 27.2350369,50.8713849 C26.2426202,49.8540455 25.6990803,48.4780276 25.7268708,47.0533333 C25.7268708,44.0372191 28.0543923,41.6503285 31.0025862,41.6503285 C33.9456078,41.6503285 36.2731292,44.037219 36.2731292,47.0585335 C36.2731292,50.0746478 33.9456077,52.4615384 30.9974138,52.4615384 L31.0025862,52.4615384 Z M31.0025862,44.1932249 C29.4509052,44.1932249 28.2095604,45.4672732 28.2095604,47.0533333 C28.2095604,48.6445936 29.4509052,49.9134417 31.0025862,49.9134417 C32.5542671,49.9134417 33.7956119,48.6445936 33.7956119,47.0533333 C33.7956119,45.4672732 32.5542671,44.1932249 31.0025862,44.1932249 Z M47.1193793,52.4615383 C45.7038585,52.4590214 44.3487213,51.8847057 43.3585518,50.8676758 C42.3683823,49.8506459 41.826251,48.4762257 41.8540085,47.0533333 C41.8540085,44.0372191 44.18153,41.6503285 47.1297239,41.6503285 C50.0727455,41.6503285 52.3950947,44.037219 52.3950947,47.0585335 C52.3950947,50.0746478 50.0675732,52.4615383 47.1245516,52.4615383 L47.1193793,52.4615383 Z M47.1193793,44.1932249 C45.5676983,44.1932249 44.3263535,45.4672732 44.3263535,47.0533333 C44.3263535,48.6445936 45.5676983,49.9134417 47.1193793,49.9134417 C48.6710603,49.9134417 49.9124051,48.6445936 49.9124051,47.0533333 C49.9124051,45.4672732 48.6710603,44.1932249 47.1193793,44.1932249 Z" id="Shape"></path>
                </g>
            </g>
        </g>
    </g>
</svg>