<?xml version="1.0" encoding="UTF-8"?>
<svg width="20px" height="20px" viewBox="0 0 20 20" version="1.1" xmlns="http://www.w3.org/2000/svg" xmlns:xlink="http://www.w3.org/1999/xlink">
    <!-- Generator: Sketch 59 (86127) - https://sketch.com -->
    <title>4A3181AB-5083-478A-A516-5888FB6B115E</title>
    <desc>Created with Sketch.</desc>
    <g id="Keywords-Search" stroke="none" stroke-width="1" fill="none" fill-rule="evenodd">
        <g id="结果---图" transform="translate(-1391.000000, -394.000000)" fill="#000000" fill-rule="nonzero">
            <g id="编译" transform="translate(1391.000000, 394.000000)">
                <path d="M18.7445375,0.01875 L0.9820375,0.01875 C0.446293789,0.0262891315 0.0167402988,0.464210547 0.019523916,1 L0.019523916,19.015 C0.0167402988,19.5507895 0.446293789,19.9887109 0.9820375,19.99625 L18.7445375,19.99625 C19.2802812,19.9887109 19.7098347,19.5507895 19.7070511,19.015 L19.7070511,1 C19.7098347,0.464210547 19.2802812,0.0262891315 18.7445375,0.01875 L18.7445375,0.01875 Z M18.2945375,18.56875 L1.4320375,18.56875 L1.4320375,1.44375 L18.2945375,1.44375 L18.2945375,18.56875 Z M13.2070375,11.70625 C12.9319748,11.9867339 12.9319748,12.4357661 13.2070375,12.71625 C13.3390376,12.8499986 13.5191208,12.9252865 13.7070375,12.9252865 C13.8949542,12.9252865 14.0750374,12.8499986 14.2070375,12.71625 L17.0695375,9.8175 C17.3446002,9.53701612 17.3446002,9.08798388 17.0695375,8.8075 L14.2195375,5.925 C14.0875374,5.79125143 13.9074542,5.71596352 13.7195375,5.71596352 C13.5316208,5.71596352 13.3515376,5.79125143 13.2195375,5.925 C12.9444748,6.20548388 12.9444748,6.65451612 13.2195375,6.935 L15.0695375,8.81 C15.3446002,9.09048388 15.3446002,9.53951612 15.0695375,9.82 L13.2070375,11.70625 Z M8.4445375,13.6 C8.62371163,13.6600396 8.81942802,13.6461767 8.98835033,13.5614809 C9.15727264,13.4767851 9.28546319,13.3282447 9.3445375,13.14875 L11.7070375,5.9475 C11.7960046,5.70646742 11.7470564,5.43613396 11.5792229,5.24159924 C11.4113894,5.04706452 11.1511502,4.95902098 10.8996805,5.01169798 C10.6482109,5.06437498 10.445186,5.24946149 10.3695375,5.495 L8.0070375,12.69625 C7.88196318,13.0664039 8.07661656,13.4685022 8.4445375,13.6 L8.4445375,13.6 Z M5.5195375,12.71625 C5.65186989,12.8493769 5.83182862,12.9242339 6.0195375,12.9242339 C6.20724638,12.9242339 6.38720511,12.8493769 6.5195375,12.71625 C6.79460021,12.4357661 6.79460021,11.9867339 6.5195375,11.70625 L4.6445375,9.8175 C4.36947479,9.53701612 4.36947479,9.08798388 4.6445375,8.8075 L6.4945375,6.9325 C6.76960021,6.65201612 6.76960021,6.20298388 6.4945375,5.9225 C6.36503845,5.78884601 6.18688799,5.71340066 6.0007875,5.71340066 C5.81468701,5.71340066 5.63653655,5.78884601 5.5070375,5.9225 L2.6570375,8.805 C2.38197479,9.08548388 2.38197479,9.53451612 2.6570375,9.815 L5.5195375,12.71625 Z" id="Shape"></path>
            </g>
        </g>
    </g>
</svg>