<?xml version="1.0" encoding="utf-8"?>
<!-- Generator: Adobe Illustrator 16.0.0, SVG Export Plug-In . SVG Version: 6.00 Build 0)  -->
<!DOCTYPE svg PUBLIC "-//W3C//DTD SVG 1.1//EN" "http://www.w3.org/Graphics/SVG/1.1/DTD/svg11.dtd">
<svg version="1.1" id="图层_1" xmlns="http://www.w3.org/2000/svg" xmlns:xlink="http://www.w3.org/1999/xlink" x="0px" y="0px"
	 width="20px" height="20px" viewBox="0 0 20 20" enable-background="new 0 0 20 20" xml:space="preserve">
<title>4A3181AB-5083-478A-A516-5888FB6B115E</title>
<desc>Created with Sketch.</desc>
<g id="Keywords-Search">
	<g id="结果---图" transform="translate(-1391.000000, -394.000000)">
		<g id="编译" transform="translate(1391.000000, 394.000000)">
			<path id="Shape" fill="#2B67F1" d="M18.744,0.019H0.982C0.446,0.026,0.017,0.464,0.02,1v18.016
				c-0.003,0.535,0.427,0.973,0.962,0.98h17.762c0.535-0.008,0.966-0.445,0.963-0.98V1C19.71,0.464,19.279,0.026,18.744,0.019
				L18.744,0.019z M18.295,18.568H1.432V1.444h16.863V18.568z M13.207,11.706c-0.275,0.28-0.275,0.729,0,1.011
				c0.132,0.133,0.313,0.209,0.5,0.209s0.368-0.076,0.5-0.209l2.861-2.899c0.275-0.28,0.275-0.729,0-1.01l-2.85-2.883
				c-0.132-0.133-0.313-0.209-0.5-0.209s-0.367,0.076-0.5,0.209c-0.275,0.281-0.275,0.73,0,1.01l1.85,1.875
				c0.275,0.28,0.275,0.729,0,1.01L13.207,11.706z M8.444,13.6c0.179,0.062,0.375,0.047,0.544-0.037
				c0.169-0.086,0.297-0.233,0.356-0.414l2.362-7.201c0.089-0.241,0.04-0.512-0.128-0.706c-0.167-0.195-0.428-0.283-0.68-0.23
				c-0.252,0.053-0.455,0.238-0.53,0.483l-2.363,7.2C7.882,13.066,8.077,13.469,8.444,13.6L8.444,13.6z M5.52,12.717
				c0.132,0.133,0.313,0.207,0.5,0.207s0.368-0.074,0.5-0.207c0.275-0.281,0.275-0.73,0-1.011L4.645,9.817
				c-0.275-0.28-0.275-0.729,0-1.01l1.85-1.875c0.275-0.281,0.275-0.729,0-1.01c-0.13-0.133-0.308-0.209-0.494-0.209
				c-0.187,0-0.364,0.075-0.494,0.209l-2.85,2.883c-0.275,0.28-0.275,0.729,0,1.01L5.52,12.717z"/>
		</g>
	</g>
</g>
</svg>
