<?xml version="1.0" encoding="UTF-8"?>
<svg width="32px" height="32px" viewBox="0 0 32 32" version="1.1" xmlns="http://www.w3.org/2000/svg" xmlns:xlink="http://www.w3.org/1999/xlink">
    <!-- Generator: Sketch 61.2 (89653) - https://sketch.com -->
    <title>3ECEF741-D58D-4A3F-A7A2-D0BA98BDA715</title>
    <desc>Created with Sketch.</desc>
    <g id="Keywords-Search-V2.0" stroke="none" stroke-width="1" fill="none" fill-rule="evenodd">
        <g id="Desktop-HD" transform="translate(-102.000000, -372.000000)">
            <g id="透视表" transform="translate(98.000000, 368.000000)">
                <polygon id="Path" fill="#3872F7" fill-rule="nonzero" points="4 4 11 4 11 11 4 11"></polygon>
                <polygon id="Path" fill="#71A1F4" fill-rule="nonzero" points="4 12 11 12 11 35 4 35"></polygon>
                <polygon id="Path" fill="#B3CDF9" fill-rule="nonzero" points="12 4 35 4 35 11 12 11"></polygon>
                <path d="M36,18.7020785 L32.0261337,15 L28.0691776,18.7020785 L29.2528824,19.8498845 L31.1806303,18.0554273 L31.1806303,19.3648961 C31.1806303,26.017321 25.5411222,31.408776 18.5826287,31.4249423 L17.1452729,31.4249423 L19.0561107,29.5496536 L17.8554958,28.4180139 L14,32.2170901 L17.8724058,36 L19.0730208,34.8683603 L17.2129131,33.0577367 L18.5657187,33.0577367 C26.4627964,33.0488285 32.8623191,26.930788 32.8716372,19.3810624 L32.8716372,18.0715935 L34.7993851,19.8660508 L36,18.7020785 Z" id="Path" fill="#47515F" fill-rule="nonzero"></path>
                <rect id="Rectangle" x="0" y="0" width="40" height="40"></rect>
            </g>
        </g>
    </g>
</svg>