<?xml version="1.0" encoding="UTF-8"?>
<svg width="16px" height="16px" viewBox="0 0 16 16" version="1.1" xmlns="http://www.w3.org/2000/svg" xmlns:xlink="http://www.w3.org/1999/xlink">
    <!-- Generator: Sketch 59 (86127) - https://sketch.com -->
    <title>44719346-4DD5-4993-B49A-AD453EB76624</title>
    <desc>Created with Sketch.</desc>
    <g id="Keywords-Search-V2.0" stroke="none" stroke-width="1" fill="none" fill-rule="evenodd">
        <g id="结果页加入看板" transform="translate(-512.000000, -493.000000)">
            <g id="Group-6" transform="translate(512.000000, 493.000000)">
                <circle id="Oval" fill="#F6F8FA" cx="8" cy="8" r="8"></circle>
                <g id="对号-(1)" transform="translate(3.000000, 5.000000)" fill="#000000" fill-rule="nonzero">
                    <path d="M3.55949591,5.38816767 L8.84064677,0.195687685 C9.10957542,-0.0652292282 9.53232508,-0.0652292282 9.80125373,0.195687685 C10.0662488,0.456584351 10.0662488,0.87910968 9.80125373,1.14000635 L4.04011188,6.80464567 C3.90761437,6.935094 3.73386763,7 3.55949591,7 C3.38574917,7 3.21200243,6.935094 3.07950491,6.80464567 L0.198933985,3.97232601 C0.0719085214,3.84932191 0,3.67865082 0,3.50016668 C0,3.32168253 0.0719085214,3.15101144 0.198933985,3.02800734 C0.467862639,2.76709042 0.8906123,2.76709042 1.15954095,3.02800734 L3.55949591,5.38880401 L3.55949591,5.38816767 Z" id="Path"></path>
                </g>
            </g>
        </g>
    </g>
</svg>