<?xml version="1.0" encoding="UTF-8"?>
<svg width="33px" height="33px" viewBox="0 0 33 33" version="1.1" xmlns="http://www.w3.org/2000/svg" xmlns:xlink="http://www.w3.org/1999/xlink">
    <!-- Generator: Sketch 59 (86127) - https://sketch.com -->
    <title>2CA4E65F-9628-40AE-81EA-B834DAE73B7D</title>
    <desc>Created with Sketch.</desc>
    <g id="Keywords-Search" stroke="none" stroke-width="1" fill="none" fill-rule="evenodd">
        <g id="图表的icon" transform="translate(-1164.000000, -612.000000)">
            <g id="散点图" transform="translate(1161.000000, 608.000000)">
                <g id="Group" transform="translate(8.800000, 4.000000)" fill-rule="nonzero">
                    <path d="M2.4,14.4 C1.0745166,14.4 0,13.3254834 0,12 C0,10.6745166 1.0745166,9.6 2.4,9.6 C3.7254834,9.6 4.8,10.6745166 4.8,12 C4.8,13.3254834 3.7254834,14.4 2.4,14.4 Z M8,17.6 C6.6745166,17.6 5.6,16.5254834 5.6,15.2 C5.6,13.8745166 6.6745166,12.8 8,12.8 C9.3254834,12.8 10.4,13.8745166 10.4,15.2 C10.4,16.5254834 9.3254834,17.6 8,17.6 Z M13.6,20.8 C12.2745166,20.8 11.2,19.7254834 11.2,18.4 C11.2,17.0745166 12.2745166,16 13.6,16 C14.9254834,16 16,17.0745166 16,18.4 C16,19.7254834 14.9254834,20.8 13.6,20.8 Z M13.6,14.4 C12.2745166,14.4 11.2,13.3254834 11.2,12 C11.2,10.6745166 12.2745166,9.6 13.6,9.6 C14.9254834,9.6 16,10.6745166 16,12 C16,13.3254834 14.9254834,14.4 13.6,14.4 Z M8,11.2 C6.6745166,11.2 5.6,10.1254834 5.6,8.8 C5.6,7.4745166 6.6745166,6.4 8,6.4 C9.3254834,6.4 10.4,7.4745166 10.4,8.8 C10.4,10.1254834 9.3254834,11.2 8,11.2 Z M19.2,17.6 C17.8745166,17.6 16.8,16.5254834 16.8,15.2 C16.8,13.8745166 17.8745166,12.8 19.2,12.8 C20.5254834,12.8 21.6,13.8745166 21.6,15.2 C21.6,16.5254834 20.5254834,17.6 19.2,17.6 Z" id="Shape" fill="#F04152"></path>
                    <path d="M2.4,27.2 C1.0745166,27.2 -1.77635684e-15,26.1254834 -1.77635684e-15,24.8 C-1.77635684e-15,23.4745166 1.0745166,22.4 2.4,22.4 C3.7254834,22.4 4.8,23.4745166 4.8,24.8 C4.8,26.1254834 3.7254834,27.2 2.4,27.2 Z M8,24 C6.6745166,24 5.6,22.9254834 5.6,21.6 C5.6,20.2745166 6.6745166,19.2 8,19.2 C9.3254834,19.2 10.4,20.2745166 10.4,21.6 C10.4,22.9254834 9.3254834,24 8,24 Z M2.4,20.8 C1.0745166,20.8 -1.77635684e-15,19.7254834 -1.77635684e-15,18.4 C-1.77635684e-15,17.0745166 1.0745166,16 2.4,16 C3.7254834,16 4.8,17.0745166 4.8,18.4 C4.8,19.7254834 3.7254834,20.8 2.4,20.8 Z" id="Shape" fill="#3872F7"></path>
                    <path d="M19.2,11.2 C17.8745166,11.2 16.8,10.1254834 16.8,8.8 C16.8,7.4745166 17.8745166,6.4 19.2,6.4 C20.5254834,6.4 21.6,7.4745166 21.6,8.8 C21.6,10.1254834 20.5254834,11.2 19.2,11.2 Z M24.8,8 C23.9425626,8 23.1502577,7.54256261 22.721539,6.80000001 C22.2928203,6.05743742 22.2928203,5.14256258 22.721539,4.39999999 C23.1502577,3.65743739 23.9425626,3.2 24.8,3.2 C26.1254834,3.2 27.2,4.2745166 27.2,5.6 C27.2,6.9254834 26.1254834,8 24.8,8 Z M13.6,8 C12.7425626,8 11.9502577,7.54256261 11.521539,6.80000001 C11.0928203,6.05743742 11.0928203,5.14256258 11.521539,4.39999999 C11.9502577,3.65743739 12.7425626,3.2 13.6,3.2 C14.9254834,3.2 16,4.2745166 16,5.6 C16,6.9254834 14.9254834,8 13.6,8 Z M19.2,4.8 C18.3425626,4.8 17.5502577,4.3425626 17.121539,3.60000001 C16.6928203,2.85743742 16.6928203,1.94256258 17.121539,1.19999999 C17.5502577,0.4574374 18.3425626,0 19.2,0 C20.5254834,0 21.6,1.07451661 21.6,2.4 C21.6,3.72548339 20.5254834,4.8 19.2,4.8 Z" id="Shape" fill="#FCC839"></path>
                </g>
                <polyline id="Path" stroke="#47515F" points="4.4 4 4.4 35.6 36 35.6"></polyline>
                <rect id="Rectangle" x="0" y="0" width="40" height="40"></rect>
            </g>
        </g>
    </g>
</svg>