<?xml version="1.0" encoding="utf-8"?>
<!-- Generator: Adobe Illustrator 16.0.0, SVG Export Plug-In . SVG Version: 6.00 Build 0)  -->
<!DOCTYPE svg PUBLIC "-//W3C//DTD SVG 1.1//EN" "http://www.w3.org/Graphics/SVG/1.1/DTD/svg11.dtd">
<svg version="1.1" id="图层_1" xmlns="http://www.w3.org/2000/svg" xmlns:xlink="http://www.w3.org/1999/xlink" x="0px" y="0px"
	 width="20px" height="20px" viewBox="0 0 20 20" enable-background="new 0 0 20 20" xml:space="preserve">
<title>8C0D1B21-38F6-4BDF-B474-1DF67F7B9BEA</title>
<desc>Created with Sketch.</desc>
<g id="Keywords-Search">
	<g id="结果---图" transform="translate(-1391.000000, -346.000000)">
		<g id="设-置" transform="translate(1391.000000, 346.000000)">
			<path id="Shape" fill="#2B67F1" d="M18.236,10c0-1.169,0.734-2.161,1.764-2.556c-0.246-0.964-0.625-1.873-1.121-2.708
				c-1.008,0.448-2.227,0.266-3.053-0.563C15,3.348,14.816,2.127,15.266,1.121C14.43,0.625,13.52,0.246,12.557,0
				C12.158,1.029,11.168,1.763,10,1.763C8.831,1.763,7.839,1.029,7.444,0C6.48,0.246,5.571,0.625,4.737,1.121
				C5.185,2.13,5.003,3.349,4.176,4.175C3.351,5,2.129,5.183,1.123,4.737C0.625,5.571,0.246,6.48,0,7.444
				C1.029,7.841,1.763,8.833,1.763,10c0,1.17-0.734,2.16-1.763,2.557c0.246,0.963,0.625,1.873,1.121,2.707
				c1.009-0.449,2.228-0.266,3.054,0.563c0.826,0.825,1.009,2.047,0.56,3.053C5.571,19.375,6.48,19.754,7.444,20
				c0.397-1.029,1.388-1.764,2.556-1.764c1.17,0,2.16,0.734,2.557,1.764c0.963-0.246,1.873-0.625,2.707-1.121
				c-0.449-1.008-0.266-2.227,0.562-3.053c0.825-0.826,2.047-1.01,3.053-0.563c0.498-0.836,0.877-1.744,1.123-2.709
				C18.971,12.16,18.236,11.17,18.236,10z M10,12.746c-1.516,0-2.746-1.23-2.746-2.746c0-1.516,1.23-2.746,2.746-2.746
				c1.516,0,2.746,1.23,2.746,2.746C12.746,11.516,11.516,12.746,10,12.746z"/>
		</g>
	</g>
</g>
</svg>
