<?xml version="1.0" encoding="UTF-8"?>
<svg width="20px" height="20px" viewBox="0 0 20 20" version="1.1" xmlns="http://www.w3.org/2000/svg" xmlns:xlink="http://www.w3.org/1999/xlink">
    <!-- Generator: Sketch 59 (86127) - https://sketch.com -->
    <title>8C0D1B21-38F6-4BDF-B474-1DF67F7B9BEA</title>
    <desc>Created with Sketch.</desc>
    <g id="Keywords-Search" stroke="none" stroke-width="1" fill="none" fill-rule="evenodd">
        <g id="结果---图" transform="translate(-1391.000000, -346.000000)" fill="#000000" fill-rule="nonzero">
            <g id="设-置" transform="translate(1391.000000, 346.000000)">
                <path d="M18.2366071,10 C18.2366071,8.83035714 18.9709821,7.83928571 20,7.44419643 C19.7544643,6.47991071 19.375,5.57142857 18.8794643,4.73660714 C17.8705357,5.18526786 16.6517857,5.00223214 15.8258929,4.17410714 C15,3.34821429 14.8169643,2.12723214 15.265625,1.12053571 C14.4285714,0.625 13.5200893,0.245535714 12.5558036,0 C12.1584821,1.02901786 11.1674107,1.76339286 10,1.76339286 C8.83035714,1.76339286 7.83928571,1.02901786 7.44419643,0 C6.47991071,0.245535714 5.57142857,0.625 4.73660714,1.12053571 C5.18526786,2.12946429 5.00223214,3.34821429 4.17633929,4.17410714 C3.35044643,5 2.12946429,5.18303571 1.12276786,4.73660714 C0.625,5.57142857 0.245535714,6.47991071 0,7.44419643 C1.02901786,7.84151786 1.76339286,8.83258929 1.76339286,10 C1.76339286,11.1696429 1.02901786,12.1607143 0,12.5558036 C0.245535714,13.5200893 0.625,14.4285714 1.12053571,15.2633929 C2.12946429,14.8147321 3.34821429,14.9977679 4.17410714,15.8258929 C5,16.6517857 5.18303571,17.8727679 4.734375,18.8794643 C5.57142857,19.375 6.47991071,19.7544643 7.44419643,20 C7.84151786,18.9709821 8.83258929,18.2366071 10,18.2366071 C11.1696429,18.2366071 12.1607143,18.9709821 12.5558036,20 C13.5200893,19.7544643 14.4285714,19.375 15.2633929,18.8794643 C14.8147321,17.8705357 14.9977679,16.6517857 15.8236607,15.8258929 C16.6495536,15 17.8705357,14.8169643 18.8772321,15.2633929 C19.375,14.4285714 19.7544643,13.5200893 20,12.5558036 C18.9709821,12.1607143 18.2366071,11.1696429 18.2366071,10 Z M10,12.7455357 C8.484375,12.7455357 7.25446429,11.515625 7.25446429,10 C7.25446429,8.484375 8.484375,7.25446429 10,7.25446429 C11.515625,7.25446429 12.7455357,8.484375 12.7455357,10 C12.7455357,11.515625 11.515625,12.7455357 10,12.7455357 Z" id="Shape"></path>
            </g>
        </g>
    </g>
</svg>