<?xml version="1.0" encoding="UTF-8"?>
<svg width="32px" height="32px" viewBox="0 0 32 32" version="1.1" xmlns="http://www.w3.org/2000/svg" xmlns:xlink="http://www.w3.org/1999/xlink">
    <!-- Generator: Sketch 59 (86127) - https://sketch.com -->
    <title>FF28AA97-8934-45B8-8D28-63FFCEDD9C70</title>
    <desc>Created with Sketch.</desc>
    <g id="Keywords-Search" stroke="none" stroke-width="1" fill="none" fill-rule="evenodd">
        <g id="图表的icon" transform="translate(-1165.000000, -495.000000)">
            <g id="堆叠条形图" transform="translate(1161.000000, 491.000000)">
                <rect id="Rectangle" x="0" y="0" width="40" height="40"></rect>
                <line x1="4.8" y1="36" x2="4.8" y2="4" id="Path" stroke="#47515F"></line>
                <g id="Group" transform="translate(7.200000, 4.000000)" fill-rule="nonzero">
                    <path d="M9.6,0 L9.6,6.4 L0,6.4 L0,0 L9.6,0 Z M17.6,8.536 L17.6,14.936 L0,14.936 L0,8.536 L17.6,8.536 Z M28.8,17.064 L28.8,23.464 L0,23.464 L0,17.064 L28.8,17.064 Z M20.8,25.6 L20.8,32 L0,32 L0,25.6 L20.8,25.6 Z" id="Shape" fill="#3872F7"></path>
                    <path d="M9.6,0 L9.6,6.4 L1.6,6.4 L1.6,0 L9.6,0 Z M19.2,8.536 L19.2,14.936 L3.2,14.936 L3.2,8.536 L19.2,8.536 Z M17.6,17.064 L17.6,23.464 L4.8,23.464 L4.8,17.064 L17.6,17.064 Z M19.2,25.6 L19.2,32 L6.4,32 L6.4,25.6 L19.2,25.6 Z" id="Shape" fill="#F04152"></path>
                    <path d="M9.6,0 L9.6,6.4 L6.4,6.4 L6.4,0 L9.6,0 Z M19.2,8.536 L19.2,14.936 L11.2,14.936 L11.2,8.536 L19.2,8.536 Z M22.4,17.064 L22.4,23.464 L16,23.464 L16,17.064 L22.4,17.064 Z M17.6,25.6 L17.6,32 L12.8,32 L12.8,25.6 L17.6,25.6 Z" id="Shape" fill="#FCC838"></path>
                    <path d="M11.2,0 L11.2,6.4 L9.6,6.4 L9.6,0 L11.2,0 Z M19.2,8.536 L19.2,14.936 L14.4,14.936 L14.4,8.536 L19.2,8.536 Z M28.8,17.064 L28.8,23.464 L22.4,23.464 L22.4,17.064 L28.8,17.064 Z M20.8,25.6 L20.8,32 L17.6,32 L17.6,25.6 L20.8,25.6 Z" id="Shape" fill="#48D1E0"></path>
                </g>
            </g>
        </g>
    </g>
</svg>