<?xml version="1.0" encoding="UTF-8"?>
<svg width="18px" height="18px" viewBox="0 0 18 18" version="1.1" xmlns="http://www.w3.org/2000/svg" xmlns:xlink="http://www.w3.org/1999/xlink">
    <!-- Generator: Sketch 59 (86127) - https://sketch.com -->
    <title>828447C5-EA38-44F4-8DB0-31F983B7D326</title>
    <desc>Created with Sketch.</desc>
    <g id="Keywords-Search" stroke="none" stroke-width="1" fill="none" fill-rule="evenodd">
        <g id="结果---图" transform="translate(-1216.000000, -299.000000)" fill-rule="nonzero">
            <g id="data_table_icon_27" transform="translate(1216.000000, 299.000000)">
                <polygon id="Path" fill="#747E8C" points="0 0 18 0 18 3.51219512 0 3.51219512"></polygon>
                <path d="M3.55271368e-15,4.3902439 L4.1535,4.3902439 L4.1535,6.67317073 L3.55271368e-15,6.67317073 L3.55271368e-15,4.3902439 Z M4.617,4.3902439 L8.7705,4.3902439 L8.7705,6.67317073 L4.617,6.67317073 L4.617,4.3902439 Z M9.2295,4.3902439 L13.383,4.3902439 L13.383,6.67317073 L9.2295,6.67317073 L9.2295,4.3902439 Z M13.8465,4.3902439 L18,4.3902439 L18,6.67317073 L13.8465,6.67317073 L13.8465,4.3902439 Z M0,7.12536585 L4.1535,7.12536585 L4.1535,9.40829268 L0,9.40829268 L0,7.12536585 Z M4.617,7.12536585 L8.7705,7.12536585 L8.7705,9.40829268 L4.617,9.40829268 L4.617,7.12536585 Z M9.2295,7.12536585 L13.383,7.12536585 L13.383,9.40829268 L9.2295,9.40829268 L9.2295,7.12536585 Z M13.8465,7.12536585 L18,7.12536585 L18,9.40829268 L13.8465,9.40829268 L13.8465,7.12536585 Z M0,9.86487805 L4.1535,9.86487805 L4.1535,12.1434146 L0,12.1434146 L0,9.8604878 L0,9.86487805 Z M4.617,9.86487805 L8.7705,9.86487805 L8.7705,12.1434146 L4.617,12.1434146 L4.617,9.8604878 L4.617,9.86487805 Z M9.2295,9.86487805 L13.383,9.86487805 L13.383,12.1434146 L9.2295,12.1434146 L9.2295,9.8604878 L9.2295,9.86487805 Z M13.8465,9.86487805 L18,9.86487805 L18,12.1434146 L13.8465,12.1434146 L13.8465,9.8604878 L13.8465,9.86487805 Z M0,12.6 L4.1535,12.6 L4.1535,14.8829268 L0,14.8829268 L0,12.6 Z M4.617,12.6 L8.7705,12.6 L8.7705,14.8829268 L4.617,14.8829268 L4.617,12.6 Z M9.2295,12.6 L13.383,12.6 L13.383,14.8829268 L9.2295,14.8829268 L9.2295,12.6 Z M13.8465,12.6 L18,12.6 L18,14.8829268 L13.8465,14.8829268 L13.8465,12.6 Z M0,15.335122 L4.1535,15.335122 L4.1535,17.6180488 L0,17.6180488 L0,15.335122 Z M4.617,15.335122 L8.7705,15.335122 L8.7705,17.6180488 L4.617,17.6180488 L4.617,15.335122 Z M9.2295,15.335122 L13.383,15.335122 L13.383,17.6180488 L9.2295,17.6180488 L9.2295,15.335122 Z M13.8465,15.335122 L18,15.335122 L18,17.6180488 L13.8465,17.6180488 L13.8465,15.335122 Z" id="Shape" fill="#D9DFE7"></path>
            </g>
        </g>
    </g>
</svg>