<?xml version="1.0" encoding="UTF-8"?>
<svg width="22px" height="26px" viewBox="0 0 22 26" version="1.1" xmlns="http://www.w3.org/2000/svg" xmlns:xlink="http://www.w3.org/1999/xlink">
    <title>编组 3</title>
    <defs>
        <linearGradient x1="50%" y1="0%" x2="50%" y2="100%" id="linearGradient-1">
            <stop stop-color="#DDE2E7" offset="0%"></stop>
            <stop stop-color="#ACB8C5" offset="100%"></stop>
        </linearGradient>
    </defs>
    <g id="1⃣️2023/02数据模型" stroke="none" stroke-width="1" fill="none" fill-rule="evenodd">
        <g id="2-1模型-详情-表-添加关联表" transform="translate(-715.000000, -306.000000)">
            <g id="编组-2备份" transform="translate(252.000000, 0.000000)">
                <g id="编组-14备份-2" transform="translate(336.000000, 142.000000)">
                    <g id="编组-3" transform="translate(82.000000, 164.000000)">
                        <g transform="translate(45.000000, 0.000000)">
                            <path d="M22,26 L0,26 L0,0 L16,0 L22,6 L22,26 Z" id="形状结合" fill="url(#linearGradient-1)"></path>
                            <polygon id="矩形" fill="#EDEFF2" points="16 0 22 6 16 6"></polygon>
                            <g id="手指示" transform="translate(11.000000, 13.322015) scale(-1, 1) translate(-11.000000, -13.322015) translate(5.677985, 6.322015)" fill="#FFFFFF" fill-rule="nonzero" stroke="#FFFFFF" stroke-width="0.4">
                                <path d="M12.2172355,5.05019904 C11.981269,4.54745153 11.5512598,4.29828606 10.9934404,4.29167812 C10.2680442,4.28505319 8.30363247,4.2894698 7.57825321,4.2894698 C6.36332532,4.2894698 5.14848237,4.2894698 3.89387283,4.2894698 C4.09221315,4.11530201 4.26420661,3.96094104 4.44287598,3.81537936 C5.13518154,3.25093502 5.04263631,2.20363495 4.11203698,1.8001595 C3.578509,1.56855861 3.06699618,1.67223034 2.62383909,2.0602646 C1.81238664,2.77023665 1.00540179,3.48245099 0.200574287,4.19244001 C0.121177009,4.26074477 0.0484726014,4.29386943 -0.0596666948,4.29386943 C-0.555755307,4.2894698 -1.05184392,4.29386943 -1.54793255,4.2894698 C-1.63828646,4.2894698 -1.67798509,4.30496195 -1.67798509,4.41072308 C-1.67579377,6.77227409 -1.67579377,9.13813979 -1.67798509,11.5039885 C-1.67798509,11.592236 -1.65588499,11.6164595 -1.56558205,11.6164595 C-1.0496526,11.6142342 -0.531480881,11.6164595 -0.0155344533,11.6142342 C0.0770787143,11.6142342 0.158650343,11.6318667 0.238098583,11.6737737 C0.606308992,11.8743732 0.974468438,12.0706242 1.34492114,12.2690324 C1.4132429,12.3065397 1.48164959,12.3220149 1.56104686,12.3220149 C2.86857094,12.3220149 4.17385272,12.3220149 5.47689222,12.3220149 C5.62024559,12.3220149 5.75479969,12.2999148 5.89147717,12.2646328 C6.57496647,12.0992473 6.82192361,11.5767269 6.78665858,11.071805 C6.76900908,10.8513136 6.68748841,10.6550457 6.55512565,10.4764783 C7.01165152,10.3464258 7.37099471,10.1082339 7.53413795,9.65846887 C7.69952347,9.19535204 7.57164526,8.78749394 7.23868289,8.44794063 C7.89361702,8.0003669 8.05006739,7.43585462 7.67310867,6.73245655 C8.35654701,6.73245655 10.2702355,6.73245655 10.9383346,6.73245655 C11.0904872,6.73245655 11.2404825,6.71925764 11.3881846,6.67295105 C12.1312473,6.45033629 12.5236642,5.7006486 12.2172355,5.05019904 L12.2172355,5.05019904 Z M-0.0750739001,10.9439608 C-0.0750739001,11.0498068 -0.101488714,11.0762386 -0.205143453,11.0740303 C-0.478549362,11.0674054 -0.756320937,11.0696137 -1.03193516,11.0740303 C-1.1113834,11.0762386 -1.12898194,11.0542065 -1.12898194,10.9747922 C-1.12679062,8.95286248 -1.12679062,6.93093275 -1.12898194,4.91129627 C-1.12898194,4.82969067 -1.10919207,4.80548419 -1.02531022,4.80759058 C-0.745347326,4.81199021 -0.465316474,4.81199021 -0.185285622,4.80759058 C-0.0948637704,4.80548419 -0.0750739001,4.83189899 -0.0750739001,4.92012952 C-0.077265216,5.92555662 -0.077265216,6.92874144 -0.077265216,7.93423649 C-0.0772652492,8.93524694 -0.0816309157,9.94067405 -0.0750739001,10.9439608 L-0.0750739001,10.9439608 Z M11.7696788,5.46692434 C11.7410047,5.74027929 11.4785724,6.00485196 11.1698336,6.06218312 C11.0860876,6.07769227 11.0023926,6.0820919 10.9185108,6.0820919 C9.9196916,6.08430021 7.67531699,6.08430021 6.67639591,6.07981564 C6.57054985,6.07981564 6.52874483,6.10631538 6.54634337,6.21214444 C6.54851771,6.22755166 6.54634337,6.2451502 6.54634337,6.26285066 C6.54634337,6.36867973 6.51773724,6.48555035 6.55295132,6.57819749 C6.59264996,6.67960994 6.73824561,6.62888673 6.83079084,6.67293405 C6.93439461,6.72153388 7.03804934,6.77225709 7.12181228,6.85151848 C7.44590743,7.15582375 7.37537737,7.63652214 6.97850987,7.86800413 C6.79770015,7.97167585 6.60144922,7.9914827 6.40078169,7.97824981 C6.30380285,7.97383318 6.25532193,7.99588233 6.27514576,8.10172839 C6.27733708,8.12160318 6.27514576,8.14591159 6.27514576,8.16573544 C6.27514576,8.27149655 6.24861206,8.38620983 6.28170274,8.48104831 C6.32364367,8.591294 6.46480572,8.52738887 6.55736793,8.57138522 C6.67201326,8.63092468 6.78665858,8.68161392 6.87483815,8.7786607 C7.31145524,9.2483515 6.89250463,9.7730972 6.48678691,9.85682617 C6.25973854,9.905426 6.03250332,9.87231832 5.80321267,9.88334289 C5.70180022,9.88775952 5.57174769,9.83922763 5.51220822,9.90104335 C5.44828611,9.96267222 5.4990433,10.095018 5.49241835,10.1942731 C5.49241835,10.1986727 5.49241835,10.2008641 5.49241835,10.207472 C5.49241835,10.4059312 5.49241835,10.4015316 5.67976808,10.4499616 C5.84296228,10.4896772 5.99287263,10.5646069 6.1031523,10.69257 C6.24648869,10.8601299 6.33025163,11.0541895 6.24648869,11.2768212 C6.14944191,11.5436022 5.95098267,11.7045711 5.67540243,11.7619872 C5.60263007,11.7773095 5.52542413,11.781794 5.44828611,11.7840193 C4.19804224,11.7840193 2.94795124,11.7840193 1.69775833,11.7862107 C1.62493501,11.7862107 1.55877062,11.7708204 1.49488247,11.7332791 C1.17953564,11.5436192 0.864239751,11.3540611 0.546769545,11.1688518 C0.480571175,11.1313445 0.451965045,11.0916119 0.451965045,11.0122995 C0.454156361,8.90655587 0.454156361,6.80077826 0.451965045,4.69292825 C0.451965045,4.62679782 0.462955638,4.5760916 0.518078489,4.5275767 C1.3361219,3.81096273 2.15418227,3.0877578 2.97000038,2.36896949 C3.25001424,2.1220803 3.56974373,2.08226275 3.90488044,2.20801758 C4.39877774,2.39327789 4.49801585,2.93560516 4.10553099,3.28844232 C3.64244814,3.70511667 3.1750166,4.11530199 2.70756809,4.5275767 C2.64366296,4.58708219 2.57751555,4.64449829 2.48490236,4.73043557 C2.91265224,4.73043557 3.29847818,4.73043557 3.68658038,4.73043557 C5.68858435,4.73043557 8.92756534,4.73043557 10.9295693,4.73043557 C11.0574985,4.73043557 11.18096,4.74365145 11.3044047,4.79437468 C11.6174582,4.91781927 11.8004593,5.1802176 11.7696788,5.46692434 L11.7696788,5.46692434 Z" id="形状" transform="translate(5.322015, 7.000000) rotate(-90.000000) translate(-5.322015, -7.000000) "></path>
                            </g>
                        </g>
                    </g>
                </g>
            </g>
        </g>
    </g>
</svg>